<svg width="608" height="503" viewBox="0 0 608 503" fill="none" xmlns="http://www.w3.org/2000/svg">
<g clip-path="url(#clip0_917_125)">
<path fill-rule="evenodd" clip-rule="evenodd" d="M543.951 496.377C543.934 496.572 536.917 499.004 531.53 495.703C528.015 493.67 525.222 491.524 523.629 490.272C523.251 489.991 522.936 489.762 522.698 489.588C522.618 489.53 522.544 489.475 522.481 489.429C521.61 489.562 520.737 489.671 519.863 489.708C519.688 489.715 519.586 489.599 519.571 489.472C519.556 489.345 519.628 489.207 519.799 489.168C520.67 488.971 521.582 488.918 522.441 488.684L522.492 488.615C522.633 488.372 522.945 488 523.263 487.544C524.388 485.834 526.24 482.883 528.308 479.829C531.403 474.57 536.706 473.035 537.011 473.161C536.801 473.103 535.198 477.777 532.026 482.995C530.422 485.659 527.996 487.217 525.949 488.092C527.37 487.836 529.108 487.462 530.675 487.096C532.003 486.814 533.363 486.65 534.613 486.09C534.777 485.811 535.022 485.394 535.322 484.849C536.262 483.027 537.812 479.943 539.462 476.429C542.093 471.13 547.186 468.955 547.466 468.957C547.287 469.012 546.163 473.835 543.544 479.366C542.261 482.358 539.961 484.016 538.018 485.108C539.113 484.773 540.205 484.428 541.289 484.062C543.208 483.414 545.107 482.711 546.99 481.963C547.123 481.667 547.33 481.208 547.343 480.674C548.319 478.691 549.508 475.4 550.797 471.774C552.822 466.142 557.687 463.457 558.035 463.663C557.796 463.503 557.181 468.426 555.16 474.223C554.115 477.258 551.997 479.346 550.156 480.648C552.912 479.457 555.634 478.195 558.127 476.794C558.316 476.66 558.351 476.557 558.391 476.435C558.488 476.143 558.571 475.767 558.752 475.295C559.296 473.308 560.152 469.903 561.075 466.151C562.531 460.326 567.118 457.108 567.395 457.045C567.231 457.142 567.102 462.112 565.665 468.102C564.901 471.334 562.909 473.684 561.168 475.176C561.28 475.181 561.279 475.094 561.456 475.017C562.587 474.372 563.704 473.701 564.816 473.018C564.937 472.853 564.851 472.721 565.251 472.438L565.337 472.326C565.481 472.463 565.493 472.125 565.579 472.015C565.676 471.892 565.78 471.761 565.888 471.627L565.784 471.589L565.802 471.582C567.371 469.794 569.655 467.26 572.559 465.062C577.561 461.307 582.939 459.634 582.936 459.63C582.939 459.629 582.939 459.629 582.939 459.629C582.925 459.644 580.657 465.218 575.381 469.187C572.306 471.51 569.083 472.638 566.923 473.177L566.912 473.182C566.833 473.201 566.763 473.216 566.687 473.234C565.968 473.405 565.38 473.512 564.979 473.572C564.174 474.073 563.599 474.394 562.914 474.798C562.314 475.153 561.709 475.496 561.104 475.838C563.267 475.064 566.414 474.364 569.753 474.967C575.832 476.1 581.006 477.021 581.016 476.843L581.016 476.844C580.962 477.07 575.254 481.567 569.046 480.402C565.082 479.542 561.801 478.422 559.923 477.758C559.5 477.622 559.142 477.51 558.87 477.424C558.546 477.445 558.654 477.356 558.567 477.328L558.555 477.325L558.555 477.325L558.46 477.294C556.682 478.243 554.883 479.149 553.062 480.003C552.047 480.479 551.024 480.935 549.996 481.381C552.269 481.057 555.348 480.55 558.539 481.502C564.46 483.302 569.499 484.797 569.527 484.622C569.548 484.817 563.356 488.674 557.282 486.736C553.479 485.651 550.329 484.174 548.496 483.19C548.089 483.009 547.745 482.858 547.482 482.743L547.482 482.743C547.375 482.696 547.187 482.682 547.202 482.619L547.179 482.609L547.18 482.61L547.135 482.632C543.991 483.834 540.978 484.911 537.838 485.87C540.088 485.638 543.149 485.715 546.118 487.25C551.811 489.473 556.68 491.537 556.741 491.419C556.728 491.561 550.225 494.858 544.336 492.052C540.648 490.416 537.67 488.588 535.75 487.578C535.535 487.263 535.187 487.061 534.814 486.942C534.855 486.869 534.786 486.829 534.729 486.795L534.714 486.787L534.714 486.787L534.703 486.78C533.861 487.011 533.016 487.233 532.168 487.444C530.04 487.978 528.222 488.368 526.23 488.749C526.073 488.779 525.914 488.811 525.734 489.064C528.018 488.867 531.027 489.288 533.84 490.867C539.273 493.952 543.887 496.542 543.951 496.377ZM522.264 477.593C521.185 478.091 520.335 478.507 519.594 478.846L519.559 478.892C518.93 480.699 518.282 482.5 517.535 484.254C517.389 484.598 517.07 484.696 516.809 484.617C516.549 484.538 516.345 484.282 516.235 483.971C516.836 482.098 517.397 480.306 518.009 478.528C517.986 478.561 517.849 478.204 517.758 478.015C517.483 477.45 517.121 476.704 516.676 475.805C514.655 471.995 511.212 465.337 508.282 457.201C503.573 444.314 511.183 430.858 511.599 430.895C511.228 430.966 514.974 441.848 519.316 454.164C521.56 460.655 521.298 467.123 520.491 471.878C520.615 471.559 520.741 471.238 520.864 470.92C522.424 466.882 524.091 462.891 525.866 458.951C526.633 457.251 527.421 455.562 528.227 453.881L528.216 453.855L528.217 453.855L528.205 453.822C528.156 453.689 528.097 453.529 528.038 453.362C527.82 452.762 527.529 451.956 527.159 450.956C525.56 446.983 522.858 440.051 520.826 431.704C517.536 418.473 526.577 405.892 526.988 405.97C526.61 406.003 529.112 416.939 532.134 429.817C533.681 436.562 532.676 443.013 531.331 447.646C534.55 441.448 538.03 435.334 541.769 429.4L541.736 429.267L541.737 429.269L541.725 429.218C541.68 429.035 541.63 428.826 541.58 428.61L541.572 428.583C541.43 427.989 541.259 427.263 540.957 426.308C539.719 422.232 537.985 415.03 536.92 406.534C535.214 393.245 545.514 381.55 546.024 381.638C545.516 381.874 546.864 392.759 548.389 405.854C549.172 412.903 547.142 419.463 545.388 423.818C546.716 421.83 548.063 419.854 549.45 417.904C551.937 414.403 554.525 410.968 557.193 407.591L557.166 407.38L557.166 407.381L557.163 407.355C557.138 407.162 557.036 407.163 557.078 406.684L557.078 406.683C557.024 406.158 556.902 405.288 556.778 404.35C555.934 400.293 554.997 392.861 554.878 384.309C554.619 370.766 566.311 360.316 566.731 360.443C566.731 360.444 566.732 360.444 566.733 360.444C566.355 360.4 566.318 371.597 566.381 384.772C566.406 392.11 563.741 398.461 561.258 402.589C562.208 401.448 563.159 400.307 564.131 399.183C565.242 397.895 566.362 396.6 567.493 395.308C567.656 394.521 568.219 393.295 568.853 391.851C568.919 391.699 568.978 391.557 569.049 391.4L569.063 391.379C571.018 387.049 574.613 380.709 580.662 375.127C591.006 365.542 603.614 362.785 603.636 362.792L603.636 362.792C603.618 362.903 598.053 373.55 588.249 382.588C582.527 387.859 576.336 391.702 572.136 394.011L572.132 394.014L571.922 394.128C571.6 394.304 571.108 394.701 570.991 394.631C570.727 394.771 570.486 394.896 570.245 395.022L569.977 395.161C569.456 395.429 568.905 395.689 568.595 395.857C566.737 397.934 564.813 400.052 563.117 402.159C562.966 402.338 562.822 402.523 562.672 402.703C566.47 399.61 572.163 396.308 579.238 395.915C592.123 395.205 602.849 396.726 603.116 396.418C602.878 396.976 594.436 405.623 581.586 406.272C573.358 406.806 565.883 407.329 561.502 407.727C560.483 407.847 559.621 407.964 558.971 408.057C558.7 408.097 558.471 408.13 558.271 408.159C554.299 413.217 550.539 418.423 546.989 423.758C550.425 420.382 555.615 416.72 562.386 415.662C575.328 413.59 585.808 414.165 586.128 413.808C585.763 414.438 578.463 423.586 565.692 425.778C557.761 427.077 550.167 428.408 546.09 429.178C544.761 429.57 543.693 429.739 543.021 429.907C540.733 433.578 538.534 437.3 536.443 441.081C535.261 443.219 534.121 445.38 533 447.552C536.033 443.885 540.709 439.832 547.161 438.107C559.773 434.68 570.389 434.348 570.551 433.912C570.41 434.359 564.04 444.296 551.774 447.767C543.873 449.967 536.643 452.03 532.517 453.305C531.259 453.73 530.289 454.088 529.641 454.328C528.425 457.043 527.18 459.559 526.03 462.212C524.663 465.362 523.372 468.547 522.136 471.754C524.753 467.787 528.707 463.349 535.155 460.912C547.318 456.209 557.743 454.593 557.888 454.22C557.851 454.817 552.607 465.367 540.792 470.089C533.185 473.091 526.283 475.872 522.264 477.593Z" fill="#20296E"/>
</g>
<path fill-rule="evenodd" clip-rule="evenodd" d="M140.623 145.829C140.79 145.971 138.463 153.955 131.957 156.735C127.821 158.627 124.051 159.785 121.876 160.428C121.374 160.592 120.961 160.731 120.647 160.835C120.542 160.871 120.445 160.903 120.362 160.931C119.919 161.812 119.452 162.68 118.919 163.502C118.812 163.667 118.641 163.684 118.515 163.616C118.389 163.547 118.309 163.392 118.384 163.211C118.769 162.287 119.312 161.421 119.655 160.484L119.625 160.393C119.495 160.106 119.358 159.581 119.147 158.995C118.315 156.859 116.821 153.255 115.373 149.387C112.577 143.152 114.612 137.314 114.925 137.117C114.736 137.272 117.965 141.766 120.673 148.044C122.066 151.236 121.917 154.461 121.389 156.898C122.076 155.434 122.861 153.604 123.542 151.936C124.146 150.541 124.878 149.192 125.177 147.688C125.028 147.358 124.806 146.863 124.503 146.236C123.449 144.197 121.638 140.783 119.498 136.997C116.364 131.16 117.68 125.1 117.864 124.846C117.798 125.045 121.473 129.197 124.826 135.174C126.726 138.285 126.749 141.46 126.487 143.942C126.891 142.725 127.284 141.504 127.652 140.277C128.304 138.105 128.894 135.915 129.432 133.711C129.247 133.397 128.962 132.911 128.483 132.553C127.305 130.376 125.071 127.157 122.595 123.63C118.765 118.129 119.466 111.946 119.88 111.763C119.579 111.877 123.676 115.63 127.66 121.233C129.754 124.155 130.287 127.441 130.283 129.967C130.981 126.679 131.594 123.375 131.931 120.191C131.931 119.93 131.859 119.833 131.774 119.717C131.57 119.439 131.28 119.12 130.967 118.648C129.505 116.863 126.95 113.875 124.123 110.6C119.748 105.494 119.782 99.2194 119.904 98.9253C119.886 99.1384 124.341 102.478 128.88 107.673C131.336 110.465 132.19 113.808 132.424 116.365C132.502 116.266 132.421 116.21 132.465 115.999C132.61 114.548 132.721 113.092 132.818 111.634C132.746 111.418 132.57 111.41 132.571 110.861L132.525 110.71C132.743 110.667 132.442 110.438 132.397 110.287C132.347 110.119 132.296 109.939 132.243 109.754L132.14 109.824L132.147 109.803C131.531 107.212 130.697 103.483 130.572 99.4066C130.386 92.4048 132.345 86.4092 132.339 86.4099C132.34 86.4069 132.34 86.4069 132.34 86.4069C132.345 86.4288 135.964 92.1129 136.169 99.504C136.296 103.818 135.237 107.492 134.329 109.814L134.326 109.827C134.293 109.911 134.261 109.985 134.228 110.066C133.919 110.834 133.635 111.439 133.43 111.845C133.366 112.905 133.286 113.637 133.211 114.526C133.146 115.303 133.067 116.078 132.988 116.852C133.683 114.375 135.084 111.048 137.798 108.39C142.774 103.573 146.968 99.4459 146.813 99.3211L146.814 99.3215C146.985 99.5178 147.391 107.645 142.303 112.558C138.948 115.621 135.799 117.89 133.975 119.175C133.576 119.473 133.242 119.727 132.987 119.92C132.796 120.229 132.785 120.074 132.704 120.135L132.692 120.143L132.693 120.143L132.604 120.21C132.317 122.449 131.977 124.679 131.577 126.896C131.355 128.131 131.108 129.361 130.849 130.588C132.026 128.302 133.559 125.162 136.496 122.866C141.979 118.626 146.61 114.994 146.468 114.855C146.66 114.961 146.168 123.116 140.461 127.406C137.005 130.176 133.614 132.094 131.528 133.131C131.098 133.385 130.738 133.601 130.463 133.767L130.462 133.767C130.35 133.834 130.215 133.997 130.168 133.942L130.144 133.957L130.145 133.956L130.136 134.012C129.196 137.663 128.226 141.111 127.067 144.601C128.313 142.396 130.367 139.65 133.694 137.934C139.414 134.177 144.455 131.069 144.387 130.936C144.508 131.04 143.303 139.115 136.924 142.675C133.039 144.981 129.439 146.516 127.272 147.614C126.846 147.607 126.436 147.794 126.085 148.057C126.045 147.972 125.963 148.009 125.896 148.04L125.878 148.047L125.879 148.047L125.865 148.053C125.53 148.972 125.185 149.887 124.828 150.798C123.937 153.088 123.114 155 122.171 157.067C122.096 157.23 122.022 157.395 122.137 157.724C123.438 155.51 125.773 153.036 129.038 151.49C135.376 148.529 140.733 145.994 140.623 145.829ZM109.413 153.456C109.168 154.764 108.997 155.811 108.826 156.707L108.845 156.769C110.088 158.514 111.312 160.273 112.429 162.093C112.649 162.449 112.532 162.803 112.291 162.99C112.05 163.177 111.684 163.197 111.328 163.096C110.008 161.333 108.736 159.659 107.508 157.949C107.524 157.991 107.109 157.884 106.877 157.845C106.182 157.73 105.268 157.577 104.157 157.4C99.369 156.776 91.0571 155.603 81.7285 153.006C66.9085 148.952 59.5535 133.28 59.8574 132.924C59.682 133.31 72.0466 136.943 86.1077 140.961C93.4895 143.12 99.2265 147.552 103.045 151.371C102.834 151.051 102.622 150.728 102.412 150.409C99.7362 146.367 97.1727 142.258 94.7247 138.083C93.6691 136.281 92.6383 134.466 91.6259 132.641L91.5947 132.633L91.5958 132.633L91.557 132.623C91.4041 132.581 91.2199 132.531 91.0291 132.477C90.34 132.287 89.4147 132.03 88.2624 131.719C83.5979 130.604 75.5161 128.579 66.577 125.024C52.3623 119.451 46.735 103.04 47.072 102.715C46.8582 103.082 58.466 107.886 72.1841 113.474C79.3464 116.433 84.5848 121.533 87.944 125.765C84.3715 118.808 81.044 111.666 78.0493 104.406L77.9069 104.349L77.9087 104.35L77.8543 104.328C77.6578 104.251 77.4341 104.161 77.2055 104.067L77.1748 104.056C76.5411 103.801 75.7667 103.486 74.6986 103.143C70.175 101.631 62.4743 98.5463 54.026 94.011C40.7847 86.9553 36.7828 69.9685 37.1931 69.5602C37.0792 70.1766 47.8932 76.0018 60.8393 83.098C67.7834 86.9514 72.4585 93.0581 75.2975 97.4828C74.3426 94.9814 73.4121 92.4699 72.5303 89.9395C70.9458 85.3989 69.4859 80.8097 68.1324 76.1836L67.9221 76.0724L67.9237 76.0727L67.8971 76.0587C67.7049 75.957 67.6394 76.0499 67.2292 75.7015L67.229 75.7011C66.7142 75.41 65.8408 74.9572 64.9037 74.4625C60.6523 72.6037 53.258 68.641 45.3716 63.2066C32.837 54.6645 30.874 37.2137 31.2621 36.9128C31.2626 36.9124 31.2631 36.9119 31.2637 36.9114C30.9796 37.2275 41.179 44.5197 53.2517 53.0024C59.9682 57.7364 64.0405 64.2866 66.1995 69.2303C65.774 67.6227 65.3485 66.0151 64.9516 64.3982C64.4961 62.5493 64.039 60.687 63.5925 58.817C62.9799 58.1576 62.2252 56.8491 61.3178 55.3341C61.2217 55.1753 61.1301 55.0292 61.0324 54.8627L61.0224 54.8362C58.3356 50.2443 54.8772 42.8515 53.7011 33.7096C51.6539 18.051 57.3095 4.75045 57.3295 4.73506L57.3294 4.73535C57.4195 4.82385 63.5341 16.8066 65.4327 31.6179C66.5362 40.2591 66.0323 48.4048 65.4183 53.7356L65.4186 53.7415L65.3863 54.0076C65.3378 54.4154 65.3821 55.1218 65.2419 55.1837C65.1991 55.5155 65.1574 55.8164 65.1153 56.1185L65.0686 56.4527C64.9763 57.1025 64.8557 57.7738 64.8084 58.1668C65.5006 61.2094 66.1878 64.3389 67.0116 67.2537C67.0781 67.5078 67.1534 67.759 67.2208 68.0122C66.8574 62.5397 67.5332 55.2008 71.76 48.4849C79.4648 36.2586 87.806 27.4504 87.6982 27.0072C88.0535 27.5865 90.4769 40.8994 82.7405 53.0545C77.8939 60.9143 73.5258 68.0792 71.0495 72.3379C70.4985 73.3462 70.0467 74.209 69.711 74.8629C69.5706 75.1363 69.4527 75.3662 69.3496 75.5683C71.394 82.4738 73.7103 89.2814 76.2805 95.9818C75.425 90.6557 75.4453 83.5433 78.868 76.6742C85.3658 63.5135 92.6842 54.3164 92.5651 53.7923C92.904 54.534 96.5262 67.1295 90.2495 80.2123C86.2945 88.2965 82.5865 96.0938 80.6467 100.316C80.1444 101.784 79.6059 102.868 79.3238 103.591C81.1926 108.059 83.1659 112.481 85.2629 116.841C86.4495 119.306 87.683 121.748 88.9401 124.179C87.5581 119.033 86.8879 112.136 89.4944 105.126C94.5414 91.388 101.12 81.479 100.826 81.0487C101.143 81.4671 106.088 93.7246 101.306 107.175C98.1938 115.816 95.3906 123.755 93.8805 128.35C93.453 129.774 93.1513 130.892 92.9503 131.639C94.6419 134.509 96.132 137.277 97.8092 140.048C99.7996 143.337 101.871 146.58 103.998 149.789C102.073 144.827 100.582 138.34 102.536 130.872C106.126 116.717 111.408 106.149 111.162 105.775C111.683 106.196 117.918 117.824 114.571 131.673C112.381 140.565 110.447 148.671 109.413 153.456Z" fill="#20296E"/>
<defs>
<clipPath id="clip0_917_125">
<rect width="121" height="152" fill="white" transform="translate(487 351)"/>
</clipPath>
</defs>
</svg>
