<svg width="160" height="160" viewBox="0 0 160 160" fill="none" xmlns="http://www.w3.org/2000/svg">
<path d="M66.6664 96C65.8665 96 65.3332 95.7333 64.7999 95.2C63.7334 94.1333 63.7334 92.5333 64.7999 91.4667L91.4639 64.8C92.5304 63.7333 94.1303 63.7333 95.1968 64.8C96.2634 65.8667 96.2634 67.4667 95.1968 68.5333L68.5329 95.2C67.9996 95.7333 67.4663 96 66.6664 96Z" fill="white"/>
<path d="M93.3339 93.3333C91.734 93.3333 90.6675 92.2667 90.6675 90.6667V69.3333H69.3363C67.7365 69.3333 66.6699 68.2667 66.6699 66.6667C66.6699 65.0667 67.7365 64 69.3363 64H93.3339C94.9337 64 96.0003 65.0667 96.0003 66.6667V90.6667C96.0003 92.2667 94.9337 93.3333 93.3339 93.3333Z" fill="white"/>
<path d="M82.0984 15.7312L83.334 3L88.9083 3.54101C89.4957 3.59802 90.0233 3.70974 90.4912 3.87616C90.9722 4.03175 91.3804 4.25287 91.7156 4.53952C92.0508 4.82617 92.2939 5.18859 92.445 5.62679C92.6081 6.06614 92.6582 6.6095 92.5954 7.25685C92.5442 7.78431 92.3766 8.26418 92.0926 8.69646C91.8086 9.12873 91.4213 9.44206 90.9305 9.63644C91.5341 9.90073 91.9912 10.3021 92.302 10.8405C92.6139 11.3669 92.7303 12.0377 92.6512 12.8529C92.5803 13.5841 92.3825 14.1881 92.0579 14.6649C91.7345 15.1296 91.3185 15.4886 90.8099 15.7417C90.3013 15.9949 89.7229 16.1566 89.0748 16.2268C88.4278 16.285 87.7446 16.2792 87.0254 16.2094L82.0984 15.7312ZM84.9001 13.6071L87.5614 13.8654C87.8851 13.8968 88.1871 13.902 88.4675 13.8808C88.7598 13.8607 89.0192 13.8072 89.2454 13.7203C89.4728 13.6214 89.6564 13.4758 89.796 13.2836C89.9477 13.0927 90.038 12.8473 90.0671 12.5476C90.0939 12.2719 90.062 12.0389 89.9716 11.8486C89.8943 11.6475 89.7656 11.4777 89.5854 11.3392C89.4172 11.2018 89.2096 11.097 88.9625 11.0246C88.7274 10.9534 88.46 10.9032 88.1603 10.8741L85.1933 10.5862L84.9001 13.6071ZM85.401 8.44633L87.7566 8.67495C88.0803 8.70637 88.3769 8.7049 88.6464 8.67056C88.916 8.63622 89.1471 8.56184 89.3397 8.44742C89.5323 8.33301 89.6859 8.18455 89.8004 8.00205C89.9161 7.80756 89.9867 7.57845 90.0123 7.31472C90.0592 6.95624 90.0069 6.68495 89.8553 6.50083C89.7049 6.30472 89.4888 6.16273 89.2069 6.07487C88.9262 5.97502 88.606 5.90764 88.2464 5.87274L85.675 5.62317L85.401 8.44633Z" fill="white"/>
<path d="M98.3668 18.5545C97.4416 18.2855 96.6858 17.8652 96.0994 17.2934C95.5164 16.71 95.135 16.0159 94.955 15.211C94.7784 14.3946 94.8296 13.5064 95.1086 12.5464C95.3943 11.5634 95.8306 10.7745 96.4173 10.18C97.0189 9.5772 97.7222 9.18583 98.5271 9.00586C99.3319 8.8259 100.185 8.86702 101.088 9.12923C102.013 9.39816 102.759 9.82841 103.327 10.42C103.896 11.0115 104.268 11.7155 104.444 12.532C104.621 13.3484 104.567 14.2482 104.281 15.2313C104.002 16.1912 103.569 16.9685 102.982 17.563C102.41 18.1494 101.73 18.5285 100.94 18.7002C100.161 18.8753 99.3036 18.8268 98.3668 18.5545ZM98.9776 16.3238C99.5096 16.4784 99.9711 16.4871 100.362 16.35C100.753 16.2128 101.072 15.9793 101.318 15.6495C101.58 15.3116 101.771 14.9344 101.892 14.518C102.013 14.1017 102.054 13.6808 102.014 13.2555C101.986 12.8334 101.846 12.4539 101.593 12.1169C101.354 11.7717 100.963 11.5201 100.42 11.3621C99.8992 11.2109 99.4401 11.2154 99.0423 11.3757C98.6479 11.5244 98.3201 11.7678 98.0588 12.1058C97.809 12.4471 97.6237 12.8259 97.5027 13.2423C97.3783 13.6702 97.3317 14.0894 97.3629 14.4999C97.4057 14.9137 97.5554 15.2833 97.812 15.6087C98.0686 15.9341 98.4571 16.1725 98.9776 16.3238Z" fill="white"/>
<path d="M109.007 22.7049C108.144 22.2759 107.475 21.728 107 21.0611C106.53 20.3834 106.278 19.6326 106.244 18.8085C106.215 17.9737 106.423 17.1087 106.868 16.2136C107.324 15.297 107.893 14.5982 108.576 14.1173C109.276 13.631 110.037 13.3708 110.861 13.3367C111.685 13.3026 112.518 13.4947 113.359 13.913C114.222 14.3421 114.88 14.8981 115.334 15.5812C115.788 16.2643 116.029 17.0232 116.058 17.8581C116.087 18.6929 115.873 19.5686 115.417 20.4853C114.972 21.3804 114.408 22.0684 113.725 22.5493C113.058 23.0247 112.321 23.2768 111.513 23.3055C110.716 23.3395 109.881 23.1393 109.007 22.7049ZM110.004 20.6183C110.501 20.865 110.953 20.9555 111.362 20.89C111.772 20.8245 112.127 20.6513 112.428 20.3706C112.745 20.0844 113 19.7472 113.193 19.359C113.386 18.9708 113.501 18.5638 113.538 18.1382C113.585 17.718 113.515 17.3196 113.325 16.9429C113.152 16.5609 112.812 16.2438 112.305 15.9918C111.82 15.7504 111.367 15.6733 110.947 15.7604C110.533 15.8367 110.167 16.0179 109.85 16.3041C109.543 16.5956 109.294 16.9355 109.1 17.3238C108.902 17.7228 108.782 18.127 108.74 18.5365C108.708 18.9513 108.79 19.3416 108.984 19.7075C109.179 20.0733 109.519 20.3769 110.004 20.6183Z" fill="white"/>
<path d="M115.201 25.9375L122.752 15.6133L124.793 17.1065L120.709 22.6914L121.715 23.4274L125.75 21.8576L128.04 23.5321L122.913 25.4004L122.623 31.3662L120.261 29.6384L120.469 25.3141L119.375 24.5142L117.242 27.4306L115.201 25.9375Z" fill="white"/>
<path d="M129.231 38.4597C128.954 38.1262 128.726 37.7672 128.548 37.3829C128.387 37.0002 128.299 36.6115 128.284 36.2166C128.269 35.8218 128.343 35.4395 128.506 35.0697C128.668 34.6999 128.935 34.3611 129.306 34.0533C129.806 33.6378 130.289 33.4089 130.755 33.3665C131.23 33.3164 131.689 33.3974 132.131 33.6094C132.573 33.8215 133.007 34.1268 133.431 34.5254C133.864 34.9333 134.28 35.3781 134.681 35.8599L135.558 36.9163C135.826 36.6931 136.02 36.446 136.14 36.1748C136.276 35.9051 136.319 35.6268 136.268 35.3399C136.227 35.0453 136.08 34.7451 135.826 34.4393C135.664 34.2448 135.479 34.0779 135.269 33.9387C135.077 33.8011 134.884 33.7106 134.691 33.6671C134.499 33.6236 134.313 33.6448 134.134 33.7309L132.495 31.7572C132.949 31.4743 133.404 31.3154 133.86 31.2808C134.326 31.2384 134.779 31.2932 135.218 31.445C135.657 31.5969 136.069 31.8189 136.452 32.1111C136.852 32.4048 137.214 32.7462 137.537 33.1354C138.422 34.201 138.77 35.2425 138.582 36.26C138.403 37.2697 137.758 38.2363 136.646 39.1596L132.698 42.4375L131.244 40.6862L132.166 39.8736C131.649 39.9112 131.194 39.8433 130.799 39.6699C130.413 39.5058 130.089 39.3048 129.829 39.0668C129.569 38.8289 129.369 38.6265 129.231 38.4597ZM131.143 37.6234C131.412 37.9477 131.723 38.1903 132.076 38.3513C132.429 38.5123 132.782 38.5793 133.135 38.5521C133.489 38.525 133.804 38.396 134.082 38.1651L134.263 38.0151L133.155 36.6808C132.993 36.4862 132.826 36.3039 132.654 36.134C132.489 35.9733 132.317 35.842 132.139 35.7399C131.977 35.6394 131.806 35.5936 131.625 35.6025C131.445 35.6115 131.262 35.6929 131.077 35.8468C130.891 36.0006 130.772 36.1778 130.72 36.3782C130.684 36.5801 130.703 36.7914 130.776 37.0121C130.859 37.225 130.981 37.4288 131.143 37.6234Z" fill="white"/>
<path d="M139.284 54.4515C138.75 53.2519 138.537 52.1207 138.645 51.058C138.768 50.0014 139.178 49.0548 139.873 48.2182C140.574 47.3926 141.519 46.7156 142.707 46.1871C143.918 45.6488 145.072 45.3991 146.17 45.438C147.273 45.488 148.258 45.821 149.125 46.4372C150.004 47.0485 150.705 47.943 151.228 49.1205C151.624 50.012 151.825 50.8783 151.83 51.7197C151.846 52.5562 151.653 53.3211 151.249 54.0146C150.862 54.7142 150.263 55.3098 149.454 55.8016L148.441 53.5235C148.916 53.1406 149.21 52.6606 149.323 52.0834C149.451 51.5122 149.356 50.869 149.038 50.1537C148.686 49.3613 148.223 48.8092 147.649 48.4975C147.092 48.1918 146.48 48.0617 145.815 48.1071C145.161 48.1476 144.52 48.3073 143.893 48.5862C143.243 48.8749 142.676 49.259 142.19 49.7385C141.705 50.2179 141.386 50.775 141.233 51.4098C141.085 52.0555 141.185 52.769 141.533 53.5504C141.738 54.0126 141.988 54.396 142.281 54.7004C142.586 55 142.921 55.2066 143.288 55.3202C143.66 55.4449 144.047 55.4705 144.45 55.3971L145.499 57.7577C144.608 58.0355 143.76 58.0699 142.955 57.8609C142.15 57.6519 141.432 57.2528 140.801 56.6634C140.181 56.0692 139.675 55.3319 139.284 54.4515Z" fill="white"/>
<path d="M143.196 66.2994C142.986 65.359 142.99 64.4942 143.208 63.7049C143.438 62.9129 143.863 62.2441 144.481 61.6985C145.111 61.1503 145.914 60.7671 146.89 60.549C147.889 60.3256 148.79 60.3277 149.594 60.5552C150.412 60.7919 151.094 61.2195 151.64 61.838C152.185 62.4565 152.56 63.2241 152.765 64.141C152.976 65.0813 152.959 65.9429 152.714 66.7257C152.469 67.5086 152.032 68.1741 151.402 68.7223C150.772 69.2705 149.957 69.6563 148.958 69.8797C147.982 70.0979 147.093 70.0932 146.289 69.8656C145.5 69.6472 144.839 69.2333 144.308 68.6239C143.78 68.0263 143.409 67.2514 143.196 66.2994ZM145.445 65.7595C145.566 66.3001 145.78 66.7088 146.089 66.9853C146.398 67.2619 146.756 67.4286 147.164 67.4855C147.586 67.5516 148.008 67.5373 148.431 67.4427C148.855 67.3481 149.243 67.181 149.597 66.9415C149.953 66.7137 150.218 66.4076 150.391 66.0233C150.579 65.6482 150.611 65.1843 150.487 64.6319C150.369 64.103 150.144 63.7029 149.811 63.4316C149.491 63.1577 149.12 62.9877 148.698 62.9216C148.278 62.8673 147.857 62.8874 147.434 62.9821C146.999 63.0793 146.609 63.2405 146.265 63.4657C145.923 63.7026 145.671 64.0119 145.51 64.3936C145.348 64.7752 145.326 65.2305 145.445 65.7595Z" fill="white"/>
<path d="M144.617 73.1511L154.129 72.7299L154.233 75.0942L153.138 75.2693C153.475 75.5197 153.741 75.8093 153.936 76.1382C154.144 76.4786 154.292 76.8217 154.379 77.1674C154.468 77.5252 154.518 77.8485 154.531 78.1373C154.571 79.0517 154.404 79.7704 154.03 80.2934C153.655 80.8284 153.136 81.2191 152.472 81.4655C151.82 81.7234 151.085 81.8705 150.267 81.9068L145.015 82.1394L144.903 79.6125L149.83 79.3943C150.119 79.3815 150.407 79.3447 150.694 79.2838C150.98 79.2228 151.241 79.1209 151.476 78.9779C151.711 78.8469 151.896 78.6639 152.03 78.4289C152.164 78.1939 152.223 77.8898 152.207 77.5168C152.185 77.0355 152.047 76.6378 151.792 76.3236C151.537 76.0093 151.202 75.7831 150.786 75.6448C150.37 75.5065 149.915 75.4482 149.422 75.4701L144.729 75.6779L144.617 73.1511Z" fill="white"/>
<path d="M144.275 88.1874C144.329 87.745 144.432 87.2965 144.584 86.8419C144.736 86.3872 144.95 85.9764 145.225 85.6095C145.512 85.2441 145.87 84.9479 146.298 84.7209C146.738 84.4953 147.262 84.3771 147.87 84.3662L147.56 86.9128C147.336 86.9584 147.136 87.0613 146.958 87.2218C146.78 87.3942 146.64 87.5955 146.539 87.8259C146.437 88.0683 146.37 88.315 146.34 88.5661C146.319 88.7335 146.311 88.9023 146.315 89.0726C146.318 89.2429 146.347 89.4041 146.401 89.5563C146.456 89.7085 146.531 89.833 146.629 89.9298C146.738 90.0281 146.883 90.0881 147.062 90.1099C147.253 90.1332 147.41 90.0916 147.532 89.9851C147.654 89.8787 147.758 89.7215 147.844 89.5135C147.942 89.307 148.038 89.0699 148.131 88.8022C148.298 88.3251 148.482 87.8136 148.682 87.2677C148.882 86.7217 149.132 86.2608 149.432 85.8848C149.572 85.732 149.722 85.5986 149.881 85.4845C150.041 85.3704 150.215 85.2825 150.405 85.2206C150.594 85.1587 150.788 85.1155 150.985 85.091C151.194 85.0679 151.412 85.0702 151.639 85.0978C152.153 85.1604 152.577 85.3211 152.909 85.5799C153.252 85.8522 153.515 86.1875 153.697 86.5858C153.879 86.984 153.99 87.4162 154.03 87.8821C154.083 88.3495 154.08 88.8224 154.022 89.3006C153.943 89.9463 153.763 90.531 153.48 91.0548C153.21 91.58 152.832 91.9951 152.346 92.2999C151.872 92.6062 151.283 92.759 150.58 92.7583L150.872 90.3552C151.141 90.3393 151.37 90.2034 151.559 89.9473C151.76 89.6927 151.885 89.3621 151.934 88.9556C151.952 88.8122 151.959 88.6553 151.955 88.485C151.95 88.3266 151.926 88.1781 151.882 88.0393C151.838 87.9005 151.768 87.7827 151.67 87.6859C151.585 87.5906 151.458 87.5327 151.291 87.5124C151.159 87.4964 151.035 87.5177 150.919 87.5763C150.801 87.6469 150.698 87.7496 150.609 87.8843C150.518 88.031 150.43 88.2084 150.344 88.4163C150.199 88.8112 150.059 89.2068 149.926 89.6031C149.804 90.0128 149.681 90.374 149.558 90.6866C149.426 91.071 149.245 91.4129 149.014 91.7125C148.782 92.024 148.487 92.261 148.127 92.4235C147.778 92.5994 147.341 92.6554 146.815 92.5914C146.217 92.5186 145.735 92.3387 145.37 92.0516C145.016 91.7659 144.751 91.406 144.573 90.9718C144.394 90.5496 144.285 90.0936 144.248 89.6037C144.209 89.1258 144.218 88.6537 144.275 88.1874Z" fill="white"/>
<path d="M142.122 98.6443C142.518 97.3045 143.164 96.3714 144.06 95.8451C144.965 95.3338 146.11 95.283 147.496 95.6926L152.607 97.2031L151.891 99.6287L146.953 98.1694C146.537 98.0465 146.15 97.995 145.793 98.0149C145.443 98.0498 145.139 98.167 144.879 98.3665C144.616 98.5776 144.422 98.891 144.3 99.3068C144.166 99.7573 144.162 100.133 144.287 100.433C144.412 100.734 144.622 100.978 144.918 101.166C145.226 101.358 145.564 101.508 145.934 101.617L150.872 103.077L150.16 105.485L145.049 103.974C143.605 103.548 142.662 102.873 142.218 101.951C141.772 101.04 141.739 99.938 142.122 98.6443Z" fill="white"/>
<path d="M139.994 105.075L151.707 110.215L150.691 112.531L138.978 107.391L139.994 105.075Z" fill="white"/>
<path d="M135.853 113.393C136.235 112.696 136.641 112.156 137.07 111.773C137.494 111.401 137.973 111.204 138.507 111.181C139.047 111.174 139.67 111.365 140.378 111.753L143.958 113.715L144.635 112.479L146.616 113.565L145.939 114.8L148.172 116.025L146.957 118.243L144.723 117.019L143.724 118.84L141.744 117.755L142.743 115.933L139.479 114.144C139.13 113.953 138.821 113.866 138.551 113.883C138.281 113.9 138.024 114.13 137.781 114.574L137.399 115.271L135.419 114.185L135.853 113.393Z" fill="white"/>
<path d="M132.912 117.617C133.169 117.268 133.462 116.96 133.792 116.694C134.124 116.445 134.48 116.265 134.86 116.156C135.239 116.046 135.628 116.025 136.026 116.093C136.424 116.161 136.818 116.338 137.206 116.623C137.73 117.008 138.069 117.422 138.223 117.863C138.387 118.312 138.419 118.777 138.32 119.257C138.222 119.737 138.03 120.232 137.746 120.741C137.455 121.259 137.124 121.771 136.754 122.276L135.941 123.382C136.223 123.589 136.509 123.718 136.801 123.768C137.096 123.835 137.376 123.809 137.642 123.69C137.918 123.579 138.174 123.363 138.409 123.043C138.559 122.839 138.676 122.619 138.76 122.382C138.847 122.162 138.888 121.953 138.884 121.756C138.88 121.558 138.814 121.383 138.687 121.23L140.206 119.162C140.59 119.534 140.854 119.937 140.998 120.372C141.152 120.814 141.208 121.266 141.167 121.729C141.126 122.192 141.01 122.645 140.82 123.087C140.632 123.547 140.388 123.981 140.089 124.388C139.269 125.505 138.343 126.095 137.31 126.158C136.287 126.229 135.193 125.836 134.028 124.981L129.892 121.944L131.239 120.109L132.251 120.807C132.089 120.315 132.045 119.857 132.118 119.432C132.183 119.017 132.3 118.654 132.468 118.344C132.636 118.034 132.784 117.792 132.912 117.617ZM134.187 119.27C133.937 119.61 133.777 119.97 133.706 120.352C133.635 120.733 133.656 121.092 133.768 121.428C133.879 121.764 134.081 122.039 134.372 122.253L134.562 122.392L135.588 120.994C135.738 120.79 135.874 120.584 135.997 120.375C136.113 120.177 136.199 119.978 136.255 119.78C136.313 119.599 136.317 119.422 136.264 119.249C136.212 119.076 136.089 118.918 135.894 118.776C135.7 118.633 135.5 118.561 135.292 118.558C135.088 118.572 134.887 118.641 134.691 118.766C134.505 118.898 134.336 119.066 134.187 119.27Z" fill="white"/>
<path d="M125.299 126.738C125.849 126.164 126.381 125.749 126.896 125.491C127.402 125.242 127.915 125.175 128.438 125.292C128.96 125.426 129.512 125.772 130.095 126.331L133.042 129.156L134.017 128.139L135.648 129.702L134.672 130.719L136.511 132.482L134.761 134.308L132.922 132.545L131.484 134.045L129.854 132.482L131.292 130.982L128.605 128.406C128.318 128.131 128.042 127.967 127.777 127.913C127.512 127.859 127.204 128.014 126.854 128.379L126.304 128.953L124.674 127.39L125.299 126.738Z" fill="white"/>
<path d="M123.9 128.015L130.197 135.156L128.3 136.829L122.003 129.688L123.9 128.015ZM129.881 136.711C130.234 136.4 130.61 136.253 131.01 136.27C131.418 136.295 131.769 136.475 132.064 136.809C132.375 137.162 132.513 137.546 132.478 137.962C132.443 138.378 132.254 138.737 131.911 139.04C131.595 139.319 131.228 139.449 130.811 139.432C130.393 139.431 130.029 139.254 129.718 138.902C129.415 138.559 129.281 138.179 129.316 137.763C129.35 137.364 129.538 137.013 129.881 136.711Z" fill="white"/>
<path d="M116.568 133.641C117.364 133.098 118.169 132.782 118.983 132.694C119.804 132.615 120.582 132.762 121.318 133.135C122.06 133.519 122.713 134.123 123.276 134.949C123.853 135.795 124.184 136.633 124.269 137.464C124.351 138.312 124.206 139.104 123.833 139.839C123.46 140.575 122.885 141.207 122.109 141.736C121.313 142.279 120.506 142.581 119.688 142.643C118.87 142.705 118.09 142.545 117.348 142.162C116.606 141.778 115.946 141.164 115.369 140.318C114.806 139.492 114.482 138.664 114.396 137.833C114.308 137.019 114.449 136.252 114.819 135.533C115.179 134.821 115.762 134.191 116.568 133.641ZM117.9 135.531C117.442 135.843 117.142 136.194 116.999 136.583C116.856 136.972 116.834 137.366 116.931 137.766C117.026 138.183 117.195 138.57 117.44 138.928C117.684 139.287 117.983 139.586 118.336 139.826C118.679 140.073 119.061 140.206 119.482 140.225C119.9 140.261 120.343 140.119 120.811 139.8C121.259 139.495 121.547 139.138 121.677 138.729C121.813 138.33 121.834 137.922 121.739 137.506C121.635 137.096 121.46 136.712 121.216 136.354C120.965 135.985 120.671 135.683 120.335 135.446C119.988 135.216 119.608 135.096 119.193 135.087C118.779 135.078 118.348 135.226 117.9 135.531Z" fill="white"/>
<path d="M110.703 137.497L114.601 146.184L112.442 147.153L111.876 146.199C111.767 146.604 111.596 146.958 111.362 147.261C111.122 147.58 110.858 147.844 110.569 148.053C110.269 148.267 109.987 148.433 109.723 148.551C108.888 148.926 108.158 149.036 107.534 148.88C106.899 148.73 106.344 148.391 105.87 147.864C105.39 147.354 104.983 146.725 104.647 145.978L102.495 141.181L104.802 140.146L106.822 144.645C106.94 144.909 107.081 145.163 107.243 145.407C107.405 145.651 107.596 145.856 107.816 146.021C108.024 146.192 108.262 146.296 108.53 146.334C108.798 146.372 109.102 146.315 109.443 146.162C109.883 145.965 110.201 145.69 110.4 145.337C110.598 144.984 110.684 144.589 110.659 144.151C110.635 143.713 110.521 143.269 110.319 142.818L108.396 138.533L110.703 137.497Z" fill="white"/>
<path d="M93.9351 147.527L95.8456 148.473L94.8661 149.986L96.6724 150.033L96.385 152.139L94.6338 151.678L95.1593 153.402L93.0424 153.777L92.9439 151.978L91.4752 153.008L90.464 151.133L92.1443 150.468L90.7224 149.381L92.1917 147.836L93.3198 149.232L93.9351 147.527Z" fill="white"/>
<path d="M79.799 145.072L78.7988 157.824L73.2155 157.386C72.6271 157.34 72.0975 157.238 71.6266 157.08C71.1428 156.934 70.7307 156.72 70.3902 156.44C70.0498 156.159 69.8 155.802 69.6409 155.366C69.4697 154.93 69.4095 154.388 69.4604 153.739C69.5018 153.211 69.6605 152.728 69.9365 152.291C70.2124 151.853 70.5939 151.533 71.081 151.329C70.4727 151.076 70.0082 150.683 69.6875 150.151C69.3659 149.63 69.2371 148.962 69.3012 148.145C69.3586 147.413 69.5452 146.805 69.8609 146.323C70.1757 145.852 70.585 145.485 71.0888 145.223C71.5927 144.96 72.1679 144.788 72.8147 144.706C73.4605 144.636 74.1436 144.629 74.864 144.685L79.799 145.072ZM77.037 147.248L74.3714 147.039C74.0472 147.013 73.7451 147.014 73.4652 147.04C73.1733 147.066 72.915 147.124 72.6904 147.215C72.4648 147.318 72.284 147.467 72.1479 147.662C71.9998 147.855 71.914 148.102 71.8905 148.403C71.8688 148.679 71.905 148.911 71.9989 149.1C72.0799 149.299 72.2117 149.467 72.3944 149.602C72.5651 149.736 72.7746 149.837 73.023 149.905C73.2594 149.972 73.5277 150.017 73.8279 150.041L76.7997 150.274L77.037 147.248ZM76.6315 152.417L74.2721 152.232C73.9479 152.207 73.6514 152.213 73.3825 152.253C73.1137 152.292 72.884 152.371 72.6935 152.489C72.5031 152.607 72.3523 152.758 72.2411 152.942C72.1291 153.139 72.0627 153.369 72.042 153.634C72.0017 153.993 72.059 154.263 72.2139 154.444C72.3679 154.638 72.5866 154.776 72.8701 154.858C73.1526 154.953 73.474 155.014 73.8342 155.043L76.4098 155.245L76.6315 152.417Z" fill="white"/>
<path d="M63.4748 142.553C64.4049 142.804 65.1685 143.211 65.7655 143.771C66.3593 144.344 66.7537 145.03 66.9487 145.832C67.1406 146.645 67.106 147.534 66.845 148.499C66.5778 149.487 66.1564 150.284 65.5809 150.889C64.9907 151.503 64.2949 151.908 63.4935 152.103C62.6922 152.298 61.8381 152.273 60.9312 152.027C60.0011 151.776 59.2465 151.36 58.6675 150.779C58.0884 150.198 57.703 149.501 57.5111 148.688C57.3192 147.875 57.3569 146.975 57.6242 145.986C57.8852 145.021 58.3034 144.236 58.8789 143.631C59.4396 143.034 60.1132 142.642 60.8998 142.455C61.6747 142.266 62.5331 142.298 63.4748 142.553ZM62.906 144.795C62.3712 144.65 61.9096 144.65 61.5211 144.794C61.1327 144.939 60.8184 145.178 60.5783 145.513C60.3234 145.855 60.1393 146.236 60.0261 146.655C59.913 147.073 59.88 147.495 59.9274 147.919C59.9632 148.341 60.1108 148.718 60.3703 149.05C60.6151 149.39 61.0107 149.635 61.5571 149.782C62.0803 149.924 62.5392 149.911 62.934 149.743C63.3255 149.587 63.6488 149.337 63.9037 148.995C64.1469 148.649 64.3252 148.266 64.4384 147.848C64.5547 147.418 64.5934 146.998 64.5545 146.588C64.504 146.175 64.3474 145.808 64.0848 145.488C63.8221 145.167 63.4292 144.936 62.906 144.795Z" fill="white"/>
<path d="M52.7714 138.604C53.642 139.017 54.3212 139.553 54.809 140.21C55.2916 140.879 55.5577 141.625 55.6072 142.448C55.6515 143.283 55.4595 144.151 55.0312 145.055C54.5925 145.98 54.0362 146.689 53.3623 147.182C52.6724 147.682 51.9157 147.956 51.0925 148.006C50.2692 148.055 49.4332 147.879 48.5844 147.476C47.7138 147.063 47.0452 146.519 46.5786 145.845C46.112 145.17 45.8565 144.416 45.8122 143.582C45.7679 142.748 45.965 141.868 46.4037 140.943C46.832 140.04 47.3831 139.342 48.0571 138.848C48.7149 138.36 49.4475 138.094 50.2547 138.051C51.051 138.002 51.8899 138.186 52.7714 138.604ZM51.8132 140.709C51.3126 140.472 50.8583 140.39 50.4504 140.463C50.0425 140.536 49.6907 140.716 49.3949 141.002C49.0832 141.294 48.8344 141.636 48.6486 142.028C48.4628 142.42 48.3555 142.829 48.3267 143.255C48.287 143.676 48.3653 144.073 48.5616 144.446C48.7419 144.825 49.0878 145.135 49.5993 145.378C50.089 145.61 50.543 145.679 50.9612 145.584C51.3743 145.5 51.7367 145.312 52.0485 145.02C52.3494 144.723 52.5927 144.378 52.7785 143.986C52.9694 143.584 53.0822 143.177 53.1167 142.767C53.1404 142.352 53.0515 141.963 52.85 141.601C52.6485 141.239 52.3029 140.942 51.8132 140.709Z" fill="white"/>
<path d="M46.513 135.487L39.1543 145.949L37.0855 144.494L41.0663 138.834L40.0467 138.117L36.041 139.761L33.721 138.13L38.8123 136.167L38.9916 130.197L41.3855 131.88L41.2573 136.208L42.3655 136.987L44.4443 134.032L46.513 135.487Z" fill="white"/>
<path d="M32.248 123.22C32.5311 123.548 32.7653 123.903 32.9506 124.284C33.1189 124.663 33.214 125.05 33.236 125.445C33.258 125.839 33.1912 126.223 33.0355 126.596C32.8797 126.968 32.6194 127.312 32.2545 127.627C31.7619 128.051 31.2832 128.289 30.8182 128.34C30.3442 128.399 29.8841 128.326 29.4381 128.123C28.992 127.919 28.5529 127.621 28.1207 127.231C27.6807 126.831 27.2562 126.394 26.8472 125.919L25.9508 124.879C25.6862 125.107 25.4968 125.358 25.3826 125.632C25.2515 125.904 25.2137 126.183 25.2694 126.469C25.3159 126.762 25.469 127.06 25.7285 127.361C25.8936 127.552 26.0822 127.716 26.2942 127.851C26.4892 127.985 26.6835 128.072 26.8769 128.112C27.0704 128.152 27.2558 128.127 27.4332 128.038L29.1082 129.981C28.6597 130.272 28.2075 130.44 27.7517 130.483C27.2867 130.534 26.8333 130.487 26.3913 130.343C25.9494 130.2 25.534 129.985 25.1452 129.7C24.7394 129.414 24.3714 129.079 24.0411 128.696C23.1368 127.647 22.7694 126.612 22.939 125.591C23.0994 124.578 23.727 123.6 24.8217 122.657L28.7079 119.306L30.1941 121.031L29.2872 121.86C29.8031 121.813 30.2599 121.872 30.6575 122.039C31.0472 122.195 31.3743 122.391 31.6389 122.624C31.9034 122.857 32.1065 123.055 32.248 123.22ZM30.3517 124.091C30.0764 123.772 29.7609 123.535 29.4052 123.38C29.0494 123.226 28.6952 123.166 28.3426 123.199C27.9899 123.233 27.6768 123.368 27.4031 123.604L27.2252 123.757L28.3576 125.071C28.5228 125.262 28.6931 125.441 28.8686 125.608C29.0363 125.766 29.2104 125.894 29.391 125.993C29.5545 126.09 29.7264 126.133 29.9067 126.12C30.0869 126.108 30.2683 126.023 30.4507 125.866C30.6332 125.709 30.7489 125.53 30.798 125.328C30.8301 125.126 30.8073 124.915 30.7296 124.696C30.6428 124.484 30.5168 124.283 30.3517 124.091Z" fill="white"/>
<path d="M21.9022 107.42C22.458 108.61 22.6921 109.737 22.6046 110.801C22.501 111.86 22.1093 112.814 21.4294 113.664C20.7445 114.502 19.8127 115.197 18.6343 115.747C17.434 116.308 16.2845 116.58 15.1858 116.561C14.082 116.532 13.0908 116.217 12.2123 115.618C11.3229 115.023 10.6054 114.142 10.0598 112.974C9.64683 112.09 9.42993 111.228 9.40914 110.387C9.37744 109.551 9.55678 108.782 9.94716 108.081C10.3215 107.375 10.9088 106.768 11.7089 106.261L12.7643 108.52C12.2959 108.911 12.0109 109.397 11.9094 109.976C11.7918 110.549 11.8987 111.191 12.2301 111.9C12.5972 112.686 13.0704 113.229 13.6498 113.53C14.2131 113.825 14.8269 113.944 15.4912 113.886C16.1445 113.833 16.7822 113.662 17.4042 113.371C18.0479 113.07 18.608 112.675 19.0843 112.187C19.5607 111.699 19.8693 111.136 20.0101 110.498C20.1459 109.85 20.0327 109.138 19.6707 108.363C19.4566 107.905 19.1999 107.527 18.9007 107.228C18.5906 106.934 18.2511 106.734 17.8821 106.627C17.5081 106.509 17.1206 106.491 16.7197 106.572L15.6261 104.231C16.5121 103.937 17.3594 103.886 18.1679 104.08C18.9764 104.274 19.7016 104.66 20.3437 105.237C20.9748 105.82 21.4943 106.547 21.9022 107.42Z" fill="white"/>
<path d="M17.7756 95.6585C18.0035 96.5947 18.0157 97.4595 17.8122 98.2528C17.5969 99.049 17.1853 99.7256 16.5771 100.283C15.9573 100.843 15.1618 101.241 14.1905 101.477C13.1958 101.72 12.2945 101.735 11.4867 101.522C10.6643 101.301 9.97449 100.886 9.41736 100.278C8.86024 99.67 8.47057 98.9095 8.24834 97.9967C8.02041 97.0605 8.02133 96.1988 8.25111 95.4115C8.48089 94.6242 8.90569 93.9505 9.5255 93.3905C10.1453 92.8306 10.9526 92.4295 11.9473 92.1873C12.9186 91.9508 13.8081 91.9388 14.616 92.1511C15.4093 92.3547 16.0772 92.7561 16.6198 93.3553C17.1595 93.9429 17.5448 94.7106 17.7756 95.6585ZM15.5373 96.2407C15.4062 95.7024 15.1838 95.2979 14.8699 95.0272C14.5561 94.7565 14.1949 94.5965 13.7862 94.5473C13.363 94.4892 12.9408 94.5114 12.5195 94.614C12.0982 94.7165 11.713 94.8909 11.3639 95.1371C11.0119 95.3715 10.7529 95.6825 10.5869 96.07C10.4064 96.4486 10.3831 96.913 10.517 97.463C10.6452 97.9896 10.8779 98.3854 11.2151 98.6504C11.5407 98.9182 11.915 99.0812 12.3383 99.1393C12.7586 99.1857 13.1794 99.1576 13.6007 99.055C14.0337 98.9496 14.4203 98.7811 14.7606 98.5495C15.0981 98.3062 15.3439 97.9922 15.4982 97.6076C15.6524 97.2229 15.6655 96.7673 15.5373 96.2407Z" fill="white"/>
<path d="M16.2288 88.834L6.72673 89.4312L6.57829 87.0692L7.67022 86.8738C7.32905 86.6298 7.05774 86.3451 6.85628 86.0199C6.64205 85.6834 6.48791 85.3431 6.39389 84.999C6.2991 84.6429 6.24264 84.3207 6.22451 84.0322C6.1671 83.1186 6.32087 82.3969 6.68581 81.8671C7.05 81.3253 7.56187 80.9251 8.22141 80.6664C8.86818 80.3965 9.60026 80.2358 10.4176 80.1844L15.6645 79.8547L15.8232 82.379L10.9008 82.6884C10.6123 82.7065 10.3254 82.7487 10.0399 82.8149C9.75443 82.8811 9.49565 82.9879 9.26355 83.1352C9.0307 83.2705 8.84932 83.4569 8.71943 83.6943C8.58954 83.9318 8.5363 84.2368 8.55972 84.6095C8.58994 85.0903 8.73545 85.4854 8.99625 85.7949C9.25706 86.1043 9.59672 86.3243 10.0152 86.4549C10.4337 86.5855 10.8894 86.6353 11.3823 86.6043L16.0702 86.3097L16.2288 88.834Z" fill="white"/>
<path d="M16.291 73.7725C16.2454 74.2158 16.1506 74.6661 16.0066 75.1235C15.8626 75.5809 15.6565 75.9955 15.3881 76.3674C15.1078 76.7381 14.7557 77.0409 14.332 77.2757C13.8963 77.5093 13.3746 77.6372 12.7669 77.6594L13.0297 75.1075C13.2528 75.0578 13.4514 74.9511 13.6257 74.7874C13.8012 74.6118 13.9372 74.4079 14.0338 74.1756C14.1316 73.9315 14.1934 73.6836 14.2193 73.432C14.2366 73.2642 14.2419 73.0953 14.2352 72.9251C14.2285 72.7549 14.1967 72.5942 14.1396 72.443C14.0825 72.2918 14.0044 72.1687 13.9052 72.0738C13.794 71.9776 13.6486 71.9202 13.4689 71.9017C13.2772 71.882 13.1213 71.9264 13.0011 72.0351C12.8809 72.1438 12.7798 72.3029 12.6977 72.5124C12.6036 72.7207 12.5124 72.9595 12.4241 73.2289C12.2657 73.709 12.0916 74.2238 11.9018 74.7733C11.712 75.3229 11.4703 75.7883 11.1768 76.1698C11.0397 76.3252 10.8925 76.4614 10.7351 76.5783C10.5778 76.6953 10.405 76.7865 10.2166 76.8518C10.0283 76.9172 9.83577 76.964 9.63914 76.9922C9.43053 77.0191 9.21241 77.0208 8.98478 76.9974C8.46961 76.9443 8.04341 76.7915 7.70621 76.5388C7.35825 76.2729 7.08958 75.9425 6.9002 75.5477C6.71082 75.1528 6.59165 74.7228 6.5427 74.2577C6.48177 73.7913 6.47598 73.3185 6.52534 72.8393C6.59197 72.1923 6.7615 71.6043 7.03392 71.0754C7.29435 70.5453 7.66472 70.1233 8.14503 69.8096C8.61336 69.4946 9.19928 69.3309 9.9028 69.3186L9.65477 71.7268C9.38625 71.7476 9.15993 71.8877 8.9758 72.1472C8.77969 72.4055 8.66066 72.7383 8.6187 73.1457C8.60389 73.2895 8.59983 73.4464 8.60652 73.6166C8.61443 73.7749 8.64156 73.9229 8.68789 74.0609C8.73422 74.1989 8.80698 74.3153 8.90617 74.4103C8.99337 74.504 9.12084 74.5595 9.28857 74.5768C9.42036 74.5904 9.54387 74.5668 9.6591 74.506C9.77557 74.4333 9.87714 74.3287 9.96384 74.1923C10.0518 74.044 10.1368 73.8651 10.2189 73.6556C10.3567 73.2581 10.4885 72.86 10.6143 72.4613C10.7294 72.0494 10.8455 71.686 10.9627 71.3711C11.0873 70.9844 11.2621 70.6392 11.4871 70.3354C11.7134 70.0197 12.0047 69.7773 12.3611 69.6082C12.7068 69.4258 13.1432 69.3618 13.6704 69.4161C14.2694 69.4778 14.7543 69.6488 15.125 69.9292C15.4837 70.2083 15.7559 70.5632 15.9416 70.994C16.1285 71.4128 16.2452 71.8668 16.2916 72.3559C16.3394 72.833 16.3392 73.3052 16.291 73.7725Z" fill="white"/>
<path d="M18.2479 63.2963C17.8771 64.6433 17.2485 65.5883 16.362 66.1313C15.467 66.6594 14.3229 66.7317 12.9294 66.3481L7.79102 64.9336L8.4623 62.495L13.4265 63.8616C13.8445 63.9767 14.2321 64.0209 14.5892 63.9943C14.9379 63.9528 15.2403 63.83 15.4964 63.6256C15.7557 63.4097 15.9429 63.0927 16.058 62.6747C16.1827 62.2218 16.1799 61.8462 16.0496 61.548C15.9193 61.2498 15.7044 61.0095 15.4048 60.8271C15.0937 60.6415 14.7523 60.4976 14.3807 60.3953L9.41649 59.0287L10.083 56.6076L15.2214 58.0221C16.6729 58.4217 17.6289 59.0783 18.0894 59.9921C18.5531 60.8943 18.6059 61.9957 18.2479 63.2963Z" fill="white"/>
<path d="M20.2559 56.8148L8.44922 51.8945L9.42214 49.5599L21.2288 54.4801L20.2559 56.8148Z" fill="white"/>
<path d="M24.2353 48.4237C23.8663 49.1278 23.4707 49.6751 23.0484 50.0657C22.6317 50.4456 22.1563 50.652 21.6224 50.6849C21.0833 50.7015 20.4564 50.5225 19.7417 50.1479L16.1254 48.2524L15.4712 49.5005L13.471 48.4521L14.1252 47.204L11.869 46.0214L13.0432 43.7812L15.2994 44.9638L16.2639 43.1236L18.2641 44.172L17.2996 46.0122L20.5959 47.7399C20.9479 47.9244 21.2588 48.0058 21.5286 47.984C21.7984 47.9623 22.0507 47.7273 22.2855 47.2793L22.6545 46.5752L24.6547 47.6236L24.2353 48.4237Z" fill="white"/>
<path d="M27.1022 44.1489C26.8521 44.5031 26.5646 44.8162 26.2399 45.0881C25.9122 45.3433 25.5597 45.5293 25.1823 45.6462C24.8049 45.763 24.4165 45.791 24.0171 45.7301C23.6178 45.6693 23.2213 45.4999 22.8278 45.222C22.2966 44.8468 21.9499 44.4398 21.788 44.001C21.6162 43.5553 21.5752 43.0914 21.665 42.6093C21.7548 42.1271 21.9369 41.6291 22.2114 41.1152C22.4928 40.5914 22.8141 40.0738 23.1754 39.5622L23.9675 38.4406C23.6822 38.2391 23.3931 38.116 23.1002 38.0714C22.8044 38.01 22.5246 38.0409 22.2606 38.1641C21.9868 38.2804 21.7353 38.5009 21.506 38.8256C21.3601 39.0322 21.2472 39.2547 21.1673 39.4931C21.0845 39.7148 21.0471 39.9243 21.0551 40.1217C21.0632 40.3191 21.1321 40.493 21.2617 40.6436L19.7818 42.7391C19.3906 42.3744 19.119 41.9761 18.9668 41.5443C18.8048 41.1055 18.7401 40.6543 18.7726 40.1907C18.8051 39.7271 18.9126 39.2721 19.095 38.8259C19.2745 38.3629 19.5102 37.9248 19.802 37.5116C20.601 36.3802 21.5162 35.7732 22.5477 35.6907C23.5693 35.6012 24.6704 35.9733 25.8509 36.807L30.042 39.7668L28.7289 41.6262L27.7045 40.9471C27.8752 41.4362 27.9281 41.8937 27.8631 42.3197C27.8052 42.7359 27.6951 43.1005 27.533 43.4136C27.3709 43.7267 27.2273 43.9718 27.1022 44.1489ZM25.7976 42.5199C26.0408 42.1755 26.1943 41.8121 26.258 41.4295C26.3218 41.0469 26.2946 40.6886 26.1766 40.3546C26.0586 40.0206 25.8521 39.7494 25.5569 39.541L25.3651 39.4055L24.3646 40.8222C24.2187 41.0288 24.0861 41.2374 23.9668 41.4481C23.8545 41.6489 23.7723 41.8489 23.7201 42.048C23.6651 42.2303 23.6654 42.4074 23.7209 42.5793C23.7764 42.7512 23.9026 42.9067 24.0993 43.0456C24.2961 43.1846 24.4981 43.2535 24.7053 43.2524C24.9096 43.2345 25.1087 43.1613 25.3027 43.0329C25.4867 42.8975 25.6517 42.7265 25.7976 42.5199Z" fill="white"/>
<path d="M34.5455 34.892C34.006 35.4759 33.4816 35.9014 32.9723 36.1687C32.4711 36.4272 31.9584 36.5028 31.4343 36.3957C30.9095 36.2715 30.3507 35.9356 29.758 35.3879L26.7593 32.617L25.803 33.652L24.1443 32.1194L25.1007 31.0844L23.2298 29.3556L24.9463 27.498L26.8172 29.2267L28.2271 27.7008L29.8857 29.2334L28.4758 30.7593L31.2092 33.2851C31.5011 33.5548 31.7801 33.7142 32.0463 33.7634C32.3124 33.8125 32.6172 33.6514 32.9605 33.2798L33.4999 32.696L35.1585 34.2286L34.5455 34.892Z" fill="white"/>
<path d="M35.9192 33.5834L29.4918 26.5594L31.3577 24.8519L37.7851 31.8758L35.9192 33.5834ZM29.7783 24.9993C29.4318 25.3164 29.0584 25.4703 28.6581 25.4611C28.2497 25.443 27.8951 25.2696 27.5943 24.9408C27.2772 24.5943 27.1321 24.2127 27.1591 23.7962C27.1861 23.3797 27.3684 23.0169 27.7061 22.708C28.0171 22.4234 28.3812 22.2861 28.7985 22.296C29.2165 22.289 29.5841 22.4587 29.9012 22.8053C30.2101 23.1429 30.3511 23.52 30.3241 23.9365C30.2979 24.336 30.116 24.6903 29.7783 24.9993Z" fill="white"/>
<path d="M43.144 27.8189C42.3581 28.3764 41.559 28.7069 40.7466 28.8107C39.9272 28.9046 39.1464 28.7718 38.4041 28.4123C37.6549 28.043 36.9911 27.4507 36.4127 26.6353C35.8204 25.8002 35.4738 24.9681 35.373 24.1389C35.275 23.2929 35.4057 22.4988 35.7652 21.7565C36.1247 21.0142 36.6875 20.3713 37.4538 19.8278C38.2397 19.2703 39.0409 18.9531 39.8574 18.876C40.6739 18.7988 41.4568 18.9449 42.206 19.3142C42.9553 19.6836 43.626 20.2857 44.2183 21.1208C44.7967 21.9361 45.1363 22.7584 45.2371 23.5876C45.3409 24.4 45.2144 25.169 44.8578 25.8945C44.511 26.613 43.9397 27.2545 43.144 27.8189ZM41.7767 25.9536C42.2286 25.6331 42.5224 25.277 42.6581 24.8854C42.7938 24.4938 42.8091 24.0991 42.704 23.7011C42.6017 23.2863 42.4252 22.9021 42.1743 22.5484C41.9235 22.1948 41.6192 21.9011 41.2616 21.6675C40.9138 21.427 40.5291 21.3011 40.1077 21.2899C39.6892 21.2619 39.2491 21.4117 38.7874 21.7392C38.3453 22.0527 38.0634 22.4151 37.9416 22.8264C37.8129 23.2278 37.7996 23.6359 37.9019 24.0507C38.0139 24.4585 38.1954 24.8392 38.4462 25.1929C38.704 25.5563 39.0034 25.8535 39.3443 26.0842C39.6949 26.308 40.0775 26.4206 40.4919 26.4219C40.9064 26.4233 41.3346 26.2672 41.7767 25.9536Z" fill="white"/>
<path d="M48.9321 23.8488L44.8721 15.2369L47.0128 14.2277L47.5971 15.1706C47.6981 14.7634 47.8626 14.4062 48.0906 14.099C48.3243 13.7757 48.5838 13.507 48.8689 13.2927C49.1649 13.0732 49.4436 12.9018 49.7051 12.7786C50.533 12.3882 51.2605 12.2649 51.8876 12.4087C52.5255 12.5474 53.0863 12.8755 53.57 13.3932C54.0595 13.8948 54.4789 14.516 54.8281 15.2568L57.07 20.0121L54.7823 21.0907L52.679 16.6295C52.5558 16.368 52.4107 16.1168 52.2439 15.8759C52.077 15.635 51.8823 15.4339 51.6598 15.2725C51.4481 15.106 51.208 15.0061 50.9394 14.973C50.6707 14.9398 50.3676 15.0029 50.0298 15.1621C49.5941 15.3675 49.2805 15.6485 49.0891 16.0051C48.8977 16.3617 48.8185 16.7585 48.8515 17.1957C48.8845 17.6329 49.0063 18.0748 49.2168 18.5215L51.2199 22.7702L48.9321 23.8488Z" fill="white"/>
<path d="M68.3491 13.6387L66.4215 12.728L67.3731 11.1974L65.5662 11.1836L65.815 9.07283L67.5743 9.50097L67.0173 7.78757L69.1269 7.37374L69.2585 9.1706L70.708 8.11301L71.7534 9.96994L70.0856 10.6653L71.5272 11.7265L70.0865 13.2979L68.933 11.9224L68.3491 13.6387Z" fill="white"/>
</svg>
