<svg width="30" height="30" viewBox="0 0 30 30" fill="none" xmlns="http://www.w3.org/2000/svg">
<path d="M9.64174 27.8572C14.3756 27.8572 18.2132 24.0196 18.2132 19.2857C18.2132 14.5519 14.3756 10.7143 9.64174 10.7143C4.90787 10.7143 1.07031 14.5519 1.07031 19.2857C1.07031 24.0196 4.90787 27.8572 9.64174 27.8572Z" stroke="#20296E" stroke-width="1.5" stroke-linecap="round" stroke-linejoin="round"/>
<path d="M20.3566 27.8572C25.0905 27.8572 28.928 24.0196 28.928 19.2857C28.928 14.5519 25.0905 10.7143 20.3566 10.7143C15.6227 10.7143 11.7852 14.5519 11.7852 19.2857C11.7852 24.0196 15.6227 27.8572 20.3566 27.8572Z" stroke="#20296E" stroke-width="1.5" stroke-linecap="round" stroke-linejoin="round"/>
<path d="M14.9972 19.2857C19.7311 19.2857 23.5686 15.4482 23.5686 10.7143C23.5686 5.98044 19.7311 2.14288 14.9972 2.14288C10.2633 2.14288 6.42578 5.98044 6.42578 10.7143C6.42578 15.4482 10.2633 19.2857 14.9972 19.2857Z" stroke="#20296E" stroke-width="1.5" stroke-linecap="round" stroke-linejoin="round"/>
</svg>
