<svg width="30" height="30" viewBox="0 0 30 30" fill="none" xmlns="http://www.w3.org/2000/svg">
<g clip-path="url(#clip0_269_1593)">
<path d="M16.0054 14.7857C15.6875 14.9237 15.3447 14.9949 14.9982 14.9949C14.6517 14.9949 14.3089 14.9237 13.9911 14.7857L1.77678 9.12857C1.57844 9.02853 1.41176 8.8754 1.2953 8.68623C1.17885 8.49706 1.11719 8.27928 1.11719 8.05714C1.11719 7.835 1.17885 7.61721 1.2953 7.42805C1.41176 7.23888 1.57844 7.08575 1.77678 6.98571L13.9911 1.28571C14.3089 1.14769 14.6517 1.07648 14.9982 1.07648C15.3447 1.07648 15.6875 1.14769 16.0054 1.28571L28.2196 6.94285C28.418 7.04289 28.5847 7.19602 28.7011 7.38519C28.8176 7.57436 28.8792 7.79214 28.8792 8.01428C28.8792 8.23642 28.8176 8.4542 28.7011 8.64337C28.5847 8.83254 28.418 8.98567 28.2196 9.08571L16.0054 14.7857Z" stroke="#20296E" stroke-width="1.5" stroke-linecap="round" stroke-linejoin="round"/>
<path d="M28.9275 15.75L15.856 21.7714C15.5769 21.8988 15.2736 21.9647 14.9667 21.9647C14.6599 21.9647 14.3566 21.8988 14.0775 21.7714L1.07031 15.75" stroke="#20296E" stroke-width="1.5" stroke-linecap="round" stroke-linejoin="round"/>
<path d="M28.9275 22.7143L15.856 28.7357C15.5769 28.8631 15.2736 28.929 14.9667 28.929C14.6599 28.929 14.3566 28.8631 14.0775 28.7357L1.07031 22.7143" stroke="#20296E" stroke-width="1.5" stroke-linecap="round" stroke-linejoin="round"/>
</g>
<defs>
<clipPath id="clip0_269_1593">
<rect width="30" height="30" fill="white"/>
</clipPath>
</defs>
</svg>
