<svg width="30" height="30" viewBox="0 0 30 30" fill="none" xmlns="http://www.w3.org/2000/svg">
<g clip-path="url(#clip0_269_1599)">
<path d="M3.21317 12.8571H5.35603C5.64019 12.8571 5.91271 12.97 6.11364 13.1709C6.31457 13.3719 6.42746 13.6444 6.42746 13.9285V19.2857C6.42746 19.5698 6.31457 19.8424 6.11364 20.0433C5.91271 20.2442 5.64019 20.3571 5.35603 20.3571H3.21317C2.64485 20.3571 2.0998 20.1314 1.69794 19.7295C1.29608 19.3276 1.07031 18.7826 1.07031 18.2143V15C1.07031 14.4317 1.29608 13.8866 1.69794 13.4847C2.0998 13.0829 2.64485 12.8571 3.21317 12.8571V12.8571Z" stroke="#20296E" stroke-width="1.5" stroke-linecap="round" stroke-linejoin="round"/>
<path d="M26.7829 20.3571H24.6401C24.3559 20.3571 24.0834 20.2442 23.8825 20.0433C23.6815 19.8424 23.5686 19.5698 23.5686 19.2857V13.9285C23.5686 13.6444 23.6815 13.3719 23.8825 13.1709C24.0834 12.97 24.3559 12.8571 24.6401 12.8571H26.7829C27.3512 12.8571 27.8963 13.0829 28.2982 13.4847C28.7 13.8866 28.9258 14.4317 28.9258 15V18.2143C28.9258 18.7826 28.7 19.3276 28.2982 19.7295C27.8963 20.1314 27.3512 20.3571 26.7829 20.3571V20.3571Z" stroke="#20296E" stroke-width="1.5" stroke-linecap="round" stroke-linejoin="round"/>
<path d="M20.3555 26.25C21.4921 26.25 22.5822 25.7984 23.3859 24.9947C24.1897 24.191 24.6412 23.1009 24.6412 21.9643V20.3571" stroke="#20296E" stroke-width="1.5" stroke-linecap="round" stroke-linejoin="round"/>
<path d="M17.678 23.5714C18.3884 23.5714 19.0697 23.8536 19.572 24.3559C20.0744 24.8583 20.3566 25.5396 20.3566 26.25C20.3566 26.9604 20.0744 27.6417 19.572 28.144C19.0697 28.6463 18.3884 28.9286 17.678 28.9286H14.4637C13.7533 28.9286 13.072 28.6463 12.5697 28.144C12.0674 27.6417 11.7852 26.9604 11.7852 26.25C11.7852 25.5396 12.0674 24.8583 12.5697 24.3559C13.072 23.8536 13.7533 23.5714 14.4637 23.5714H17.678Z" stroke="#20296E" stroke-width="1.5" stroke-linecap="round" stroke-linejoin="round"/>
<path d="M5.35547 12.8571V10.7143C5.35547 8.15682 6.37141 5.70412 8.1798 3.89574C9.98818 2.08735 12.4409 1.07141 14.9983 1.07141C17.5558 1.07141 20.0085 2.08735 21.8169 3.89574C23.6252 5.70412 24.6412 8.15682 24.6412 10.7143V12.8571" stroke="#20296E" stroke-width="1.5" stroke-linecap="round" stroke-linejoin="round"/>
<path d="M11.7852 8.57141V11.7857" stroke="#20296E" stroke-width="1.5" stroke-linecap="round" stroke-linejoin="round"/>
<path d="M18.2148 8.57141V11.7857" stroke="#20296E" stroke-width="1.5" stroke-linecap="round" stroke-linejoin="round"/>
<path d="M11.7852 16.0714C11.7852 18.9214 18.2137 18.9214 18.2137 16.0714" stroke="#20296E" stroke-width="1.5" stroke-linecap="round" stroke-linejoin="round"/>
</g>
<defs>
<clipPath id="clip0_269_1599">
<rect width="30" height="30" fill="white"/>
</clipPath>
</defs>
</svg>
