<svg width="95" height="99" viewBox="0 0 95 99" fill="none" xmlns="http://www.w3.org/2000/svg">
<path d="M4.5185 57.9389L20.8444 57.3315L14.1138 62.8631L12.951 72.0633L4.5185 57.9389Z" fill="white"/>
<path d="M9.63508 59.3264C9.55219 59.4141 9.57181 59.6104 9.69624 59.8859C9.76066 60.0327 9.84739 60.1931 9.95643 60.3671C10.0076 60.4597 10.0699 60.5591 10.1434 60.6653L10.248 60.8212C10.2903 60.8777 10.3215 60.9274 10.3638 60.9839C10.533 61.2099 10.7246 61.4495 10.9384 61.7027C10.9919 61.766 11.0453 61.8293 11.11 61.8994C11.1634 61.9627 11.228 62.0328 11.2927 62.1029C11.4107 62.2363 11.5467 62.3652 11.6871 62.5122C11.9635 62.7881 12.2487 63.1001 12.5875 63.3987C12.757 63.548 12.9197 63.7086 13.1003 63.8647C13.1872 63.9484 13.2808 64.0208 13.3678 64.1045C13.4547 64.1882 13.5484 64.2606 13.6532 64.3399C15.1671 65.6002 17.1299 66.9497 19.4619 68.1399C19.6136 68.217 19.7475 68.2986 19.9059 68.3644L20.3567 68.5776C20.6669 68.7205 20.9593 68.8679 21.2874 69.0063C21.6043 69.138 21.9324 69.2764 22.2494 69.4081C22.4078 69.4739 22.5775 69.5465 22.736 69.6123C22.9012 69.6669 23.0708 69.7395 23.236 69.7941C23.4012 69.8486 23.5708 69.9212 23.736 69.9758C23.9124 70.0372 24.0709 70.103 24.254 70.1531C24.5955 70.269 24.9438 70.3737 25.2965 70.4964C25.3881 70.5214 25.4729 70.5578 25.5644 70.5828L25.8033 70.6669C25.9864 70.717 26.1583 70.7603 26.3414 70.8104C26.5245 70.8605 26.7076 70.9106 26.8795 70.9539C27.0626 71.004 27.2525 71.0428 27.4244 71.0861C27.6075 71.1362 27.8264 71.1774 28.0496 71.2366C28.1702 71.264 28.2908 71.2914 28.4226 71.3256C28.5543 71.3597 28.6928 71.3826 28.8312 71.4056C29.1193 71.4582 29.4298 71.5244 29.7581 71.5862C29.8384 71.6044 29.9188 71.6227 30.0171 71.6365C30.1042 71.6435 30.1958 71.6685 30.2829 71.6755C30.4616 71.7075 30.647 71.7283 30.8368 71.7671C32.3667 72.008 34.2788 72.2204 36.5086 72.2577C37.0695 72.2615 37.6414 72.272 38.2448 72.2555C38.5419 72.2675 38.8413 72.2503 39.1519 72.2398C39.4514 72.2225 39.7687 72.2008 40.0861 72.179C40.2447 72.1682 40.4034 72.1573 40.5621 72.1464C40.638 72.1466 40.7207 72.1356 40.8034 72.1245C40.8861 72.1134 40.9621 72.1136 41.0448 72.1025C41.3689 72.0695 41.6929 72.0366 42.0282 72.0104C42.1868 71.9995 42.359 71.9661 42.5244 71.944C42.6898 71.9218 42.8552 71.8997 43.0206 71.8776C43.3581 71.8221 43.7001 71.7846 44.0443 71.7178C44.3886 71.651 44.7373 71.6023 45.0927 71.5423C45.1754 71.5313 45.2648 71.5089 45.3542 71.4866C45.4437 71.4643 45.5264 71.4532 45.6158 71.4309C45.7947 71.3863 45.9668 71.3529 46.1568 71.315C46.3357 71.2703 46.519 71.2438 46.6978 71.1991C46.8767 71.1545 47.0556 71.1098 47.2344 71.0651C47.4133 71.0205 47.5922 70.9758 47.7778 70.9199C47.8672 70.8976 47.9566 70.8753 48.0528 70.8417L48.1959 70.806L48.3278 70.7635C48.6923 70.6629 49.0635 70.5511 49.4346 70.4392C49.5308 70.4056 49.6202 70.3833 49.7164 70.3498C49.8126 70.3162 49.902 70.2938 49.9981 70.2603C50.1837 70.2043 50.3649 70.1304 50.5572 70.0632C50.7496 69.996 50.9352 69.9401 51.1163 69.8661C51.2975 69.7922 51.4898 69.725 51.671 69.651C51.8522 69.5771 52.0445 69.5099 52.2324 69.4246C52.3286 69.3911 52.4247 69.3575 52.5098 69.3171C52.6059 69.2835 52.6977 69.2319 52.7938 69.1983C53.1696 69.0278 53.5499 68.8754 53.9257 68.705C54.1136 68.6197 54.3015 68.5345 54.4961 68.438C54.684 68.3528 54.8675 68.2495 55.0554 68.1643C55.8093 67.794 56.5611 67.3764 57.3152 66.9295C58.0694 66.4825 58.8079 66.0107 59.5399 65.4735C60.2652 64.9476 60.9816 64.3855 61.6736 63.7625C61.855 63.6118 62.014 63.4476 62.1842 63.2901C62.3544 63.1326 62.5135 62.9684 62.6904 62.7997C62.8495 62.6354 63.0153 62.4599 63.1744 62.2956C63.2572 62.2079 63.3334 62.1314 63.4163 62.0436C63.4992 61.9559 63.5821 61.8681 63.6538 61.7736C64.2768 61.0624 64.873 60.3195 65.4202 59.5314C65.5525 59.3355 65.7027 59.1352 65.8351 58.9393C65.9562 58.7366 66.0953 58.5294 66.2165 58.3267C66.4878 57.9237 66.7146 57.4934 66.9525 57.07C67.0804 56.856 67.1793 56.6397 67.296 56.4189C67.4061 56.2095 67.5117 55.9819 67.6284 55.7611C67.7273 55.5448 67.8329 55.3173 67.9273 55.0829L68.0823 54.7472L68.1183 54.6616L68.1543 54.576L68.2262 54.4048C68.3206 54.1704 68.4083 53.9473 68.5028 53.713L68.5747 53.5417C68.5972 53.4786 68.613 53.4268 68.6355 53.3637L68.757 53.0076C68.8336 52.7777 68.9169 52.5366 68.9934 52.3067C69.0588 52.07 69.131 51.8221 69.1964 51.5854L69.3 51.2338C69.3271 51.1121 69.3543 50.9903 69.3814 50.8686C69.4356 50.6251 69.4899 50.3816 69.5441 50.1381C69.5712 50.0164 69.5984 49.8947 69.6143 49.7661L69.6845 49.3941L69.7547 49.0221L69.7865 48.8417C69.7911 48.7831 69.8025 48.7132 69.8071 48.6546C69.839 48.3975 69.8754 48.1585 69.9073 47.9014C69.9233 47.7729 69.9504 47.6512 69.9485 47.5271L69.9785 47.146C69.9925 46.8934 70.0177 46.6476 70.0385 46.3837C70.0525 46.1311 70.0666 45.8785 70.0695 45.6191C70.0855 44.5996 70.0322 43.5686 69.8919 42.5306C69.7448 41.5039 69.5105 40.4702 69.14 39.4609C68.7694 38.4517 68.2847 37.4805 67.648 36.5856C67.6057 36.5291 67.5634 36.4726 67.5322 36.4229L67.4053 36.2534C67.3207 36.1404 67.2405 36.0454 67.1558 35.9324C66.9799 35.7177 66.7749 35.5006 66.552 35.288C66.3291 35.0754 66.0592 34.8649 65.7513 34.6927C65.4502 34.5092 65.0998 34.3571 64.7089 34.2727C64.3472 34.1905 63.9518 34.1647 63.545 34.2088C63.1494 34.2596 62.7715 34.3827 62.4359 34.5623C62.1002 34.7419 61.8204 34.9554 61.574 35.1894C61.3277 35.4234 61.1215 35.6664 60.9376 35.9231C60.5766 36.4252 60.325 36.9479 60.1136 37.4797C59.9201 38.007 59.7669 38.5434 59.6761 39.1026C59.6534 39.2424 59.6307 39.3822 59.608 39.522L59.5943 39.6212L59.5874 39.7092L59.5668 39.8963L59.5368 40.2775L59.5135 40.6474C59.5043 40.7646 59.4995 40.8999 59.4902 41.0172L59.4781 41.3939C59.464 41.6465 59.4679 41.8946 59.4717 42.1428C59.4804 43.1466 59.5471 44.155 59.6965 45.1524C59.8459 46.1498 60.0668 47.1294 60.3839 48.0753C61.5964 51.9019 64.3766 55.1933 67.9478 56.6778C69.7245 57.4222 71.6477 57.6415 73.4514 57.4499C74.3588 57.3575 75.2285 57.15 76.0558 56.8859C76.8832 56.6219 77.6818 56.2789 78.4134 55.895C79.9057 55.1297 81.2264 54.1677 82.3819 53.1511C83.5441 52.1232 84.5658 51.0251 85.4378 49.8973C85.5477 49.7645 85.653 49.6136 85.7629 49.4808C85.8211 49.4088 85.8615 49.3412 85.9198 49.2692C85.9669 49.1904 86.0185 49.1296 86.0656 49.0508C86.1643 48.9112 86.2629 48.7716 86.3616 48.632C86.4603 48.4924 86.5589 48.3528 86.6464 48.2064C86.8326 47.9204 87.0121 47.6457 87.1915 47.3709C87.3598 47.0894 87.5281 46.8079 87.6964 46.5263C88.345 45.416 88.8929 44.3211 89.3603 43.2847C89.4682 43.0278 89.5828 42.7597 89.6907 42.5028C89.7986 42.246 89.8887 41.9936 89.9898 41.7479C90.0348 41.6217 90.091 41.5024 90.136 41.3761C90.181 41.2499 90.2193 41.135 90.2643 41.0088C90.3476 40.7676 90.4309 40.5265 90.5074 40.2966C90.8092 39.359 91.0639 38.5003 91.2379 37.7C91.2831 37.4971 91.3328 37.3122 91.3712 37.1206C91.4097 36.929 91.4414 36.7486 91.4843 36.575C91.5161 36.3946 91.5522 36.2323 91.5772 36.0632C91.6134 35.9009 91.6384 35.7318 91.6567 35.5739C91.6861 35.4229 91.7044 35.265 91.7271 35.1252C91.7498 34.9854 91.7725 34.8456 91.7773 34.7103C91.8092 34.4532 91.8344 34.2075 91.8573 33.991C91.8802 33.7745 91.8896 33.5805 91.8968 33.4158C91.9039 33.2512 91.9087 33.1159 91.9068 32.9918C91.9006 32.773 91.892 32.6602 91.8585 32.6398C91.8295 32.6375 91.78 32.7456 91.7169 32.953C91.6854 33.0567 91.6516 33.1896 91.6154 33.352C91.5792 33.5143 91.5475 33.6947 91.4844 33.902C91.4392 34.1049 91.3738 34.3416 91.3128 34.5963C91.279 34.7293 91.2451 34.8623 91.2113 34.9953C91.1774 35.1283 91.1368 35.2726 91.1007 35.4349C91.0601 35.5791 91.0239 35.7415 90.9766 35.897C90.9293 36.0525 90.8864 36.2261 90.8324 36.3929C90.7783 36.5596 90.7354 36.7332 90.6858 36.9181C90.625 37.0961 90.5754 37.2809 90.5079 37.4702C90.2669 38.2298 89.9676 39.0614 89.6168 39.9537C89.5291 40.1768 89.4302 40.3931 89.3358 40.6274C89.2863 40.7356 89.2413 40.8618 89.1919 40.9699C89.1357 41.0893 89.0863 41.1975 89.0301 41.3169C88.9178 41.5557 88.8234 41.7901 88.7043 42.0401C88.592 42.2789 88.4618 42.5222 88.3427 42.7723C87.8442 43.759 87.2606 44.7861 86.5944 45.8242C86.4217 46.0877 86.2557 46.3399 86.0763 46.6146C85.8924 46.8713 85.7018 47.1392 85.5179 47.3959C85.1323 47.9137 84.7332 48.4541 84.2962 48.956C83.4378 49.9846 82.441 50.9903 81.3238 51.892C80.2109 52.8117 78.971 53.6385 77.6109 54.2847C76.2507 54.9308 74.7704 55.3961 73.2351 55.5207C72.4708 55.5774 71.6955 55.5506 70.9339 55.4246C70.7373 55.397 70.5542 55.3469 70.3644 55.3081C70.2661 55.2943 70.1746 55.2692 70.0831 55.2442C69.9915 55.2191 69.9 55.1941 69.7973 55.1622C69.603 55.1053 69.4267 55.044 69.2391 54.9758C69.0584 54.8964 68.8708 54.8282 68.6901 54.7488C67.2505 54.1022 65.9349 53.0702 64.8902 51.7886C64.3623 51.1443 63.8971 50.4461 63.5057 49.7007C63.1143 48.9553 62.7968 48.1628 62.5465 47.3343C62.0568 45.6841 61.8402 43.9083 61.876 42.1174C61.8877 41.8941 61.8816 41.6753 61.9 41.4407C61.9118 41.2175 61.9235 40.9942 61.9464 40.7777L61.9785 40.4439L62.0107 40.1102L62.0357 39.9411L62.0426 39.8531L62.0539 39.7832C62.0676 39.684 62.0813 39.5848 62.1061 39.4924C62.183 39.1091 62.2957 38.7169 62.4463 38.3632C62.5858 38.0026 62.7698 37.6692 62.9783 37.3968C63.1868 37.1244 63.4063 36.9355 63.583 36.8435C63.668 36.8031 63.7463 36.774 63.8223 36.7742C63.9113 36.9052 63.9984 36.9122 64.09 36.9373C64.1704 36.9555 64.2663 36.9986 64.3667 37.0598C64.4671 37.121 64.5875 37.225 64.7079 37.3291C64.8216 37.4444 64.9508 37.5846 65.0733 37.7361L65.2581 37.9869L65.3539 38.1067C65.3918 38.1452 65.4118 38.1881 65.4429 38.2378C66.3645 39.5981 66.9055 41.2642 67.1089 42.9858C67.2162 43.85 67.2408 44.7253 67.2117 45.614C67.2 45.8373 67.1882 46.0605 67.1832 46.2726C67.1603 46.4891 67.1307 46.7168 67.119 46.9401L67.0869 47.2738C67.0776 47.3911 67.0572 47.5016 67.0436 47.6008C67.0028 47.8217 66.9799 48.0382 66.9391 48.2592C66.9345 48.3178 66.9187 48.3697 66.9141 48.4283L66.8556 48.577L66.7833 48.9017L66.711 49.2263C66.6906 49.3368 66.6702 49.4472 66.6387 49.5509C66.5868 49.7651 66.5348 49.9792 66.4829 50.1934C66.4513 50.2971 66.4309 50.4075 66.3994 50.5112L66.3048 50.8223C66.2417 51.0296 66.1786 51.237 66.1088 51.4556C66.0457 51.663 65.9647 51.8748 65.8905 52.0754L65.8026 52.3751C65.7868 52.427 65.771 52.4788 65.7441 52.5239L65.6856 52.6726C65.6046 52.8844 65.5304 53.085 65.445 53.2788L65.3865 53.4275L65.3573 53.5018L65.3281 53.5762L65.1932 53.8781C65.1078 54.0719 65.0046 54.2701 64.9192 54.4639C64.8226 54.6509 64.7193 54.8491 64.6228 55.0361C64.5262 55.223 64.4229 55.4213 64.3152 55.6014C64.0931 55.9731 63.8888 56.3402 63.6511 56.687C63.5322 56.8603 63.4245 57.0405 63.3057 57.2139C63.1868 57.3873 63.0568 57.5539 62.9379 57.7273C62.4513 58.414 61.9045 59.0487 61.36 59.654C61.295 59.7373 61.2256 59.8026 61.1494 59.8791C61.0733 59.9556 61.0038 60.0208 60.9388 60.1041C60.7932 60.2458 60.6588 60.3943 60.5132 60.5361C60.3676 60.6778 60.2109 60.8127 60.0653 60.9545C59.9197 61.0962 59.7741 61.238 59.6129 61.3548C58.9926 61.8833 58.3635 62.3757 57.7144 62.8251C57.0586 63.2859 56.3895 63.6924 55.7092 64.0922C55.0357 64.4807 54.3466 64.8443 53.6486 65.1718C53.4786 65.2526 53.3086 65.3334 53.1207 65.4186C52.9507 65.4993 52.7695 65.5733 52.5995 65.6541C52.255 65.7976 51.9106 65.941 51.5661 66.0845C51.4811 66.1249 51.3961 66.1653 51.3067 66.1876C51.2217 66.228 51.1322 66.2503 51.0472 66.2907C50.8728 66.3534 50.6983 66.4161 50.535 66.4856C50.3606 66.5483 50.1862 66.611 50.0229 66.6805C49.8552 66.732 49.6807 66.7947 49.513 66.8461C49.3453 66.8976 49.1709 66.9603 49.0032 67.0117C48.9249 67.0409 48.8354 67.0632 48.7504 67.1036C48.6722 67.1327 48.5827 67.155 48.4933 67.1773C48.1467 67.2734 47.818 67.3651 47.4826 67.468L47.3574 67.4992L47.2322 67.5305C47.1428 67.5528 47.0712 67.5707 46.9818 67.593C46.8208 67.6332 46.642 67.6778 46.481 67.718C46.32 67.7582 46.1479 67.7916 45.9869 67.8318C45.8148 67.8652 45.6605 67.8941 45.4884 67.9275C45.3274 67.9677 45.162 67.9898 45.001 68.03C44.9183 68.0411 44.8401 68.0702 44.7574 68.0812C44.6747 68.0923 44.5964 68.1214 44.5137 68.1325C44.1941 68.1835 43.8744 68.2346 43.5548 68.2856C43.2351 68.3367 42.9222 68.3765 42.6093 68.4163C42.4618 68.4339 42.2964 68.4561 42.1489 68.4738C42.0013 68.4914 41.8359 68.5135 41.6952 68.52C41.389 68.5485 41.0895 68.5658 40.7945 68.6011C40.7185 68.6009 40.647 68.6188 40.571 68.6186C40.495 68.6184 40.4235 68.6362 40.3475 68.636C40.2068 68.6424 40.0481 68.6533 39.9073 68.6597C39.6257 68.6725 39.3263 68.6898 39.0447 68.7026C38.7699 68.7041 38.4883 68.7169 38.2135 68.7185C37.6683 68.7396 37.1388 68.7089 36.6249 68.7031C34.5784 68.6391 32.8361 68.4226 31.4335 68.1979C31.2548 68.1659 31.0873 68.1406 30.9198 68.1154C30.8394 68.0971 30.7523 68.0901 30.6719 68.0719C30.5915 68.0536 30.5111 68.0354 30.4419 68.0239C30.1315 67.9577 29.8545 67.9119 29.5843 67.8548C29.4526 67.8206 29.3252 67.8045 29.2046 67.7771C29.0841 67.7497 28.9746 67.7292 28.8719 67.6973C28.6598 67.6449 28.4588 67.5993 28.298 67.5627C28.1261 67.5194 27.9653 67.4829 27.7934 67.4396C27.6215 67.3963 27.4674 67.3486 27.2955 67.3053C27.1235 67.262 26.9695 67.2142 26.7975 67.1709L26.5519 67.0981C26.4716 67.0798 26.3867 67.0435 26.3063 67.0253C25.9804 66.9342 25.6611 66.8318 25.3418 66.7295C25.1878 66.6817 25.0226 66.6272 24.8685 66.5794C24.7145 66.5317 24.5493 66.4771 24.402 66.4181C24.2479 66.3703 24.0939 66.3225 23.9465 66.2635C23.7925 66.2157 23.6452 66.1567 23.4979 66.0977C23.1965 65.9909 22.9018 65.8728 22.6005 65.766C22.3058 65.648 22.0224 65.5367 21.7277 65.4187L21.2969 65.2484C21.1496 65.1893 21.0202 65.1258 20.884 65.0736C18.6609 64.134 16.7241 63.123 15.1311 62.1985C15.0307 62.1374 14.9236 62.0874 14.8343 62.0331C14.7339 61.9719 14.6447 61.9175 14.5443 61.8564C14.3658 61.7477 14.1762 61.6321 13.991 61.5346C13.6273 61.3284 13.2994 61.1133 12.9759 60.9162C12.8198 60.8211 12.6636 60.7259 12.5186 60.6376C12.4405 60.59 12.3736 60.5492 12.3066 60.5085C12.2397 60.4677 12.1728 60.4269 12.0947 60.3793C11.827 60.2162 11.5704 60.0599 11.3406 59.9353C11.2848 59.9013 11.2291 59.8673 11.1666 59.8446C11.1108 59.8106 11.0662 59.7834 11.0104 59.7495C10.91 59.6883 10.8029 59.6384 10.7136 59.584C10.5284 59.4866 10.3588 59.4139 10.2226 59.3617C9.92126 59.2549 9.71798 59.2386 9.63508 59.3264Z" fill="white"/>
<path d="M17.307 66.9362C17.9986 67.3575 18.7148 67.7631 19.4624 68.1418C19.507 68.169 19.5695 68.1917 19.6141 68.2188C19.7033 68.2732 19.8105 68.3231 19.9064 68.3662L20.3572 68.5794C20.4421 68.6157 20.538 68.6588 20.6161 68.7064C20.8304 68.8062 21.0558 68.9128 21.27 69.0126C21.5869 69.1443 21.9039 69.2759 22.2208 69.4076C22.2833 69.4303 22.3391 69.4643 22.4016 69.487C22.5088 69.5369 22.6226 69.5755 22.7186 69.6186C22.8838 69.6732 23.0534 69.7458 23.2186 69.8004C23.3548 69.8526 23.4909 69.9048 23.6271 69.9571L23.7119 69.9934C23.7521 70.0025 23.7744 70.0161 23.8146 70.0252C23.9508 70.0775 24.087 70.1297 24.2298 70.1707L24.6518 70.3049C24.8572 70.3685 25.0737 70.439 25.2792 70.5027C25.3082 70.5051 25.3417 70.5254 25.3707 70.5278C25.4221 70.5437 25.4846 70.5664 25.5471 70.5891L25.8038 70.6687C25.9758 70.712 26.141 70.7666 26.3241 70.8167L26.3464 70.8303C26.5295 70.8804 26.7125 70.9305 26.8845 70.9738C27.0051 71.0012 27.1257 71.0285 27.2462 71.0559C27.3087 71.0786 27.3668 71.0833 27.4361 71.0948L28.0613 71.2453C28.1417 71.2635 28.2221 71.2818 28.3136 71.3068L28.4342 71.3342C28.5146 71.3524 28.6129 71.3662 28.6933 71.3845C28.7446 71.4004 28.7916 71.3983 28.8429 71.4142C29.0104 71.4395 29.1824 71.4828 29.3722 71.5216L29.7809 71.6016C29.8099 71.6039 29.839 71.6063 29.8724 71.6266C29.9238 71.6426 29.9818 71.6472 30.0399 71.6519C30.127 71.6589 30.2186 71.6839 30.3057 71.6909C30.4844 71.723 30.6698 71.7437 30.8596 71.7826C31.7374 71.9179 32.5705 72.0261 33.435 72.1073C34.4626 72.1957 35.5037 72.2615 36.5247 72.2844C36.6297 72.287 36.7347 72.2895 36.8465 72.2808C37.3023 72.282 37.7692 72.2899 38.2497 72.2754L38.5536 72.2762C38.7524 72.2744 38.958 72.2614 39.1569 72.2597C39.4094 72.2445 39.6619 72.2294 39.9144 72.2143L40.091 72.1989C40.167 72.1991 40.2497 72.1881 40.3256 72.1883C40.4016 72.1885 40.4843 72.1774 40.5603 72.1776C40.6362 72.1778 40.7189 72.1667 40.8016 72.1557C40.8843 72.1446 40.9603 72.1448 41.043 72.1337L41.3448 72.0871C41.5682 72.0697 41.7985 72.0409 42.0219 72.0235C42.1516 72.0103 42.2812 71.9971 42.4176 71.9726C42.4533 71.9637 42.4824 71.966 42.5181 71.9571C42.583 71.9505 42.6657 71.9394 42.7305 71.9328C42.8311 71.9173 42.9316 71.9018 43.0322 71.8862C43.1149 71.8752 43.1976 71.8641 43.2871 71.8418C43.5352 71.8086 43.8011 71.7709 44.056 71.7265C44.2571 71.6954 44.4651 71.6531 44.6662 71.622L45.1043 71.551C45.187 71.5399 45.2697 71.5289 45.3659 71.4953C45.4553 71.4729 45.538 71.4619 45.6275 71.4395C45.699 71.4217 45.7817 71.4106 45.8533 71.3928C45.9606 71.366 46.0612 71.3504 46.1685 71.3236L46.7095 71.2077C46.8347 71.1765 46.9666 71.134 47.103 71.1095L47.2461 71.0738L47.7894 70.9286C47.8788 70.9062 47.9683 70.8839 48.0644 70.8503L48.2075 70.8146L48.3395 70.7721L48.5251 70.7162C48.8247 70.6222 49.1355 70.5351 49.453 70.4366C49.4888 70.4277 49.5246 70.4188 49.5492 70.403C49.6029 70.3896 49.6744 70.3718 49.7348 70.3471L49.8063 70.3293C49.8779 70.3114 49.9383 70.2867 50.0166 70.2576L50.1529 70.2332C50.2916 70.1794 50.4347 70.1437 50.5733 70.0899C50.7657 70.0227 50.9512 69.9668 51.1324 69.8928L51.2107 69.8637C51.3673 69.8055 51.5305 69.736 51.6983 69.6845L51.9331 69.5972C52.0471 69.5591 52.1568 69.503 52.2708 69.4649L52.5481 69.3574C52.6085 69.3327 52.6689 69.3081 52.7293 69.2834C52.7651 69.2745 52.7897 69.2588 52.8322 69.2386C53.0313 69.1601 53.2259 69.0637 53.425 68.9852C53.6061 68.9112 53.794 68.826 53.9641 68.7452L54.5345 68.4783C54.6441 68.4222 54.747 68.3773 54.8566 68.3212C54.9417 68.2808 55.0088 68.2449 55.0938 68.2045C55.8723 67.8186 56.6353 67.4078 57.3469 66.981C58.1033 66.5048 58.8553 66.0105 59.5493 65.5115C60.2991 64.9698 61.0111 64.3897 61.683 63.8004C61.833 63.6767 61.9786 63.535 62.1242 63.3933C62.1555 63.3663 62.169 63.3438 62.2003 63.3168C62.3705 63.1593 62.5229 63.0063 62.6931 62.8489L62.7065 62.8264C62.8073 62.7341 62.9216 62.6194 63.0179 62.5091C63.0695 62.4483 63.1322 62.3944 63.1837 62.3336L63.2979 62.2189C63.3428 62.1693 63.3876 62.1198 63.4257 62.0816C63.4503 62.0659 63.4705 62.0321 63.4951 62.0164C63.5466 61.9556 63.6161 61.8903 63.6676 61.8296C64.4139 60.9631 64.9585 60.281 65.434 59.5875C65.4744 59.5199 65.5259 59.4591 65.5663 59.3916C65.6582 59.2632 65.7569 59.1236 65.8377 58.9885L66.237 58.3715C66.4299 58.0742 66.6072 57.7521 66.7822 57.4593C66.8496 57.3467 66.9057 57.2273 66.9663 57.126C67.0538 56.9796 67.1369 56.8151 67.2133 56.6619C67.2402 56.6169 67.2627 56.5538 67.2964 56.4975C67.4994 56.5905 67.7137 56.6903 67.9168 56.7833C68.7828 57.1419 69.7094 57.3992 70.6587 57.5167C71.5723 57.6431 72.495 57.6523 73.4203 57.5554C73.8561 57.5137 74.301 57.4314 74.7526 57.3378C75.1684 57.2532 75.5932 57.128 76.0248 56.9915C76.8164 56.7364 77.6082 56.4046 78.3824 56.0006C79.0893 55.6325 79.801 55.2057 80.4881 54.718C81.1126 54.2843 81.7485 53.7806 82.3576 53.2454C83.475 52.267 84.4967 51.1689 85.4135 49.9915C85.4987 49.8745 85.5884 49.7754 85.6736 49.6584C85.6938 49.6246 85.7251 49.5976 85.7453 49.5638L85.779 49.5075C85.8238 49.458 85.8574 49.4017 85.9022 49.3522C85.9494 49.2734 86.0009 49.2126 86.048 49.1338C86.1332 49.0167 86.2252 48.8883 86.2992 48.7645L86.3329 48.7082C86.3531 48.6744 86.3733 48.6406 86.4046 48.6136C86.4831 48.5078 86.5504 48.3952 86.6289 48.2894C86.6827 48.1993 86.7545 48.1047 86.8083 48.0146C86.9339 47.83 87.0484 47.6386 87.174 47.4539L87.6788 46.6093C88.2803 45.5778 88.8394 44.4897 89.3427 43.3677C89.4506 43.1108 89.5652 42.8427 89.6732 42.5858C89.7451 42.4146 89.8103 42.2546 89.8643 42.0878C89.9003 42.0022 89.9363 41.9166 89.9722 41.831L90.1184 41.4591L90.1319 41.4366C90.1702 41.3217 90.2084 41.2067 90.2579 41.0986L90.3321 40.898C90.3929 40.72 90.4469 40.5532 90.5121 40.3932C90.8522 39.3407 91.0867 38.5157 91.2427 37.7966C91.2631 37.6861 91.2946 37.5824 91.315 37.4719L91.376 37.2172C91.4031 37.0955 91.4258 36.9557 91.4462 36.8452C91.4619 36.7933 91.4666 36.7347 91.4779 36.6648L91.5708 36.153C91.5912 36.0425 91.6116 35.932 91.632 35.8216C91.6366 35.7629 91.6456 35.7224 91.6503 35.6637C91.6707 35.5532 91.6843 35.454 91.698 35.3548L91.7207 35.215C91.7434 35.0752 91.7661 34.9354 91.7709 34.8001C91.8028 34.5431 91.828 34.2972 91.8509 34.0807C91.8782 33.8823 91.8809 33.6996 91.8813 33.5462L91.8903 33.5057C91.8975 33.341 91.9023 33.2057 91.9004 33.0816C91.9054 32.8696 91.8856 32.75 91.8632 32.7364C91.8342 32.7341 91.7848 32.8422 91.7217 33.0496C91.6901 33.1532 91.6563 33.2862 91.6201 33.4486C91.6044 33.5004 91.5997 33.559 91.5772 33.6221C91.5568 33.7326 91.523 33.8656 91.4891 33.9986C91.4439 34.2015 91.3785 34.4382 91.3176 34.6929C91.2904 34.8147 91.2566 34.9477 91.216 35.0919C91.1821 35.2249 91.1416 35.3692 91.1054 35.5315C91.0896 35.5833 91.0739 35.6352 91.0625 35.7051C91.0377 35.7975 91.0062 35.9012 90.9925 36.0004L90.9429 36.1852C90.9113 36.2889 90.8798 36.3926 90.8482 36.4963C90.8257 36.5594 90.8144 36.6293 90.7919 36.6924C90.7603 36.796 90.7399 36.9065 90.7017 37.0215L90.5238 37.5736C90.3187 38.2476 90.0419 39.016 89.6326 40.0571C89.5449 40.2802 89.4461 40.4965 89.3516 40.7308C89.3022 40.839 89.2595 40.9359 89.2212 41.0508L89.201 41.0846L89.0393 41.4315C89.0256 41.5308 88.9785 41.6096 88.9425 41.6952C88.8729 41.8371 88.8077 41.9971 88.7314 42.1503C88.619 42.3891 88.4888 42.6324 88.3698 42.8825C87.8241 43.948 87.2406 44.9751 86.6214 45.9344L86.1033 46.7248C85.9912 46.8869 85.879 47.0491 85.7558 47.2044C85.684 47.2989 85.6055 47.4048 85.545 47.5061C85.1661 48.0127 84.767 48.553 84.3233 49.0661C83.4201 50.1443 82.4188 51.1319 81.3441 52.0134C80.7686 52.4924 80.1732 52.9284 79.5823 53.3059C78.9355 53.726 78.2866 54.0988 77.6312 54.4061C76.1435 55.1128 74.679 55.5263 73.2554 55.6422C72.4732 55.7033 71.7047 55.6652 70.9542 55.546C70.8269 55.5299 70.6951 55.4957 70.5567 55.4728C70.5053 55.4569 70.4361 55.4454 70.378 55.4408C70.2976 55.4225 70.2172 55.4042 70.1436 55.3747C70.1324 55.3679 70.1145 55.3724 70.0922 55.3588L69.9716 55.3314C69.9203 55.3155 69.8689 55.2996 69.8108 55.2949C69.697 55.2563 69.5831 55.2177 69.4804 55.1858C69.4068 55.1563 69.3264 55.138 69.2527 55.1085L69.1902 55.0858C69.0317 55.02 68.8733 54.9542 68.7036 54.8815C68.5229 54.8021 68.3376 54.7046 68.1524 54.6072L68.2109 54.4584L68.2694 54.3097C68.3413 54.1385 68.4088 53.9492 68.4808 53.7779L68.5527 53.6067C68.5617 53.5661 68.5819 53.5323 68.591 53.4917C68.6044 53.4692 68.6 53.4511 68.6135 53.4286L68.735 53.0725C68.7643 52.9982 68.7891 52.9058 68.8183 52.8314C68.8656 52.6759 68.9241 52.5272 68.9714 52.3717L69.1743 51.6504L69.2848 51.2875C69.3028 51.2063 69.3209 51.1251 69.339 51.044C69.348 51.0034 69.3571 50.9628 69.3661 50.9223L69.4361 50.6269C69.4767 50.4827 69.4994 50.3429 69.54 50.1986C69.5648 50.1062 69.5785 50.007 69.5965 49.9258C69.5989 49.8965 69.6012 49.8672 69.6102 49.8266L69.6804 49.4546L69.7824 48.9022C69.7914 48.8617 69.8004 48.8211 69.7983 48.7737C69.7939 48.7557 69.8074 48.7331 69.8097 48.7038C69.8416 48.4467 69.878 48.2077 69.9099 47.9507C69.9189 47.9101 69.9168 47.8627 69.9259 47.8221C69.944 47.741 69.9442 47.6643 69.9511 47.5763L69.9811 47.1952C69.9882 47.0305 70.0132 46.8614 70.0271 46.6855L70.0411 46.4329C70.0413 46.3562 70.0415 46.2795 70.0528 46.2096C70.0667 46.0337 70.0694 45.851 70.0721 45.6683C70.0779 45.1495 70.0725 44.6239 70.0469 44.1321C70.0237 43.611 69.9714 43.0875 69.8945 42.5798C69.8199 42.0428 69.7206 41.5215 69.6012 41.0339C69.473 40.5103 69.3268 39.9911 69.1426 39.5101C68.752 38.458 68.2495 37.4913 67.6506 36.6348C67.6083 36.5783 67.566 36.5218 67.5348 36.4721L67.4079 36.3026C67.3812 36.2709 67.3544 36.2393 67.3389 36.2144C67.281 36.1331 67.2164 36.063 67.1585 35.9816C66.9335 35.7216 66.7508 35.5182 66.5546 35.3372C66.3094 35.111 66.0551 34.9254 65.8097 34.7759C65.7986 34.7691 65.7763 34.7555 65.7651 34.7487C65.4416 34.5516 65.0845 34.4108 64.7227 34.3287C64.3319 34.2442 63.9365 34.2184 63.5588 34.2648C63.1811 34.3112 62.792 34.4274 62.4496 34.6183C62.1454 34.7709 61.8476 34.9889 61.5766 35.2386C61.3549 35.4568 61.1376 35.6931 60.9402 35.9723C60.6173 36.4362 60.3434 36.9452 60.1163 37.5289C59.916 38.0675 59.7695 38.5927 59.6787 39.1518C59.6537 39.321 59.6377 39.4495 59.6106 39.5712L59.5969 39.6704L59.5694 39.9456L59.5283 40.3199L59.505 40.6898C59.5071 40.7372 59.498 40.7777 59.5002 40.8251C59.5 40.9018 59.493 40.9897 59.4861 41.0777L59.474 41.4544C59.4601 41.6303 59.4642 41.8017 59.4682 41.9732C59.468 42.0499 59.4678 42.1265 59.4676 42.2032C59.4695 43.2183 59.5474 44.2336 59.6924 45.2129C59.8462 46.2284 60.0783 47.2147 60.3798 48.1358C60.5704 48.7589 60.8146 49.3685 61.1014 49.958C60.8258 49.3753 60.5883 48.7544 60.3798 48.1358C60.0783 47.2147 59.8462 46.2284 59.6924 45.2129C59.5474 44.2336 59.4695 43.2183 59.4676 42.2032C59.4678 42.1265 59.468 42.0499 59.4682 41.9732C59.4642 41.8017 59.4669 41.619 59.474 41.4544L59.4861 41.0777C59.4863 41.001 59.4932 40.913 59.5002 40.8251C59.498 40.7777 59.5071 40.7372 59.505 40.6898L59.5283 40.3199L59.5969 39.6704L59.6106 39.5712C59.6198 39.454 59.6425 39.3142 59.6787 39.1518C59.7806 38.5995 59.916 38.0675 60.1163 37.5289C60.3434 36.9452 60.595 36.4226 60.9291 35.9655C61.1264 35.6863 61.3326 35.4433 61.5655 35.2318C61.8365 34.9821 62.1275 34.7754 62.4273 34.6047C62.7808 34.4207 63.1587 34.2976 63.5365 34.2512C63.9142 34.2048 64.2985 34.2238 64.7004 34.3151C65.0622 34.3972 65.4193 34.538 65.7428 34.7351C66.0105 34.8982 66.2871 35.0974 66.5546 35.3372C66.7508 35.5182 66.9446 35.7284 67.1585 35.9816C67.2164 36.063 67.281 36.1331 67.3389 36.2144C67.3544 36.2393 67.3812 36.2709 67.4079 36.3026L67.5348 36.4721C67.5771 36.5286 67.6083 36.5783 67.6394 36.628C68.2562 37.48 68.7632 38.4648 69.1426 39.5101C69.3268 39.9911 69.473 40.5103 69.6012 41.0339C69.7206 41.5215 69.8199 42.0428 69.8945 42.5798C69.9602 43.0807 70.0125 43.6042 70.0469 44.1321C70.0725 44.6239 70.0779 45.1495 70.0721 45.6683C70.0694 45.851 70.0555 46.0269 70.0528 46.2096C70.0415 46.2795 70.0413 46.3562 70.0411 46.4329L70.0271 46.6855C70.0199 46.8502 69.9838 47.0125 69.9767 47.1771L69.9467 47.5583C69.9397 47.6462 69.9284 47.7161 69.9215 47.8041C69.9124 47.8446 69.9145 47.892 69.9055 47.9326C69.8803 48.1784 69.8372 48.4287 69.8053 48.6857C69.8097 48.7038 69.7962 48.7263 69.7939 48.7556C69.7849 48.7962 69.787 48.8436 69.7779 48.8842L69.7462 49.0646L69.676 49.4365L69.6102 49.8266C69.6012 49.8672 69.5989 49.8965 69.5965 49.9258C69.5717 50.0183 69.5648 50.1062 69.54 50.1986C69.4994 50.3429 69.4767 50.4827 69.4361 50.6269L69.3661 50.9223C69.3571 50.9628 69.348 51.0034 69.339 51.044C69.3209 51.1251 69.3028 51.2063 69.2848 51.2875L69.1811 51.6391L68.9782 52.3604C68.9308 52.5159 68.8768 52.6827 68.8183 52.8314C68.7891 52.9058 68.7643 52.9982 68.735 53.0725L68.6135 53.4286C68.6 53.4511 68.6044 53.4692 68.591 53.4917C68.5819 53.5323 68.5685 53.5548 68.5594 53.5954L68.4875 53.7667C68.4156 53.9379 68.3413 54.1385 68.2694 54.3097L68.2109 54.4584L68.1524 54.6072C67.2599 54.1402 66.4169 53.4884 65.6636 52.7375L65.6861 52.6744L65.7446 52.5257C65.7648 52.4919 65.7671 52.4626 65.7761 52.422C65.7829 52.4108 65.7852 52.3815 65.7919 52.3702L65.8977 52.0659C65.9269 51.9916 65.9562 51.9172 65.9743 51.8361C66.0193 51.7099 66.071 51.5724 66.116 51.4462L66.1183 51.4169C66.1814 51.2095 66.2378 51.0134 66.2941 50.8173L66.3888 50.5063C66.4113 50.4432 66.4226 50.3733 66.434 50.3034C66.443 50.2628 66.452 50.2222 66.4611 50.1816L66.504 50.0081C66.5401 49.8457 66.5875 49.6902 66.6169 49.5392C66.635 49.458 66.653 49.3769 66.6711 49.2957C66.6734 49.2664 66.6869 49.2439 66.6892 49.2145L66.7615 48.8899L66.8589 48.3962C66.8679 48.3556 66.8702 48.3263 66.8792 48.2857C66.8748 48.2676 66.8883 48.2451 66.8839 48.2271L66.9883 47.5687C66.9974 47.5281 67.0064 47.4875 67.0087 47.4582C67.0201 47.3883 67.0314 47.3184 67.0427 47.2485L67.0749 46.9147C67.0978 46.6983 67.1274 46.4705 67.1391 46.2472C67.1393 46.1705 67.1507 46.1006 67.1576 46.0127C67.1624 45.8773 67.174 45.7308 67.1855 45.5842C67.2101 44.6775 67.1923 43.7909 67.0827 42.956C66.9777 42.0625 66.7921 41.2274 66.526 40.4508C66.2398 39.6312 65.8731 38.8701 65.4279 38.2148C65.4079 38.1719 65.37 38.1334 65.3388 38.0837L65.2431 37.9639L65.0582 37.7131C64.9202 37.5368 64.8021 37.4034 64.6928 37.3061C64.568 37.184 64.452 37.098 64.3517 37.0368C64.3405 37.03 64.3293 37.0232 64.3293 37.0232C64.2513 36.9756 64.1664 36.9393 64.0749 36.9143C63.9834 36.8892 63.8962 36.8822 63.8135 36.8933C63.7308 36.9044 63.6593 36.9222 63.5743 36.9626C63.3864 37.0478 63.1602 37.248 62.9696 37.516C62.7678 37.7771 62.5838 38.1105 62.4376 38.4823C62.2914 38.8541 62.1675 39.2395 62.0973 39.6115C62.0793 39.6926 62.0589 39.8031 62.0452 39.9023L62.0339 39.9722L62.0087 40.218L61.9921 40.5766L61.96 40.9104C61.9438 41.1156 61.9209 41.3321 61.9227 41.5329L61.9248 41.5803C61.9132 41.7269 61.9128 41.8802 61.9125 42.0336C61.9123 42.1103 61.9121 42.187 61.9074 42.2456C61.8895 43.1411 61.9297 44.0412 62.0437 44.8942C62.1554 45.7764 62.3387 46.6408 62.5847 47.4513C62.8327 48.3091 63.1614 49.1084 63.5439 49.8177C63.9353 50.5631 64.4005 51.2613 64.9284 51.9055C65.169 52.1904 65.4275 52.4708 65.6815 52.7331L65.4455 53.2806L65.3578 53.5037L65.1826 53.8732L64.9085 54.4589C64.8523 54.5783 64.7918 54.6797 64.7356 54.7991C64.6885 54.8779 64.6592 54.9523 64.6121 55.0311C64.5785 55.0874 64.556 55.1505 64.5223 55.2068C64.4594 55.3375 64.3786 55.4726 64.3046 55.5965C64.2373 55.7091 64.1767 55.8104 64.1161 55.9118C63.9613 56.1708 63.8176 56.4366 63.6405 56.682L63.295 57.209C63.2165 57.3148 63.1381 57.4206 63.0596 57.5264C63.0081 57.5872 62.9677 57.6547 62.9161 57.7155C62.3847 58.4517 61.7931 59.1359 61.3382 59.6423C61.2867 59.7031 61.2419 59.7526 61.1859 59.7953C61.1613 59.811 61.1478 59.8335 61.1165 59.8605C61.047 59.9258 60.9888 59.9978 60.9193 60.063L60.9059 60.0855C60.8543 60.1463 60.7984 60.189 60.7468 60.2498C60.6572 60.3488 60.5631 60.4298 60.4735 60.5288C60.3279 60.6705 60.1712 60.8055 60.0256 60.9472C59.9942 60.9742 59.9696 60.9899 59.9494 61.0237C59.8352 61.1385 59.7098 61.2464 59.5844 61.3543C58.9887 61.8671 58.3417 62.3639 57.6859 62.8246C57.0547 63.2696 56.3788 63.6875 55.6807 64.0917C55.0318 64.4644 54.3427 64.8281 53.6201 65.1713L53.0921 65.4181C52.9221 65.4989 52.7588 65.5684 52.5888 65.6491L52.5709 65.6536C52.3226 65.7635 52.0811 65.8621 51.8395 65.9607L51.5376 66.084C51.5018 66.093 51.4772 66.1087 51.4526 66.1244C51.3922 66.1491 51.3497 66.1693 51.2893 66.1939L51.1931 66.2275C51.1395 66.2409 51.0791 66.2655 51.0366 66.2857L50.5244 66.4807C50.4215 66.5255 50.3074 66.5636 50.2045 66.6084L50.0122 66.6756C49.8803 66.7181 49.7484 66.7606 49.6164 66.8031L49.4845 66.8456C49.3168 66.8971 49.1423 66.9598 48.9746 67.0112C48.9031 67.0291 48.8427 67.0538 48.7711 67.0716L48.7175 67.085C48.6638 67.0984 48.6102 67.1118 48.5498 67.1365C48.514 67.1454 48.4894 67.1611 48.4603 67.1588C48.1138 67.2549 47.7784 67.3578 47.4497 67.4494L47.3245 67.4807L47.1993 67.5119C47.1098 67.5343 47.0383 67.5521 46.9489 67.5745C46.8237 67.6057 46.6984 67.637 46.5621 67.6614L46.2759 67.7329C46.1686 67.7597 46.0613 67.7864 45.9428 67.8064L45.7349 67.8488C45.6343 67.8643 45.5449 67.8866 45.4443 67.9021C45.2833 67.9423 45.1179 67.9645 44.9569 68.0047L44.7133 68.0559C44.6238 68.0782 44.5411 68.0893 44.4763 68.0959C44.293 68.1225 44.103 68.1603 43.9197 68.1869L43.5174 68.2491C43.2804 68.289 43.0502 68.3178 42.82 68.3465C42.7373 68.3576 42.6546 68.3686 42.5719 68.3797C42.4602 68.3884 42.3596 68.404 42.2411 68.424L42.1115 68.4372C42.0757 68.4461 42.0467 68.4438 42.0109 68.4527C41.8924 68.4727 41.7695 68.4746 41.651 68.4946L41.5683 68.5057C41.2912 68.5365 41.0208 68.5562 40.7504 68.5758C40.7035 68.5779 40.6677 68.5868 40.6208 68.5889L40.5269 68.5932C40.4442 68.6043 40.3794 68.6109 40.3034 68.6107C40.1626 68.6171 40.004 68.628 39.8632 68.6344L39.8163 68.6365C39.5347 68.6493 39.2643 68.6689 39.0006 68.6772L38.6967 68.6765C38.5158 68.6737 38.3459 68.6778 38.165 68.6751C37.7315 68.6875 37.3114 68.6774 36.9093 68.6628C36.8043 68.6603 36.6881 68.651 36.5764 68.6597C34.8449 68.6033 33.1449 68.4433 31.385 68.1545L30.8713 68.072C30.7909 68.0537 30.7037 68.0468 30.6345 68.0353C30.5764 68.0306 30.5362 68.0215 30.4849 68.0056C30.4558 68.0033 30.4335 67.9897 30.4045 67.9873C30.0941 67.9211 29.8171 67.8753 29.5469 67.8182C29.4956 67.8023 29.4486 67.8044 29.4084 67.7953C29.328 67.777 29.2477 67.7588 29.1784 67.7473C29.098 67.7291 29.0288 67.7176 28.9663 67.6949L28.8457 67.6675L28.6559 67.6287C28.513 67.5877 28.3857 67.5716 28.2718 67.5329C28.2026 67.5215 28.1512 67.5056 28.082 67.4941C27.9726 67.4735 27.8699 67.4417 27.7604 67.4211C27.68 67.4028 27.5996 67.3846 27.5148 67.3483C27.4344 67.33 27.3429 67.305 27.2625 67.2867C27.1017 67.2502 26.9365 67.1957 26.7757 67.1591L26.5301 67.0863C26.4788 67.0704 26.4274 67.0545 26.3761 67.0386C26.347 67.0362 26.3136 67.0158 26.2845 67.0135L26.1528 66.9793C25.8782 66.9042 25.5991 66.811 25.3245 66.7358C25.2039 66.7084 25.0789 66.663 24.965 66.6244C24.9248 66.6152 24.8913 66.5949 24.8512 66.5857C24.6971 66.538 24.5319 66.4834 24.3778 66.4356C24.2863 66.4106 24.2015 66.3743 24.1099 66.3492L23.9045 66.2855C23.8018 66.2537 23.717 66.2174 23.6143 66.1855C23.563 66.1696 23.5005 66.1469 23.4491 66.131L23.0339 65.9855C22.8687 65.931 22.7102 65.8651 22.545 65.8106C22.3754 65.738 22.199 65.6766 22.0405 65.6108C21.9155 65.5653 21.7973 65.5086 21.6723 65.4632L21.2414 65.2929C21.1566 65.2566 21.0607 65.2135 20.9759 65.1772C20.9312 65.15 20.8799 65.1341 20.8174 65.1114C19.7885 64.6688 18.7395 64.1834 17.7108 63.6642C16.8227 63.2153 15.9368 62.737 15.0645 62.2363C15.031 62.2159 14.9864 62.1887 14.9529 62.1683C14.8971 62.1343 14.8414 62.1004 14.7856 62.0664C14.6964 62.012 14.5848 61.9441 14.4956 61.8897C14.3282 61.7877 14.1721 61.6926 13.998 61.6019L13.9423 61.5679C13.7124 61.4433 13.5072 61.3029 13.3064 61.1806C13.1726 61.099 13.061 61.0311 12.9383 60.9563C12.7822 60.8612 12.626 60.766 12.481 60.6777C12.4141 60.6369 12.3471 60.5961 12.2802 60.5554L12.2579 60.5418C12.191 60.501 12.1241 60.4602 12.046 60.4126C11.7783 60.2495 11.5217 60.0932 11.2919 59.9686L11.1178 59.8779L10.9617 59.7828C10.8613 59.7216 10.7541 59.6717 10.6649 59.6173C10.4797 59.5199 10.3101 59.4472 10.1739 59.395C9.89043 59.2837 9.69829 59.2742 9.60866 59.3732C9.52577 59.461 9.54538 59.6573 9.6698 59.9328C9.73423 60.0796 9.82097 60.24 9.93001 60.414C9.98117 60.5066 10.0435 60.606 10.1169 60.7122L10.2216 60.8681C10.2527 60.9178 10.3018 60.963 10.3329 61.0127L10.3441 61.0195C10.5133 61.2455 10.7116 61.4739 10.9187 61.7383L10.961 61.7948C11.0101 61.8401 11.0412 61.8898 11.0835 61.9463C11.137 62.0096 11.2016 62.0797 11.2662 62.1498C11.3955 62.29 11.5314 62.4189 11.6607 62.5591C11.7097 62.6043 11.7632 62.6676 11.8122 62.7128C12.0507 62.9503 12.2825 63.199 12.55 63.4388C12.7194 63.5881 12.8821 63.7487 13.0627 63.9048L13.1563 63.9773C13.2165 64.0293 13.2767 64.0813 13.3369 64.1334C13.3971 64.1854 13.4573 64.2374 13.5175 64.2895C13.551 64.3099 13.5777 64.3415 13.6112 64.3619C14.4005 65.0271 15.2792 65.67 16.2004 66.2927C16.582 66.4944 16.9389 66.7119 17.307 66.9362ZM67.2964 56.4975C67.2627 56.5538 67.2402 56.6169 67.2133 56.6619C67.1369 56.8151 67.0605 56.9683 66.9663 57.126C66.899 57.2386 66.8317 57.3512 66.7822 57.4593C66.6116 57.7702 66.441 58.081 66.237 58.3715L65.8556 58.984C65.7636 59.1124 65.665 59.252 65.5842 59.3871C65.5438 59.4547 65.4923 59.5154 65.4519 59.583C64.9764 60.2765 64.4317 60.9586 63.6855 61.8251C63.6272 61.8971 63.5757 61.9579 63.513 62.0119C63.4884 62.0276 63.4682 62.0614 63.4435 62.0771C63.3987 62.1266 63.3606 62.1649 63.3158 62.2144L63.2016 62.3291C63.1501 62.3899 63.0874 62.4439 63.0358 62.5046C62.9394 62.6149 62.814 62.7229 62.7065 62.8264L62.6931 62.8489C62.5229 63.0063 62.3817 63.1661 62.2115 63.3236C62.1801 63.3506 62.1555 63.3663 62.1242 63.3933C61.9853 63.5237 61.8509 63.6723 61.7008 63.796C61.0223 64.3965 60.3103 64.9766 59.5671 65.507C58.8665 66.0172 58.1212 66.5003 57.3425 66.963C56.6309 67.3897 55.8791 67.8073 55.0938 68.2045C55.0088 68.2449 54.9417 68.2808 54.8566 68.3212C54.747 68.3773 54.6374 68.4334 54.5345 68.4783L53.9529 68.7384C53.7717 68.8124 53.595 68.9045 53.425 68.9852C53.2259 69.0637 53.0313 69.1601 52.8322 69.2386C52.7897 69.2588 52.7651 69.2745 52.7293 69.2834C52.6689 69.3081 52.5974 69.3259 52.537 69.3506L52.2708 69.4649C52.1568 69.503 52.0539 69.5478 51.9331 69.5972L51.6871 69.6777C51.5238 69.7472 51.3784 69.8123 51.2107 69.8637L51.1324 69.8928C50.9401 69.96 50.7545 70.0159 50.5733 70.0899C50.4347 70.1437 50.2916 70.1794 50.1529 70.2332L50.0031 70.2802C49.9315 70.298 49.8711 70.3227 49.7929 70.3518L49.7213 70.3697C49.6609 70.3943 49.6073 70.4077 49.5357 70.4256C49.5 70.4345 49.4642 70.4434 49.4396 70.4592C49.1288 70.5463 48.8359 70.629 48.5251 70.7162L48.3395 70.7721L48.2008 70.8259L48.0644 70.8503C47.975 70.8727 47.8788 70.9062 47.7894 70.9286L47.2461 71.0738L47.103 71.1095C46.9778 71.1408 46.8347 71.1765 46.7095 71.2077L46.1685 71.3236C46.0612 71.3504 45.9606 71.366 45.8533 71.3928C45.7817 71.4106 45.699 71.4217 45.6275 71.4395C45.538 71.4619 45.4553 71.4729 45.3659 71.4953C45.2653 71.5108 45.1759 71.5331 45.1043 71.551L44.6662 71.622C44.4651 71.6531 44.2571 71.6954 44.056 71.7265C43.8011 71.7709 43.5352 71.8086 43.2871 71.8418C43.2044 71.8528 43.1217 71.8639 43.039 71.875C42.9384 71.8905 42.8445 71.8948 42.7439 71.9103C42.6791 71.9169 42.5964 71.928 42.5316 71.9346C42.4958 71.9435 42.4668 71.9412 42.431 71.9501C42.3014 71.9633 42.165 71.9877 42.0354 72.0009C41.8119 72.0184 41.5817 72.0471 41.3582 72.0646L41.052 72.0931C40.9693 72.1042 40.8934 72.104 40.8107 72.1151C40.728 72.1261 40.6453 72.1372 40.5693 72.137C40.4933 72.1368 40.4106 72.1479 40.3279 72.1589C40.252 72.1588 40.1693 72.1698 40.0933 72.1696L39.9167 72.185C39.6642 72.2001 39.4117 72.2152 39.1592 72.2304C38.9603 72.2321 38.7547 72.2451 38.5559 72.2469L38.2453 72.2573C37.7648 72.2719 37.2979 72.2639 36.8421 72.2627C36.7371 72.2602 36.632 72.2577 36.527 72.2551C35.4992 72.2435 34.4582 72.1776 33.4373 72.078C32.584 72.0036 31.7397 71.8886 30.8619 71.7533C30.6654 71.7257 30.4867 71.6937 30.308 71.6616C30.2209 71.6546 30.1294 71.6296 30.0422 71.6226C29.9842 71.6179 29.9328 71.602 29.8747 71.5973C29.8457 71.595 29.8166 71.5927 29.7832 71.5723L29.3745 71.4923C29.1847 71.4534 29.0172 71.4282 28.8452 71.3849C28.7939 71.369 28.7469 71.3711 28.6956 71.3552C28.5973 71.3414 28.5169 71.3231 28.4365 71.3049L28.3159 71.2775C28.2244 71.2524 28.144 71.2342 28.0636 71.2159L27.4384 71.0654C27.3759 71.0427 27.3066 71.0313 27.2485 71.0266C27.128 70.9992 27.0074 70.9719 26.8935 70.9332C26.7104 70.8831 26.5273 70.833 26.3554 70.7897L26.3331 70.7761C26.1611 70.7328 25.9959 70.6783 25.8128 70.6282L25.5382 70.553C25.4869 70.5371 25.4244 70.5144 25.3619 70.4916C25.3396 70.478 25.2994 70.4689 25.2703 70.4666C25.0649 70.4029 24.8484 70.3324 24.643 70.2687L24.221 70.1346C24.0781 70.0936 23.9419 70.0414 23.8058 69.9891C23.7723 69.9687 23.7433 69.9664 23.7031 69.9573L23.6183 69.921C23.4821 69.8687 23.3459 69.8165 23.203 69.7755C23.0378 69.721 22.8682 69.6483 22.703 69.5938C22.5891 69.5551 22.482 69.5052 22.386 69.4621C22.3347 69.4462 22.2789 69.4122 22.2164 69.3895C21.8995 69.2579 21.5714 69.1194 21.2544 68.9878C21.029 68.8812 20.8148 68.7814 20.6005 68.6816C20.5157 68.6453 20.4197 68.6021 20.3417 68.5546L19.8909 68.3414C19.7926 68.3276 19.6922 68.2664 19.5962 68.2233C19.5516 68.1961 19.4958 68.1622 19.4445 68.1462C18.3265 67.5726 17.2534 66.9496 16.2318 66.2657C15.3038 65.6543 14.4318 65.0001 13.6358 64.3462C13.6023 64.3258 13.5756 64.2941 13.5421 64.2737C13.4819 64.2217 13.4218 64.1697 13.3616 64.1176C13.3014 64.0656 13.2412 64.0136 13.181 63.9615L13.0873 63.8891C12.9179 63.7398 12.7552 63.5792 12.5746 63.4231C12.3071 63.1833 12.0574 62.9391 11.8368 62.6971C11.7766 62.6451 11.7343 62.5886 11.6853 62.5433C11.5561 62.4032 11.4201 62.2742 11.2909 62.134C11.2262 62.0639 11.1616 61.9939 11.1081 61.9306C11.0658 61.8741 11.028 61.8356 10.9856 61.7791L10.9433 61.7226C10.7295 61.4694 10.5268 61.223 10.3687 61.0038L10.3643 60.9857C10.322 60.9292 10.2841 60.8908 10.2529 60.8411L10.1483 60.6852C10.0748 60.579 10.0125 60.4796 9.96136 60.387C9.84789 60.1949 9.76116 60.0346 9.70115 59.9058C9.57673 59.6303 9.55712 59.434 9.64001 59.3463C9.72291 59.2585 9.91504 59.268 10.2053 59.368C10.3414 59.4202 10.5111 59.4929 10.6963 59.5903C10.7922 59.6334 10.8815 59.6878 10.993 59.7558L11.1492 59.8509L11.3121 59.9348C11.4905 60.0435 11.6981 60.1546 11.91 60.2837C11.9658 60.3177 12.0215 60.3517 12.0773 60.3857C12.1442 60.4264 12.2112 60.4672 12.2893 60.5148L12.3116 60.5284C12.3785 60.5692 12.4454 60.6099 12.5123 60.6507C12.6574 60.7391 12.8135 60.8342 12.9697 60.9293C13.0924 61.0041 13.2151 61.0789 13.3378 61.1536C13.5386 61.2759 13.7505 61.4051 13.9736 61.541L14.0294 61.575C14.1967 61.6769 14.3529 61.772 14.5269 61.8627C14.6162 61.9171 14.7165 61.9782 14.8058 62.0326C14.8616 62.0666 14.9285 62.1074 14.9843 62.1413C15.0177 62.1617 15.0623 62.1889 15.0958 62.2093C15.9682 62.71 16.854 63.1883 17.7421 63.6372C18.7709 64.1564 19.8198 64.6419 20.8487 65.0844C20.9001 65.1003 20.9447 65.1275 21.0072 65.1502C21.092 65.1865 21.188 65.2296 21.2728 65.2659L21.7036 65.4362C21.8286 65.4816 21.9469 65.5384 22.0719 65.5838C22.2304 65.6496 22.4067 65.711 22.5764 65.7836C22.7416 65.8382 22.9 65.904 23.0652 65.9586L23.4805 66.104C23.5318 66.1199 23.5943 66.1426 23.6457 66.1586C23.7416 66.2017 23.8332 66.2267 23.9359 66.2585L24.1413 66.3222C24.2328 66.3473 24.3176 66.3836 24.4092 66.4087C24.5632 66.4564 24.7285 66.511 24.8758 66.57C24.916 66.5791 24.9494 66.5995 24.9896 66.6087C25.1035 66.6473 25.2285 66.6927 25.3491 66.7201C25.6237 66.7953 25.9028 66.8885 26.1774 66.9636L26.3092 66.9978C26.3382 67.0001 26.3717 67.0205 26.4007 67.0228C26.4521 67.0387 26.5034 67.0547 26.5547 67.0706L26.8071 67.1322C26.9679 67.1687 27.1219 67.2164 27.2827 67.2529C27.3631 67.2712 27.4658 67.303 27.5462 67.3213C27.6266 67.3395 27.7002 67.3691 27.7918 67.3941C27.8945 67.426 28.0039 67.4465 28.1133 67.4671C28.1759 67.4898 28.2339 67.4945 28.2964 67.5172C28.417 67.5446 28.5488 67.5788 28.6872 67.6017L28.8703 67.6518L28.9909 67.6792C29.0602 67.6906 29.1338 67.7201 29.203 67.7316C29.2834 67.7499 29.3527 67.7613 29.4331 67.7796C29.4733 67.7887 29.5246 67.8046 29.5715 67.8025C29.8306 67.8528 30.112 67.9166 30.4291 67.9716C30.4582 67.9739 30.4805 67.9875 30.5095 67.9899C30.5608 68.0058 30.6078 68.0037 30.6591 68.0196C30.7395 68.0378 30.8155 68.038 30.8959 68.0563L31.4073 68.1681C33.1784 68.4637 34.8783 68.6237 36.5987 68.6733C36.7037 68.6758 36.8199 68.6851 36.9249 68.6877C37.3337 68.691 37.747 68.7123 38.1805 68.6999C38.3504 68.6959 38.5313 68.6986 38.7123 68.7013L39.0162 68.7021C39.2799 68.6938 39.5503 68.6742 39.8318 68.6613L39.8788 68.6592C40.0196 68.6528 40.1782 68.6419 40.319 68.6355C40.3838 68.6289 40.4598 68.6291 40.5425 68.6181L40.6363 68.6138C40.6833 68.6117 40.719 68.6027 40.766 68.6006C41.0364 68.581 41.3135 68.5501 41.5839 68.5305L41.6666 68.5195C41.7895 68.5175 41.908 68.4975 42.0265 68.4775C42.0555 68.4799 42.0913 68.4709 42.1271 68.462L42.2567 68.4488C42.3684 68.4401 42.469 68.4245 42.5875 68.4045C42.6702 68.3935 42.7529 68.3824 42.8356 68.3714C43.0658 68.3426 43.296 68.3139 43.533 68.2739L43.9353 68.2118C44.1186 68.1852 44.3019 68.1586 44.4919 68.1207C44.5567 68.1141 44.6394 68.1031 44.7356 68.0695L44.9792 68.0182C45.1335 67.9893 45.3056 67.9559 45.4666 67.9157C45.556 67.8934 45.6566 67.8779 45.7572 67.8624L45.9472 67.8245C46.0545 67.7977 46.1619 67.7709 46.2803 67.7509L46.5598 67.6907C46.685 67.6595 46.8102 67.6282 46.9465 67.6038C47.036 67.5815 47.1075 67.5636 47.1969 67.5413L47.3289 67.4987L47.4541 67.4675C47.7828 67.3758 48.1294 67.2797 48.4648 67.1768C48.5005 67.1679 48.5252 67.1522 48.5542 67.1545C48.6079 67.1411 48.6615 67.1277 48.7219 67.1031L48.7756 67.0897C48.8471 67.0718 48.9075 67.0472 48.979 67.0293C49.1468 66.9779 49.3212 66.9152 49.4889 66.8637L49.6208 66.8212C49.7528 66.7787 49.8847 66.7362 50.0166 66.6936L50.209 66.6265C50.3119 66.5816 50.4259 66.5436 50.5288 66.4987L51.041 66.3038C51.0946 66.2904 51.155 66.2658 51.1975 66.2456L51.2893 66.1939C51.3497 66.1693 51.4145 66.1626 51.4637 66.1312C51.4883 66.1155 51.5241 66.1066 51.5599 66.0976L51.8618 65.9743C52.1034 65.8757 52.3517 65.7658 52.5933 65.6672L52.6111 65.6627C52.7744 65.5932 52.9444 65.5125 53.1145 65.4317L53.6357 65.1962C54.3471 64.8461 55.0474 64.4893 55.6963 64.1165C56.3944 63.7123 57.0703 63.2945 57.7015 62.8495C58.3573 62.3888 59.0043 61.8919 59.6 61.3792C59.7254 61.2712 59.8508 61.1633 59.965 61.0486C59.9963 61.0216 60.021 61.0058 60.0412 60.9721C60.1868 60.8303 60.3435 60.6954 60.4891 60.5537C60.5899 60.4614 60.6728 60.3737 60.7624 60.2746C60.8139 60.2139 60.8699 60.1712 60.9215 60.1104L60.9349 60.0879C61.0044 60.0226 61.0626 59.9506 61.1321 59.8854C61.1455 59.8629 61.1701 59.8471 61.1948 59.8314C61.2396 59.7819 61.3023 59.7279 61.3538 59.6671C61.8087 59.1608 62.4003 58.4766 62.9317 57.7404C62.9832 57.6796 63.0236 57.612 63.0752 57.5513C63.1537 57.4454 63.2321 57.3396 63.3106 57.2338L63.656 56.7069C63.822 56.4547 63.9768 56.1957 64.1317 55.9367C64.1922 55.8353 64.2596 55.7227 64.3201 55.6214C64.3942 55.4975 64.475 55.3623 64.5379 55.2317C64.5715 55.1754 64.594 55.1123 64.6277 55.056C64.6748 54.9771 64.7041 54.9028 64.7512 54.824C64.9764 55.0072 65.2016 55.1905 65.4335 55.3626C66.0022 55.7858 66.638 56.1732 67.2964 56.4975ZM67.2964 56.4975C66.9638 56.341 66.6403 56.1439 66.328 55.9536C65.7703 55.6138 65.2395 55.229 64.7356 54.7991C64.7918 54.6797 64.8523 54.5783 64.9085 54.4589L65.1826 53.8732L65.3578 53.5037L65.4455 53.2806L65.6636 52.7375C66.281 53.3594 66.9522 53.8913 67.6549 54.3194C67.8222 54.4213 67.9895 54.5233 68.1636 54.614L68.1209 54.7108L68.0849 54.7965L67.9299 55.1322C67.8512 55.3147 67.7726 55.4972 67.6895 55.6616L67.6266 55.7923L67.3166 56.4637C67.3098 56.475 67.2964 56.4975 67.2964 56.4975ZM91.8632 32.7364C91.8856 32.75 91.9165 32.8764 91.9115 33.0884C91.909 33.1944 91.9086 33.3478 91.9082 33.5012L91.8992 33.5418C91.8988 33.6952 91.8849 33.8711 91.8688 34.0763C91.8459 34.2928 91.8274 34.5273 91.7888 34.7956C91.7772 34.9422 91.7545 35.082 91.7385 35.2106L91.7158 35.3504C91.7022 35.4496 91.6818 35.56 91.6681 35.6593C91.6524 35.7111 91.6545 35.7585 91.6499 35.8171C91.6362 35.9163 91.6158 36.0268 91.5954 36.1373L91.4779 36.6648C91.4621 36.7166 91.4575 36.7753 91.4462 36.8452C91.4258 36.9557 91.4031 37.0955 91.376 37.2172L91.315 37.4719C91.2946 37.5824 91.2631 37.6861 91.2427 37.7966C91.0755 38.5089 90.841 39.3339 90.5121 40.3932C90.4581 40.56 90.3862 40.7312 90.3321 40.898L90.2579 41.0986C90.2196 41.2135 90.1813 41.3285 90.1319 41.4366L90.1184 41.4591L89.9722 41.831C89.9363 41.9166 89.9003 42.0022 89.8643 42.0878C89.7991 42.2478 89.7384 42.4259 89.6732 42.5858C89.5652 42.8427 89.4574 43.0996 89.3427 43.3677C88.8394 44.4897 88.2803 45.5778 87.6788 46.6093L87.174 47.4539C87.0595 47.6454 86.9339 47.83 86.8083 48.0146C86.7545 48.1047 86.6827 48.1993 86.6289 48.2894C86.5616 48.402 86.4831 48.5078 86.4046 48.6136C86.3844 48.6474 86.3642 48.6812 86.3329 48.7082L86.2992 48.7645C86.214 48.8815 86.1221 49.0099 86.048 49.1338C86.0009 49.2126 85.9494 49.2734 85.9022 49.3522C85.8574 49.4017 85.8238 49.458 85.779 49.5075L85.7453 49.5638C85.7251 49.5976 85.6938 49.6246 85.6736 49.6584C85.5951 49.7642 85.5099 49.8813 85.4135 49.9915C84.4967 51.1689 83.475 52.267 82.3576 53.2454C81.7485 53.7806 81.1194 54.273 80.4881 54.718C79.8077 55.1945 79.0893 55.6325 78.3824 56.0006C77.6082 56.4046 76.7985 56.7409 76.0248 56.9915C75.5932 57.128 75.1684 57.2532 74.7526 57.3378C74.301 57.4314 73.8561 57.5137 73.4203 57.5554C71.5161 57.7626 69.6086 57.4914 67.9168 56.7833C67.707 56.7015 67.4927 56.6017 67.2964 56.4975C67.3031 56.4862 67.3098 56.475 67.3166 56.4637L67.6422 55.8171L67.7051 55.6865C67.7837 55.504 67.8624 55.3215 67.9455 55.157L68.1365 54.7357L68.1792 54.6388C68.3644 54.7363 68.5384 54.827 68.7304 54.9132C68.8888 54.979 69.0473 55.0448 69.217 55.1174L69.2795 55.1402C69.3531 55.1697 69.4335 55.1879 69.5072 55.2175C69.621 55.2561 69.7237 55.2879 69.8376 55.3266C69.8889 55.3425 69.9403 55.3584 69.9984 55.3631L70.1034 55.3656C70.1145 55.3724 70.1213 55.3611 70.1436 55.3747C70.224 55.393 70.3088 55.4293 70.3959 55.4363C70.454 55.441 70.5165 55.4637 70.5746 55.4683C70.6951 55.4957 70.8336 55.5186 70.9721 55.5415C71.7225 55.6608 72.4911 55.6989 73.2732 55.6377C74.6901 55.5331 76.1614 55.1083 77.6491 54.4016C78.3045 54.0943 78.9534 53.7215 79.6002 53.3014C80.1978 52.9127 80.7932 52.4766 81.3687 51.9977C82.4434 51.1162 83.4447 50.1286 84.3412 49.0617C84.7737 48.5417 85.1839 48.0082 85.5628 47.5016C85.6346 47.4071 85.7019 47.2945 85.7736 47.1999C85.8858 47.0378 85.9979 46.8757 86.1212 46.7204L86.6393 45.93C87.2585 44.9706 87.842 43.9435 88.3876 42.878C88.5067 42.6279 88.6369 42.3847 88.7492 42.1458C88.8256 41.9927 88.8908 41.8327 88.9604 41.6907C88.9964 41.6051 89.0391 41.5082 89.0862 41.4294L89.248 41.0824L89.2682 41.0487C89.3176 40.9405 89.3603 40.8436 89.3986 40.7287C89.493 40.4944 89.5919 40.2781 89.6796 40.055C90.0821 39.0252 90.3478 38.2499 90.5707 37.5715L90.7486 37.0193C90.7869 36.9044 90.8184 36.8007 90.8388 36.6902C90.8613 36.6271 90.8727 36.5572 90.8952 36.4941C90.9267 36.3905 90.9583 36.2868 90.9898 36.1831L91.0394 35.9983C91.071 35.8946 91.0958 35.8021 91.1094 35.7029C91.1252 35.6511 91.1366 35.5812 91.1523 35.5293C91.1929 35.3851 91.2223 35.234 91.2629 35.0898C91.3035 34.9455 91.3374 34.8125 91.3645 34.6908C91.4255 34.436 91.473 34.2038 91.5361 33.9965C91.5699 33.8635 91.6038 33.7305 91.6242 33.62C91.6355 33.5501 91.6513 33.4983 91.6671 33.4464C91.7032 33.2841 91.7371 33.1511 91.7686 33.0474C91.7959 32.849 91.8231 32.7273 91.8632 32.7364ZM64.3517 37.0368C64.3628 37.0436 64.3672 37.0617 64.3672 37.0617C64.4676 37.1228 64.5769 37.2201 64.7084 37.331C64.8176 37.4282 64.9357 37.5616 65.0738 37.7379L65.2586 37.9888L65.3544 38.1086C65.3923 38.147 65.4123 38.19 65.4434 38.2397C65.8887 38.895 66.2621 39.6448 66.5416 40.4756C66.8077 41.2523 66.9977 42.1054 67.0983 42.9809C67.1967 43.809 67.2257 44.7023 67.2011 45.609C67.1895 45.7556 67.1847 45.8909 67.1732 46.0375C67.173 46.1142 67.1616 46.1841 67.1614 46.2608C67.1385 46.4773 67.1089 46.7051 67.0972 46.9283L67.0651 47.2621C67.0537 47.332 67.0424 47.4019 67.031 47.4718C67.022 47.5124 67.0129 47.5529 67.0106 47.5823L66.9062 48.2407C66.9106 48.2587 66.8971 48.2812 66.9016 48.2993C66.8992 48.3286 66.8902 48.3692 66.8879 48.3985L66.8562 48.5789L66.7838 48.9035L66.7227 49.2349C66.7204 49.2642 66.7069 49.2868 66.7046 49.3161C66.6865 49.3972 66.6684 49.4784 66.6503 49.5596C66.6142 49.7219 66.5669 49.8774 66.5374 50.0284L66.5013 50.1908C66.4922 50.2314 66.4832 50.2719 66.4742 50.3125C66.4628 50.3824 66.4403 50.4455 66.4289 50.5154L66.3343 50.8265C66.278 51.0226 66.2149 51.2299 66.1585 51.426L66.1562 51.4553C66.1112 51.5815 66.0595 51.719 66.0145 51.8452C65.9852 51.9195 65.956 51.9939 65.9379 52.0751L65.8031 52.377C65.7896 52.3995 65.7829 52.4108 65.7761 52.422C65.7671 52.4626 65.7648 52.4919 65.7558 52.5325L65.6681 52.7556C65.414 52.4933 65.1555 52.2129 64.9149 51.9281C64.387 51.2838 63.9218 50.5856 63.5304 49.8402C63.1547 49.1197 62.826 48.3203 62.5712 47.4738C62.3252 46.6634 62.142 45.799 62.0303 44.9167C61.923 44.0525 61.8761 43.1636 61.894 42.2682C61.8942 42.1915 61.8944 42.1148 61.899 42.0561C61.8994 41.9028 61.9109 41.7562 61.9113 41.6028L61.9092 41.5554C61.9254 41.3502 61.9304 41.1381 61.9465 40.9329L61.9786 40.5992L62.0427 40.0083L62.0541 39.9384C62.0677 39.8392 62.0814 39.74 62.1062 39.6476C62.1831 39.2643 62.2891 38.8834 62.4464 38.5184C62.5926 38.1466 62.7767 37.8132 62.9784 37.5521C63.1623 37.2954 63.3952 37.084 63.5831 36.9987C63.6681 36.9583 63.7397 36.9405 63.8224 36.9294C63.9118 36.9071 63.9989 36.9141 64.0905 36.9391C64.182 36.9642 64.2624 36.9824 64.3517 37.0368Z" fill="white"/>
</svg>
