<svg width="152" height="50" viewBox="0 0 152 50" fill="none" xmlns="http://www.w3.org/2000/svg">
<path d="M67.1348 34.5V13.26H82.2548V17.25H71.4248V22.74H80.5748V26.7H71.4248V34.5H67.1348ZM91.1085 34.71C89.4485 34.71 88.0385 34.38 86.8785 33.72C85.7185 33.06 84.8285 32.13 84.2085 30.93C83.5885 29.71 83.2785 28.29 83.2785 26.67C83.2785 25.03 83.5985 23.6 84.2385 22.38C84.8785 21.14 85.7785 20.17 86.9385 19.47C88.1185 18.77 89.5085 18.42 91.1085 18.42C92.3085 18.42 93.3585 18.62 94.2585 19.02C95.1785 19.42 95.9485 19.98 96.5685 20.7C97.2085 21.42 97.6785 22.26 97.9785 23.22C98.2985 24.16 98.4485 25.18 98.4285 26.28C98.4285 26.56 98.4185 26.83 98.3985 27.09C98.3785 27.35 98.3385 27.61 98.2785 27.87H87.4485C87.5085 28.47 87.6785 29.02 87.9585 29.52C88.2385 30.02 88.6285 30.42 89.1285 30.72C89.6485 31 90.2885 31.14 91.0485 31.14C91.5485 31.14 92.0085 31.09 92.4285 30.99C92.8485 30.87 93.2085 30.69 93.5085 30.45C93.8085 30.21 94.0185 29.93 94.1385 29.61H98.2785C98.0185 30.79 97.5285 31.76 96.8085 32.52C96.1085 33.28 95.2585 33.84 94.2585 34.2C93.2585 34.54 92.2085 34.71 91.1085 34.71ZM87.5385 24.93H94.4085C94.3885 24.39 94.2485 23.89 93.9885 23.43C93.7485 22.95 93.3785 22.57 92.8785 22.29C92.3985 21.99 91.7785 21.84 91.0185 21.84C90.2585 21.84 89.6185 21.99 89.0985 22.29C88.5985 22.59 88.2185 22.98 87.9585 23.46C87.7185 23.92 87.5785 24.41 87.5385 24.93ZM101.134 34.5V18.69H104.914L105.184 20.58C105.584 19.98 106.034 19.53 106.534 19.23C107.034 18.91 107.554 18.7 108.094 18.6C108.634 18.48 109.184 18.42 109.744 18.42C110.004 18.42 110.244 18.43 110.464 18.45C110.684 18.45 110.844 18.45 110.944 18.45V22.5H109.954C109.014 22.5 108.194 22.66 107.494 22.98C106.794 23.3 106.254 23.8 105.874 24.48C105.514 25.16 105.334 26.03 105.334 27.09V34.5H101.134ZM112.912 34.5V13.26H117.112V34.5H112.912ZM120.441 34.5V18.69H124.641V34.5H120.441ZM122.541 17.1C121.761 17.1 121.131 16.87 120.651 16.41C120.171 15.93 119.931 15.32 119.931 14.58C119.931 13.8 120.181 13.17 120.681 12.69C121.181 12.21 121.811 11.97 122.571 11.97C123.271 11.97 123.871 12.21 124.371 12.69C124.891 13.15 125.151 13.77 125.151 14.55C125.151 15.31 124.901 15.93 124.401 16.41C123.921 16.87 123.301 17.1 122.541 17.1ZM126.5 34.5L132.02 26.43L126.77 18.69H131.66L134.78 23.67L137.84 18.69H142.58L137.3 26.52L142.94 34.5H138.05L134.6 29.31L131.18 34.5H126.5Z" fill="white"/>
<path d="M147.337 34.89C146.617 34.89 146.007 34.67 145.507 34.23C145.007 33.79 144.757 33.16 144.757 32.34C144.757 31.5 145.007 30.84 145.507 30.36C146.027 29.88 146.637 29.64 147.337 29.64C148.037 29.64 148.637 29.88 149.137 30.36C149.637 30.82 149.887 31.47 149.887 32.31C149.887 33.15 149.637 33.79 149.137 34.23C148.637 34.67 148.037 34.89 147.337 34.89Z" fill="#F270A0"/>
<path d="M22.3886 0C10.0236 0 0 10.0237 0 22.3888C0 34.7539 10.0236 44.7775 22.3886 44.7775C27.5998 44.7775 32.3913 42.9921 36.1959 40.0062C36.1245 39.5635 35.9917 39.1951 35.7864 38.9194C35.3414 38.3207 34.4534 37.9906 33.1472 37.9375C27.8762 37.7239 26.8399 35.6228 26.7717 31.8207C26.7623 31.2805 26.6652 30.8612 26.4765 30.5498C26.1052 30.7688 25.7563 30.8832 25.4164 30.8987C25.3803 30.9002 25.3464 30.9009 25.3124 30.9009C24.9206 30.9009 24.5309 30.7991 24.1729 30.605C23.0147 31.292 21.9166 31.6399 20.9067 31.6399C19.9126 31.6399 18.4837 31.3021 17.3247 29.6917C15.7583 27.666 10.6395 20.7654 10.8542 17.4392C11.0599 14.2516 13.9588 12.7996 16.5655 12.7996C17.4297 12.7996 18.2758 12.9518 19.0119 13.2398C20.5711 13.85 29.7258 18.7728 30.3959 21.2882C30.6838 22.3657 30.3814 23.6827 29.497 25.2051C29.6165 25.3707 29.7067 25.5436 29.7666 25.7218C29.894 26.1036 29.8748 26.4875 29.7045 26.9155C30.774 28.1033 31.4008 29.743 31.5693 31.7929C31.6263 32.4918 31.6725 32.927 31.832 33.0728C31.9987 33.2254 32.4606 33.2676 33.2252 33.3376C33.8988 33.3993 34.7371 33.4758 35.7218 33.6927C37.5447 34.0943 38.9433 35.0599 39.7815 36.4819C42.9038 32.6333 44.7776 27.7306 44.7776 22.3884C44.7772 10.0237 34.7537 0 22.3886 0ZM34.1749 19.5259C31.8825 19.5259 30.0242 17.6676 30.0242 15.3752C30.0242 13.0828 31.8825 11.2245 34.1749 11.2245C36.4672 11.2245 38.3255 13.0828 38.3255 15.3752C38.3255 17.6672 36.4672 19.5259 34.1749 19.5259Z" fill="#F270A0"/>
<path d="M44.8711 49.3205C44.7549 48.9723 41.6796 49.9589 39.8804 48.798C38.0813 47.6376 37.7331 45.0259 38.7777 41.9505C39.8224 38.8747 38.8358 35.857 35.4119 35.1029C31.9879 34.3484 30.4212 35.4511 30.1311 31.9113C29.9178 29.3079 28.888 27.8999 27.8503 27.1973C28.2089 26.7189 28.4431 26.3155 28.3987 26.1827C28.3255 25.9647 27.9914 25.6905 27.5905 25.4902C28.6188 24.0682 29.2535 22.6035 29.002 21.661C28.6091 20.187 20.7469 15.4698 18.4866 14.585C16.2264 13.7006 12.4918 14.4869 12.2955 17.5334C12.0988 20.58 18.4866 28.8352 18.4866 28.8352C20.0776 31.0626 22.3768 30.1988 24.2899 28.7987C24.5194 29.1141 24.8867 29.4785 25.3519 29.4576C25.6156 29.4457 26.0443 29.1361 26.4979 28.7121C27.2607 29.074 28.1822 29.8996 28.2161 31.7958C28.2742 35.0455 28.9125 36.3221 33.2068 36.4964C37.5011 36.6704 38.3718 39.456 37.2691 43.7503C36.1664 48.0446 39.7643 51.1204 44.349 49.6114C44.3486 49.6106 44.9873 49.6687 44.8711 49.3205Z" fill="white"/>
</svg>
