<svg width="50" height="50" viewBox="0 0 50 50" fill="none" xmlns="http://www.w3.org/2000/svg">
<g clip-path="url(#clip0_99_34272)">
<path d="M11.0811 30.2158L9.34062 36.7131L2.97939 36.8477C1.07832 33.3216 0 29.2873 0 25.0002C0 20.8546 1.0082 16.9452 2.79531 13.5029H2.79668L8.45996 14.5412L10.9408 20.1705C10.4216 21.6843 10.1386 23.3093 10.1386 25.0002C10.1388 26.8354 10.4712 28.5937 11.0811 30.2158Z" fill="#FBBB00"/>
<path d="M49.5644 20.3301C49.8515 21.8424 50.0012 23.4042 50.0012 25.0004C50.0012 26.7902 49.813 28.5361 49.4545 30.2202C48.2375 35.951 45.0575 40.9551 40.6523 44.4963L40.651 44.4949L33.5178 44.131L32.5082 37.8287C35.4313 36.1145 37.7156 33.4317 38.9189 30.2202H25.5508V20.3301H39.114H49.5644Z" fill="#518EF8"/>
<path d="M40.6488 44.4946L40.6502 44.496C36.3659 47.9396 30.9235 50.0001 24.9991 50.0001C15.4785 50.0001 7.20107 44.6787 2.97852 36.8477L11.0802 30.2158C13.1914 35.8504 18.6269 39.8614 24.9991 39.8614C27.7381 39.8614 30.3041 39.121 32.506 37.8284L40.6488 44.4946Z" fill="#28B446"/>
<path d="M40.957 5.75547L32.8581 12.3859C30.5793 10.9615 27.8855 10.1387 24.9996 10.1387C18.4831 10.1387 12.946 14.3337 10.9405 20.1703L2.79629 13.5027H2.79492C6.95566 5.48076 15.3375 0 24.9996 0C31.0655 0 36.6273 2.16074 40.957 5.75547Z" fill="#F14336"/>
</g>
<defs>
<clipPath id="clip0_99_34272">
<rect width="50" height="50" fill="white"/>
</clipPath>
</defs>
</svg>
