<svg width="16" height="16" viewBox="0 0 16 16" fill="none" xmlns="http://www.w3.org/2000/svg">
<g clip-path="url(#clip0_115_220)">
<path d="M10.0113 14.8577C10.7151 15.3118 11.5538 15.5096 12.3863 15.4181C13.2189 15.3265 13.9945 14.951 14.5827 14.3549L15.097 13.852C15.3225 13.6214 15.4487 13.3117 15.4487 12.9891C15.4487 12.6666 15.3225 12.3569 15.097 12.1263L12.9142 9.96629C12.6855 9.74154 12.3777 9.61561 12.057 9.61561C11.7364 9.61561 11.4286 9.74154 11.1999 9.96629V9.96629C10.9693 10.1918 10.6596 10.318 10.337 10.318C10.0145 10.318 9.7048 10.1918 9.47418 9.96629L6.04561 6.53772C5.93123 6.42501 5.84041 6.29068 5.77841 6.14255C5.71642 5.99442 5.68449 5.83544 5.68449 5.67486C5.68449 5.51428 5.71642 5.3553 5.77841 5.20717C5.84041 5.05904 5.93123 4.92472 6.04561 4.812V4.812C6.27036 4.58331 6.39629 4.2755 6.39629 3.95486C6.39629 3.63422 6.27036 3.32641 6.04561 3.09772L3.87418 0.926288C3.64356 0.70082 3.33385 0.574577 3.01132 0.574577C2.6888 0.574577 2.37908 0.70082 2.14846 0.926288L1.64561 1.44057C1.04943 2.02885 0.67399 2.80446 0.582411 3.63699C0.490833 4.46953 0.688703 5.3082 1.14275 6.012C3.50852 9.49855 6.51868 12.501 10.0113 14.8577V14.8577Z" stroke="#FF70A3" stroke-linecap="round" stroke-linejoin="round"/>
</g>
<defs>
<clipPath id="clip0_115_220">
<rect width="16" height="16" fill="white" transform="translate(0 0.00192261)"/>
</clipPath>
</defs>
</svg>
