<svg width="16" height="16" viewBox="0 0 16 16" fill="none" xmlns="http://www.w3.org/2000/svg">
<g clip-path="url(#clip0_115_230)">
<path d="M13.1431 5.71744C13.1431 8.56315 8.00028 15.4317 8.00028 15.4317C8.00028 15.4317 2.85742 8.56315 2.85742 5.71744C2.85742 4.35346 3.39926 3.04536 4.36373 2.08089C5.3282 1.11641 6.63631 0.574577 8.00028 0.574577C9.36425 0.574577 10.6724 1.11641 11.6368 2.08089C12.6013 3.04536 13.1431 4.35346 13.1431 5.71744V5.71744Z" stroke="#FF70A3" stroke-linecap="round" stroke-linejoin="round"/>
<path d="M8.00139 7.43049C8.94817 7.43049 9.71568 6.66298 9.71568 5.71621C9.71568 4.76943 8.94817 4.00192 8.00139 4.00192C7.05462 4.00192 6.28711 4.76943 6.28711 5.71621C6.28711 6.66298 7.05462 7.43049 8.00139 7.43049Z" stroke="#FF70A3" stroke-linecap="round" stroke-linejoin="round"/>
</g>
<defs>
<clipPath id="clip0_115_230">
<rect width="16" height="16" fill="white" transform="translate(0 0.00192261)"/>
</clipPath>
</defs>
</svg>
