<svg width="50" height="51" viewBox="0 0 50 51" fill="none" xmlns="http://www.w3.org/2000/svg">
<g clip-path="url(#clip0_269_859)">
<path d="M16.0709 46.4459C23.9607 46.4459 30.3566 40.05 30.3566 32.1602C30.3566 24.2704 23.9607 17.8745 16.0709 17.8745C8.18109 17.8745 1.78516 24.2704 1.78516 32.1602C1.78516 40.05 8.18109 46.4459 16.0709 46.4459Z" stroke="#FF70A3" stroke-width="2" stroke-linecap="round" stroke-linejoin="round"/>
<path d="M33.9283 46.4459C41.8181 46.4459 48.214 40.05 48.214 32.1602C48.214 24.2704 41.8181 17.8745 33.9283 17.8745C26.0385 17.8745 19.6426 24.2704 19.6426 32.1602C19.6426 40.05 26.0385 46.4459 33.9283 46.4459Z" stroke="#FF70A3" stroke-width="2" stroke-linecap="round" stroke-linejoin="round"/>
<path d="M24.9986 32.1603C32.8884 32.1603 39.2843 25.7644 39.2843 17.8746C39.2843 9.9848 32.8884 3.58887 24.9986 3.58887C17.1088 3.58887 10.7129 9.9848 10.7129 17.8746C10.7129 25.7644 17.1088 32.1603 24.9986 32.1603Z" stroke="#FF70A3" stroke-width="2" stroke-linecap="round" stroke-linejoin="round"/>
</g>
<defs>
<clipPath id="clip0_269_859">
<rect width="50" height="50" fill="white" transform="translate(0 0.0175781)"/>
</clipPath>
</defs>
</svg>
