<svg width="50" height="51" viewBox="0 0 50 51" fill="none" xmlns="http://www.w3.org/2000/svg">
<path d="M38 5.71313H12C11.4006 5.72959 10.8135 5.88688 10.2861 6.17228C9.75875 6.45768 9.30595 6.86318 8.96432 7.35599L2.46432 16.356C1.98166 17.038 1.74062 17.8618 1.77944 18.6964C1.81826 19.5311 2.13472 20.3288 2.67861 20.9631L22.1786 43.4274C22.5124 43.8576 22.9402 44.2057 23.4292 44.4452C23.9182 44.6847 24.4555 44.8092 25 44.8092C25.5445 44.8092 26.0818 44.6847 26.5708 44.4452C27.0598 44.2057 27.4876 43.8576 27.8215 43.4274L47.3215 20.9631C47.8653 20.3288 48.1818 19.5311 48.2206 18.6964C48.2594 17.8618 48.0184 17.038 47.5357 16.356L41.0357 7.35599C40.6941 6.86318 40.2413 6.45768 39.7139 6.17228C39.1866 5.88688 38.5994 5.72959 38 5.71313V5.71313Z" stroke="#FF70A3" stroke-width="2" stroke-linecap="round" stroke-linejoin="round"/>
<path d="M23.142 5.67749L14.4277 19.1775L24.9992 44.7132" stroke="#FF70A3" stroke-width="2" stroke-linecap="round" stroke-linejoin="round"/>
<path d="M26.9643 5.67749L35.6429 19.1775L25 44.7132" stroke="#FF70A3" stroke-width="2" stroke-linecap="round" stroke-linejoin="round"/>
<path d="M1.85742 19.1775H48.1431" stroke="#FF70A3" stroke-width="2" stroke-linecap="round" stroke-linejoin="round"/>
</svg>
