<svg width="31" height="30" viewBox="0 0 31 30" fill="none" xmlns="http://www.w3.org/2000/svg">
<path d="M25.1431 10.7143C25.1431 16.05 15.5003 28.9286 15.5003 28.9286C15.5003 28.9286 5.85742 16.05 5.85742 10.7143C5.85742 8.15682 6.87336 5.70412 8.68175 3.89574C10.4901 2.08735 12.9428 1.07141 15.5003 1.07141C18.0577 1.07141 20.5104 2.08735 22.3188 3.89574C24.1272 5.70412 25.1431 8.15682 25.1431 10.7143V10.7143Z" stroke="white" stroke-width="1.5" stroke-linecap="round" stroke-linejoin="round"/>
<path d="M15.4994 13.9286C17.2746 13.9286 18.7137 12.4895 18.7137 10.7143C18.7137 8.93908 17.2746 7.5 15.4994 7.5C13.7242 7.5 12.2852 8.93908 12.2852 10.7143C12.2852 12.4895 13.7242 13.9286 15.4994 13.9286Z" stroke="white" stroke-width="1.5" stroke-linecap="round" stroke-linejoin="round"/>
</svg>
