<svg width="50" height="51" viewBox="0 0 50 51" fill="none" xmlns="http://www.w3.org/2000/svg">
<path d="M44.6415 5.86621L32.4629 18.0448" stroke="#FF70A3" stroke-width="2" stroke-linecap="round" stroke-linejoin="round"/>
<path d="M5.35742 5.86621L17.536 18.0448" stroke="#FF70A3" stroke-width="2" stroke-linecap="round" stroke-linejoin="round"/>
<path d="M5.35742 45.1512L17.536 32.9727" stroke="#FF70A3" stroke-width="2" stroke-linecap="round" stroke-linejoin="round"/>
<path d="M44.6415 45.1512L32.4629 32.9727" stroke="#FF70A3" stroke-width="2" stroke-linecap="round" stroke-linejoin="round"/>
<path d="M24.9994 48.723C37.8203 48.723 48.2137 38.3296 48.2137 25.5087C48.2137 12.6878 37.8203 2.29443 24.9994 2.29443C12.1785 2.29443 1.78516 12.6878 1.78516 25.5087C1.78516 38.3296 12.1785 48.723 24.9994 48.723Z" stroke="#FF70A3" stroke-width="2" stroke-linecap="round" stroke-linejoin="round"/>
<path d="M24.9986 36.0441C30.8173 36.0441 35.5343 31.3271 35.5343 25.5084C35.5343 19.6897 30.8173 14.9727 24.9986 14.9727C19.1799 14.9727 14.4629 19.6897 14.4629 25.5084C14.4629 31.3271 19.1799 36.0441 24.9986 36.0441Z" stroke="#FF70A3" stroke-width="2" stroke-linecap="round" stroke-linejoin="round"/>
</svg>
