<svg width="50" height="51" viewBox="0 0 50 51" fill="none" xmlns="http://www.w3.org/2000/svg">
<path d="M45.8846 10.9275C45.7071 10.6693 45.4641 10.471 45.1846 10.3561L25.1846 2.24892C24.9954 2.16042 24.7911 2.11475 24.5846 2.11475C24.3781 2.11475 24.1739 2.16042 23.9846 2.24892L3.98464 10.4989C3.7204 10.5739 3.47908 10.7217 3.28464 10.9275C3.0518 11.2293 2.9224 11.6074 2.91797 11.9989V38.1418C2.92229 38.4984 3.02621 38.8455 3.21632 39.1384C3.40643 39.4312 3.67403 39.6563 3.98464 39.7846L23.9846 48.0346H24.5846H25.1846L45.1846 39.7846C45.4952 39.6563 45.7628 39.4312 45.953 39.1384C46.1431 38.8455 46.247 38.4984 46.2513 38.1418V12.1418C46.2795 11.7015 46.1482 11.2666 45.8846 10.9275V10.9275Z" stroke="#FF70A3" stroke-width="2" stroke-linecap="round" stroke-linejoin="round"/>
<path d="M24.584 48.2845V19.856" stroke="#FF70A3" stroke-width="2" stroke-linecap="round" stroke-linejoin="round"/>
<path d="M24.584 19.856V48.2845" stroke="#FF70A3" stroke-width="2" stroke-linecap="round" stroke-linejoin="round"/>
<path d="M3.2832 11.0703L24.5832 19.856L45.8832 11.0703" stroke="#FF70A3" stroke-width="2" stroke-linecap="round" stroke-linejoin="round"/>
</svg>
