<svg width="50" height="50" viewBox="0 0 50 50" fill="none" xmlns="http://www.w3.org/2000/svg">
<path d="M37.9981 5.5H11.9981C11.3987 5.51646 10.8115 5.67375 10.2842 5.95915C9.7568 6.24455 9.30399 6.65005 8.96237 7.14286L2.46237 16.1429C1.97971 16.8249 1.73867 17.6486 1.77749 18.4833C1.81631 19.3179 2.13277 20.1157 2.67665 20.75L22.1767 43.2143C22.5105 43.6444 22.9383 43.9926 23.4273 44.2321C23.9163 44.4715 24.4536 44.596 24.9981 44.596C25.5426 44.596 26.0799 44.4715 26.5689 44.2321C27.0579 43.9926 27.4857 43.6444 27.8195 43.2143L47.3195 20.75C47.8634 20.1157 48.1798 19.3179 48.2187 18.4833C48.2575 17.6486 48.0164 16.8249 47.5338 16.1429L41.0338 7.14286C40.6922 6.65005 40.2394 6.24455 39.712 5.95915C39.1846 5.67375 38.5975 5.51646 37.9981 5.5V5.5Z" stroke="#FF70A3" stroke-width="2" stroke-linecap="round" stroke-linejoin="round"/>
<path d="M23.1401 5.46484L14.4258 18.9648L24.9972 44.5006" stroke="#FF70A3" stroke-width="2" stroke-linecap="round" stroke-linejoin="round"/>
<path d="M26.9643 5.46484L35.6429 18.9648L25 44.5006" stroke="#FF70A3" stroke-width="2" stroke-linecap="round" stroke-linejoin="round"/>
<path d="M1.85547 18.9648H48.1412" stroke="#FF70A3" stroke-width="2" stroke-linecap="round" stroke-linejoin="round"/>
</svg>
