<svg width="50" height="51" viewBox="0 0 50 51" fill="none" xmlns="http://www.w3.org/2000/svg">
<g clip-path="url(#clip0_99_26409)">
<path d="M18.6782 8.24878L20.2139 4.28449C20.4729 3.61329 20.9286 3.03596 21.5212 2.62811C22.1139 2.22026 22.8159 2.0009 23.5353 1.99878H26.4639C27.1833 2.0009 27.8853 2.22026 28.478 2.62811C29.0707 3.03596 29.5263 3.61329 29.7853 4.28449L31.321 8.24878L36.5353 11.2488L40.7496 10.6059C41.4513 10.5107 42.1655 10.6262 42.8015 10.9378C43.4374 11.2494 43.9663 11.743 44.321 12.3559L45.7496 14.8559C46.1157 15.4786 46.2843 16.1976 46.2333 16.9181C46.1823 17.6386 45.914 18.3267 45.4639 18.8916L42.8568 22.2131V28.2131L45.5353 31.5345C45.9855 32.0994 46.2537 32.7875 46.3048 33.508C46.3558 34.2285 46.1871 34.9475 45.821 35.5702L44.3925 38.0702C44.0377 38.6831 43.5088 39.1767 42.8729 39.4883C42.237 39.7999 41.5228 39.9155 40.821 39.8202L36.6068 39.1774L31.3925 42.1774L29.8568 46.1416C29.5978 46.8128 29.1421 47.3902 28.5494 47.798C27.9568 48.2059 27.2548 48.4252 26.5353 48.4274H23.5353C22.8159 48.4252 22.1139 48.2059 21.5212 47.798C20.9286 47.3902 20.4729 46.8128 20.2139 46.1416L18.6782 42.1774L13.4639 39.1774L9.24961 39.8202C8.54788 39.9155 7.83368 39.7999 7.19776 39.4883C6.56184 39.1767 6.03291 38.6831 5.67818 38.0702L4.24961 35.5702C3.88354 34.9475 3.71489 34.2285 3.76589 33.508C3.8169 32.7875 4.08518 32.0994 4.53532 31.5345L7.14247 28.2131V22.2131L4.46389 18.8916C4.01375 18.3267 3.74547 17.6386 3.69447 16.9181C3.64346 16.1976 3.81211 15.4786 4.17818 14.8559L5.60675 12.3559C5.96148 11.743 6.49041 11.2494 7.12633 10.9378C7.76225 10.6262 8.47645 10.5107 9.17818 10.6059L13.3925 11.2488L18.6782 8.24878Z" stroke="#FF70A3" stroke-width="2" stroke-linecap="round" stroke-linejoin="round"/>
<path d="M24.9994 35.9273C30.9168 35.9273 35.7137 31.1304 35.7137 25.2131C35.7137 19.2957 30.9168 14.4988 24.9994 14.4988C19.0821 14.4988 14.2852 19.2957 14.2852 25.2131C14.2852 31.1304 19.0821 35.9273 24.9994 35.9273Z" stroke="#FF70A3" stroke-width="2" stroke-linecap="round" stroke-linejoin="round"/>
<path d="M25 14.4988V25.2131H35.7143" stroke="#FF70A3" stroke-width="2" stroke-linecap="round" stroke-linejoin="round"/>
<path d="M24.9992 25.2131L17.4277 32.7846" stroke="#FF70A3" stroke-width="2" stroke-linecap="round" stroke-linejoin="round"/>
</g>
<defs>
<clipPath id="clip0_99_26409">
<rect width="50" height="50" fill="white" transform="translate(0 0.213135)"/>
</clipPath>
</defs>
</svg>
