<svg width="50" height="51" viewBox="0 0 50 51" fill="none" xmlns="http://www.w3.org/2000/svg">
<path d="M26.6788 25.1515C26.1491 25.3815 25.5778 25.5002 25.0003 25.5002C24.4228 25.5002 23.8514 25.3815 23.3217 25.1515L2.96455 15.7229C2.63399 15.5562 2.35619 15.3009 2.1621 14.9857C1.968 14.6704 1.86523 14.3074 1.86523 13.9372C1.86523 13.5669 1.968 13.204 2.1621 12.8887C2.35619 12.5734 2.63399 12.3182 2.96455 12.1515L23.3217 2.65145C23.8514 2.42143 24.4228 2.30273 25.0003 2.30273C25.5778 2.30273 26.1491 2.42143 26.6788 2.65145L47.036 12.08C47.3666 12.2468 47.6443 12.502 47.8384 12.8173C48.0325 13.1325 48.1353 13.4955 48.1353 13.8657C48.1353 14.236 48.0325 14.5989 47.8384 14.9142C47.6443 15.2295 47.3666 15.4847 47.036 15.6515L26.6788 25.1515Z" stroke="#FF70A3" stroke-width="2" stroke-linecap="round" stroke-linejoin="round"/>
<path d="M48.2137 26.7588L26.428 36.7945C25.9627 37.0067 25.4573 37.1166 24.9459 37.1166C24.4345 37.1166 23.929 37.0067 23.4637 36.7945L1.78516 26.7588" stroke="#FF70A3" stroke-width="2" stroke-linecap="round" stroke-linejoin="round"/>
<path d="M48.2137 38.3657L26.428 48.4014C25.9627 48.6137 25.4573 48.7235 24.9459 48.7235C24.4345 48.7235 23.929 48.6137 23.4637 48.4014L1.78516 38.3657" stroke="#FF70A3" stroke-width="2" stroke-linecap="round" stroke-linejoin="round"/>
</svg>
