<svg width="30" height="30" viewBox="0 0 30 30" fill="none" xmlns="http://www.w3.org/2000/svg">
<g clip-path="url(#clip0_944_25)">
<path d="M11.2065 5.45703L12.1279 3.15775C12.2833 2.76845 12.5567 2.4336 12.9123 2.19704C13.2679 1.96049 13.6891 1.83326 14.1208 1.83203H15.8779C16.3096 1.83326 16.7308 1.96049 17.0864 2.19704C17.442 2.4336 17.7154 2.76845 17.8708 3.15775L18.7922 5.45703L21.9208 7.19703L24.4494 6.82417C24.8704 6.76893 25.2989 6.83593 25.6805 7.01666C26.062 7.19739 26.3794 7.48369 26.5922 7.83917L27.4494 9.28917C27.669 9.65033 27.7702 10.0674 27.7396 10.4853C27.709 10.9032 27.548 11.3023 27.2779 11.6299L25.7137 13.5563V17.0363L27.3208 18.9627C27.5909 19.2904 27.7519 19.6895 27.7825 20.1074C27.8131 20.5253 27.7119 20.9423 27.4922 21.3035L26.6351 22.7535C26.4223 23.1089 26.1049 23.3952 25.7233 23.576C25.3418 23.7567 24.9133 23.8237 24.4922 23.7685L21.9637 23.3956L18.8351 25.1356L17.9137 27.4349C17.7583 27.8242 17.4849 28.159 17.1293 28.3956C16.7737 28.6321 16.3525 28.7594 15.9208 28.7606H14.1208C13.6891 28.7594 13.2679 28.6321 12.9123 28.3956C12.5567 28.159 12.2833 27.8242 12.1279 27.4349L11.2065 25.1356L8.07795 23.3956L5.54938 23.7685C5.12834 23.8237 4.69982 23.7567 4.31827 23.576C3.93671 23.3952 3.61935 23.1089 3.40652 22.7535L2.54937 21.3035C2.32974 20.9423 2.22854 20.5253 2.25915 20.1074C2.28975 19.6895 2.45072 19.2904 2.7208 18.9627L4.28509 17.0363V13.5563L2.67795 11.6299C2.40786 11.3023 2.24689 10.9032 2.21629 10.4853C2.18568 10.0674 2.28688 9.65033 2.50652 9.28917L3.36366 7.83917C3.5765 7.48369 3.89386 7.19739 4.27541 7.01666C4.65696 6.83593 5.08548 6.76893 5.50652 6.82417L8.03509 7.19703L11.2065 5.45703Z" stroke="#FF70A3" stroke-width="1.5" stroke-linecap="round" stroke-linejoin="round"/>
<path d="M14.9989 21.5106C18.5493 21.5106 21.4275 18.7284 21.4275 15.2963C21.4275 11.8643 18.5493 9.08203 14.9989 9.08203C11.4485 9.08203 8.57031 11.8643 8.57031 15.2963C8.57031 18.7284 11.4485 21.5106 14.9989 21.5106Z" stroke="#FF70A3" stroke-width="1.5" stroke-linecap="round" stroke-linejoin="round"/>
<path d="M15 9.08203V15.2963H21.4286" stroke="#FF70A3" stroke-width="1.5" stroke-linecap="round" stroke-linejoin="round"/>
<path d="M14.9999 15.2969L10.457 19.6883" stroke="#FF70A3" stroke-width="1.5" stroke-linecap="round" stroke-linejoin="round"/>
</g>
<defs>
<clipPath id="clip0_944_25">
<rect width="30" height="29" fill="white" transform="translate(0 0.796875)"/>
</clipPath>
</defs>
</svg>
