<svg width="40" height="41" viewBox="0 0 40 41" fill="none" xmlns="http://www.w3.org/2000/svg">
<path d="M12.8563 37.4768C19.1681 37.4768 24.2849 32.36 24.2849 26.0482C24.2849 19.7364 19.1681 14.6196 12.8563 14.6196C6.54448 14.6196 1.42773 19.7364 1.42773 26.0482C1.42773 32.36 6.54448 37.4768 12.8563 37.4768Z" stroke="#FF70A3" stroke-width="1.5" stroke-linecap="round" stroke-linejoin="round"/>
<path d="M27.1415 37.4768C33.4533 37.4768 38.57 32.36 38.57 26.0482C38.57 19.7364 33.4533 14.6196 27.1415 14.6196C20.8296 14.6196 15.7129 19.7364 15.7129 26.0482C15.7129 32.36 20.8296 37.4768 27.1415 37.4768Z" stroke="#FF70A3" stroke-width="1.5" stroke-linecap="round" stroke-linejoin="round"/>
<path d="M19.9989 26.0483C26.3107 26.0483 31.4275 20.9316 31.4275 14.6197C31.4275 8.30791 26.3107 3.19116 19.9989 3.19116C13.6871 3.19116 8.57031 8.30791 8.57031 14.6197C8.57031 20.9316 13.6871 26.0483 19.9989 26.0483Z" stroke="#FF70A3" stroke-width="1.5" stroke-linecap="round" stroke-linejoin="round"/>
</svg>
