<svg width="50" height="51" viewBox="0 0 50 51" fill="none" xmlns="http://www.w3.org/2000/svg">
<path d="M26.6788 24.856C26.1491 25.0861 25.5778 25.2048 25.0003 25.2048C24.4228 25.2048 23.8514 25.0861 23.3217 24.856L2.96455 15.4275C2.63399 15.2607 2.35619 15.0055 2.1621 14.6902C1.968 14.375 1.86523 14.012 1.86523 13.6418C1.86523 13.2715 1.968 12.9086 2.1621 12.5933C2.35619 12.278 2.63399 12.0228 2.96455 11.856L23.3217 2.35604C23.8514 2.12602 24.4228 2.00732 25.0003 2.00732C25.5778 2.00732 26.1491 2.12602 26.6788 2.35604L47.036 11.7846C47.3666 11.9513 47.6443 12.2066 47.8384 12.5218C48.0325 12.8371 48.1353 13.2001 48.1353 13.5703C48.1353 13.9406 48.0325 14.3035 47.8384 14.6188C47.6443 14.9341 47.3666 15.1893 47.036 15.356L26.6788 24.856Z" stroke="#FF70A3" stroke-width="2" stroke-linecap="round" stroke-linejoin="round"/>
<path d="M48.2137 26.4631L26.428 36.4988C25.9627 36.7111 25.4573 36.8209 24.9459 36.8209C24.4345 36.8209 23.929 36.7111 23.4637 36.4988L1.78516 26.4631" stroke="#FF70A3" stroke-width="2" stroke-linecap="round" stroke-linejoin="round"/>
<path d="M48.2137 38.0703L26.428 48.106C25.9627 48.3183 25.4573 48.4281 24.9459 48.4281C24.4345 48.4281 23.929 48.3183 23.4637 48.106L1.78516 38.0703" stroke="#FF70A3" stroke-width="2" stroke-linecap="round" stroke-linejoin="round"/>
</svg>
