<svg width="20" height="21" viewBox="0 0 20 21" fill="none" xmlns="http://www.w3.org/2000/svg">
<g clip-path="url(#clip0_141_605)">
<path d="M12.5146 18.6029C13.3944 19.1705 14.4427 19.4178 15.4834 19.3034C16.5241 19.1889 17.4936 18.7196 18.2289 17.9744L18.8718 17.3458C19.1536 17.0575 19.3114 16.6704 19.3114 16.2672C19.3114 15.8641 19.1536 15.4769 18.8718 15.1887L16.1432 12.4887C15.8573 12.2077 15.4726 12.0503 15.0718 12.0503C14.671 12.0503 14.2862 12.2077 14.0004 12.4887V12.4887C13.7121 12.7705 13.3249 12.9283 12.9218 12.9283C12.5186 12.9283 12.1315 12.7705 11.8432 12.4887L7.5575 8.20295C7.41453 8.06206 7.301 7.89415 7.2235 7.70899C7.14601 7.52382 7.10611 7.3251 7.10611 7.12438C7.10611 6.92365 7.14601 6.72493 7.2235 6.53977C7.301 6.35461 7.41453 6.1867 7.5575 6.04581V6.04581C7.83843 5.75994 7.99585 5.37518 7.99585 4.97438C7.99585 4.57358 7.83843 4.18881 7.5575 3.90295L4.84321 1.18866C4.55494 0.906827 4.16779 0.749023 3.76464 0.749023C3.36148 0.749023 2.97434 0.906827 2.68607 1.18866L2.0575 1.83152C1.31228 2.56686 0.842975 3.53638 0.728502 4.57704C0.614029 5.61771 0.861367 6.66605 1.42893 7.54581C4.38613 11.904 8.14884 15.657 12.5146 18.6029V18.6029Z" stroke="white" stroke-linecap="round" stroke-linejoin="round"/>
</g>
<defs>
<clipPath id="clip0_141_605">
<rect width="20" height="20" fill="white" transform="translate(0 0.0332031)"/>
</clipPath>
</defs>
</svg>
