<svg width="31" height="31" viewBox="0 0 31 31" fill="none" xmlns="http://www.w3.org/2000/svg">
<g clip-path="url(#clip0_141_685)">
<path d="M6.60714 29.7265C9.56581 29.7265 11.9643 27.328 11.9643 24.3693C11.9643 21.4107 9.56581 19.0122 6.60714 19.0122C3.64847 19.0122 1.25 21.4107 1.25 24.3693C1.25 27.328 3.64847 29.7265 6.60714 29.7265Z" stroke="#FF70A3" stroke-width="1.5" stroke-linecap="round" stroke-linejoin="round"/>
<path d="M11.9646 7.22664V4.01235C11.9646 3.44403 11.7388 2.89899 11.3369 2.49712C10.9351 2.09526 10.39 1.8695 9.82171 1.8695H7.29314C6.78879 1.86032 6.29738 2.02936 5.90541 2.34686C5.51344 2.66436 5.24604 3.10996 5.15028 3.60521L1.35742 23.2981" stroke="#FF70A3" stroke-width="1.5" stroke-linecap="round" stroke-linejoin="round"/>
<path d="M9.82227 12.584H20.5366" stroke="#FF70A3" stroke-width="1.5" stroke-linecap="round" stroke-linejoin="round"/>
<path d="M11.9648 17.9409V24.3695" stroke="#FF70A3" stroke-width="1.5" stroke-linecap="round" stroke-linejoin="round"/>
<path d="M23.7497 29.7265C26.7084 29.7265 29.1069 27.328 29.1069 24.3693C29.1069 21.4107 26.7084 19.0122 23.7497 19.0122C20.7911 19.0122 18.3926 21.4107 18.3926 24.3693C18.3926 27.328 20.7911 29.7265 23.7497 29.7265Z" stroke="#FF70A3" stroke-width="1.5" stroke-linecap="round" stroke-linejoin="round"/>
<path d="M18.3926 7.22664V4.01235C18.3926 3.44403 18.6183 2.89899 19.0202 2.49712C19.4221 2.09526 19.9671 1.8695 20.5354 1.8695H23.064C23.5684 1.86032 24.0598 2.02936 24.4517 2.34686C24.8437 2.66436 25.1111 3.10996 25.2069 3.60521L29.0426 23.2981" stroke="#FF70A3" stroke-width="1.5" stroke-linecap="round" stroke-linejoin="round"/>
<path d="M18.3926 17.9409V24.3695" stroke="#FF70A3" stroke-width="1.5" stroke-linecap="round" stroke-linejoin="round"/>
</g>
<defs>
<clipPath id="clip0_141_685">
<rect width="30" height="30" fill="white" transform="translate(0.177734 0.797852)"/>
</clipPath>
</defs>
</svg>
