<svg width="50" height="51" viewBox="0 0 50 51" fill="none" xmlns="http://www.w3.org/2000/svg">
<path d="M11.6066 21.6429C17.0308 21.6429 21.428 17.2457 21.428 11.8214C21.428 6.3972 17.0308 2 11.6066 2C6.18236 2 1.78516 6.3972 1.78516 11.8214C1.78516 17.2457 6.18236 21.6429 11.6066 21.6429Z" stroke="#FF70A3" stroke-width="2" stroke-linecap="round" stroke-linejoin="round"/>
<path d="M38.3917 21.6429C43.816 21.6429 48.2132 17.2457 48.2132 11.8214C48.2132 6.3972 43.816 2 38.3917 2C32.9675 2 28.5703 6.3972 28.5703 11.8214C28.5703 17.2457 32.9675 21.6429 38.3917 21.6429Z" stroke="#FF70A3" stroke-width="2" stroke-linecap="round" stroke-linejoin="round"/>
<path d="M11.6066 48.428C17.0308 48.428 21.428 44.0308 21.428 38.6066C21.428 33.1824 17.0308 28.7852 11.6066 28.7852C6.18236 28.7852 1.78516 33.1824 1.78516 38.6066C1.78516 44.0308 6.18236 48.428 11.6066 48.428Z" stroke="#FF70A3" stroke-width="2" stroke-linecap="round" stroke-linejoin="round"/>
<path d="M38.3917 48.428C43.816 48.428 48.2132 44.0308 48.2132 38.6066C48.2132 33.1824 43.816 28.7852 38.3917 28.7852C32.9675 28.7852 28.5703 33.1824 28.5703 38.6066C28.5703 44.0308 32.9675 48.428 38.3917 48.428Z" stroke="#FF70A3" stroke-width="2" stroke-linecap="round" stroke-linejoin="round"/>
</svg>
