<svg width="40" height="41" viewBox="0 0 40 41" fill="none" xmlns="http://www.w3.org/2000/svg">
<path d="M30.3996 5.15845H9.59964C9.1201 5.17161 8.6504 5.29745 8.2285 5.52577C7.80661 5.75409 7.44437 6.07848 7.17106 6.47273L1.97107 13.6727C1.58494 14.2184 1.39211 14.8773 1.42316 15.5451C1.45422 16.2128 1.70739 16.851 2.14249 17.3584L17.7425 35.3299C18.0096 35.674 18.3518 35.9525 18.743 36.1441C19.1342 36.3357 19.564 36.4353 19.9996 36.4353C20.4352 36.4353 20.8651 36.3357 21.2563 36.1441C21.6475 35.9525 21.9897 35.674 22.2568 35.3299L37.8568 17.3584C38.2919 16.851 38.545 16.2128 38.5761 15.5451C38.6072 14.8773 38.4143 14.2184 38.0282 13.6727L32.8282 6.47273C32.5549 6.07848 32.1927 5.75409 31.7708 5.52577C31.3489 5.29745 30.8792 5.17161 30.3996 5.15845V5.15845Z" stroke="#FF70A3" stroke-width="1.5" stroke-linecap="round" stroke-linejoin="round"/>
<path d="M18.5124 5.12988L11.541 15.9299L19.9982 36.3585" stroke="#FF70A3" stroke-width="1.5" stroke-linecap="round" stroke-linejoin="round"/>
<path d="M21.5714 5.12988L28.5143 15.9299L20 36.3585" stroke="#FF70A3" stroke-width="1.5" stroke-linecap="round" stroke-linejoin="round"/>
<path d="M1.48633 15.9299H38.5149" stroke="#FF70A3" stroke-width="1.5" stroke-linecap="round" stroke-linejoin="round"/>
</svg>
