<svg width="50" height="51" viewBox="0 0 50 51" fill="none" xmlns="http://www.w3.org/2000/svg">
<path d="M16.0709 46.6417C23.9607 46.6417 30.3566 40.2458 30.3566 32.356C30.3566 24.4662 23.9607 18.0703 16.0709 18.0703C8.18109 18.0703 1.78516 24.4662 1.78516 32.356C1.78516 40.2458 8.18109 46.6417 16.0709 46.6417Z" stroke="#FF70A3" stroke-width="2" stroke-linecap="round" stroke-linejoin="round"/>
<path d="M33.9283 46.6417C41.8181 46.6417 48.214 40.2458 48.214 32.356C48.214 24.4662 41.8181 18.0703 33.9283 18.0703C26.0385 18.0703 19.6426 24.4662 19.6426 32.356C19.6426 40.2458 26.0385 46.6417 33.9283 46.6417Z" stroke="#FF70A3" stroke-width="2" stroke-linecap="round" stroke-linejoin="round"/>
<path d="M24.9986 32.3561C32.8884 32.3561 39.2843 25.9602 39.2843 18.0704C39.2843 10.1806 32.8884 3.78467 24.9986 3.78467C17.1088 3.78467 10.7129 10.1806 10.7129 18.0704C10.7129 25.9602 17.1088 32.3561 24.9986 32.3561Z" stroke="#FF70A3" stroke-width="2" stroke-linecap="round" stroke-linejoin="round"/>
</svg>
