<svg width="45" height="51" viewBox="0 0 45 51" fill="none" xmlns="http://www.w3.org/2000/svg">
<path d="M22.3886 0.901108C10.0236 0.901108 0 10.9248 0 23.2899C0 35.655 10.0236 45.6787 22.3886 45.6787C27.5998 45.6787 32.3913 43.8932 36.1959 40.9073C36.1245 40.4646 35.9917 40.0962 35.7864 39.8205C35.3414 39.2219 34.4534 38.8917 33.1472 38.8387C27.8762 38.625 26.8399 36.5239 26.7717 32.7218C26.7623 32.1816 26.6652 31.7623 26.4765 31.4509C26.1052 31.6699 25.7563 31.7843 25.4164 31.7998C25.3803 31.8013 25.3464 31.802 25.3124 31.802C24.9206 31.802 24.5309 31.7002 24.1729 31.5061C23.0147 32.1931 21.9166 32.541 20.9067 32.541C19.9126 32.541 18.4837 32.2032 17.3247 30.5928C15.7583 28.5671 10.6395 21.6665 10.8542 18.3403C11.0599 15.1527 13.9588 13.7007 16.5655 13.7007C17.4297 13.7007 18.2758 13.8529 19.0119 14.1409C20.5711 14.7511 29.7258 19.6739 30.3959 22.1893C30.6838 23.2668 30.3814 24.5838 29.497 26.1062C29.6165 26.2718 29.7067 26.4447 29.7666 26.6229C29.894 27.0047 29.8748 27.3886 29.7045 27.8166C30.774 29.0044 31.4008 30.6441 31.5693 32.694C31.6263 33.3929 31.6725 33.8281 31.832 33.9739C31.9987 34.1265 32.4606 34.1687 33.2252 34.2387C33.8988 34.3004 34.7371 34.3769 35.7218 34.5938C37.5447 34.9954 38.9433 35.961 39.7815 37.383C42.9038 33.5344 44.7776 28.6317 44.7776 23.2895C44.7772 10.9248 34.7537 0.901108 22.3886 0.901108ZM34.1749 20.427C31.8825 20.427 30.0242 18.5687 30.0242 16.2763C30.0242 13.9839 31.8825 12.1256 34.1749 12.1256C36.4672 12.1256 38.3255 13.9839 38.3255 16.2763C38.3255 18.5683 36.4672 20.427 34.1749 20.427Z" fill="#F270A0"/>
<path d="M44.8711 50.2212C44.7549 49.873 41.6796 50.8595 39.8804 49.6987C38.0813 48.5383 37.7331 45.9265 38.7777 42.8511C39.8224 39.7754 38.8358 36.7577 35.4119 36.0036C31.9879 35.2491 30.4212 36.3518 30.1311 32.812C29.9178 30.2085 28.888 28.8006 27.8503 28.098C28.2089 27.6195 28.4431 27.2161 28.3987 27.0833C28.3255 26.8654 27.9914 26.5912 27.5905 26.3909C28.6188 24.9689 29.2535 23.5042 29.002 22.5617C28.6091 21.0877 20.7469 16.3705 18.4866 15.4857C16.2264 14.6013 12.4918 15.3876 12.2955 18.4341C12.0988 21.4806 18.4866 29.7358 18.4866 29.7358C20.0776 31.9633 22.3768 31.0994 24.2899 29.6994C24.5194 30.0148 24.8867 30.3792 25.3519 30.3583C25.6156 30.3464 26.0443 30.0368 26.4979 29.6128C27.2607 29.9747 28.1822 30.8003 28.2161 32.6965C28.2742 35.9462 28.9125 37.2228 33.2068 37.3971C37.5011 37.571 38.3718 40.3567 37.2691 44.651C36.1664 48.9453 39.7643 52.0211 44.349 50.512C44.3486 50.5113 44.9873 50.5694 44.8711 50.2212Z" fill="white"/>
</svg>
