<svg width="152" height="51" viewBox="0 0 152 51" fill="none" xmlns="http://www.w3.org/2000/svg">
<path d="M67.1348 35.4011V14.1611H82.2548V18.1511H71.4248V23.6411H80.5748V27.6011H71.4248V35.4011H67.1348ZM91.1085 35.6111C89.4485 35.6111 88.0385 35.2811 86.8785 34.6211C85.7185 33.9611 84.8285 33.0311 84.2085 31.8311C83.5885 30.6111 83.2785 29.1911 83.2785 27.5711C83.2785 25.9311 83.5985 24.5011 84.2385 23.2811C84.8785 22.0411 85.7785 21.0711 86.9385 20.3711C88.1185 19.6711 89.5085 19.3211 91.1085 19.3211C92.3085 19.3211 93.3585 19.5211 94.2585 19.9211C95.1785 20.3211 95.9485 20.8811 96.5685 21.6011C97.2085 22.3211 97.6785 23.1611 97.9785 24.1211C98.2985 25.0611 98.4485 26.0811 98.4285 27.1811C98.4285 27.4611 98.4185 27.7311 98.3985 27.9911C98.3785 28.2511 98.3385 28.5111 98.2785 28.7711H87.4485C87.5085 29.3711 87.6785 29.9211 87.9585 30.4211C88.2385 30.9211 88.6285 31.3211 89.1285 31.6211C89.6485 31.9011 90.2885 32.0411 91.0485 32.0411C91.5485 32.0411 92.0085 31.9911 92.4285 31.8911C92.8485 31.7711 93.2085 31.5911 93.5085 31.3511C93.8085 31.1111 94.0185 30.8311 94.1385 30.5111H98.2785C98.0185 31.6911 97.5285 32.6611 96.8085 33.4211C96.1085 34.1811 95.2585 34.7411 94.2585 35.1011C93.2585 35.4411 92.2085 35.6111 91.1085 35.6111ZM87.5385 25.8311H94.4085C94.3885 25.2911 94.2485 24.7911 93.9885 24.3311C93.7485 23.8511 93.3785 23.4711 92.8785 23.1911C92.3985 22.8911 91.7785 22.7411 91.0185 22.7411C90.2585 22.7411 89.6185 22.8911 89.0985 23.1911C88.5985 23.4911 88.2185 23.8811 87.9585 24.3611C87.7185 24.8211 87.5785 25.3111 87.5385 25.8311ZM101.134 35.4011V19.5911H104.914L105.184 21.4811C105.584 20.8811 106.034 20.4311 106.534 20.1311C107.034 19.8111 107.554 19.6011 108.094 19.5011C108.634 19.3811 109.184 19.3211 109.744 19.3211C110.004 19.3211 110.244 19.3311 110.464 19.3511C110.684 19.3511 110.844 19.3511 110.944 19.3511V23.4011H109.954C109.014 23.4011 108.194 23.5611 107.494 23.8811C106.794 24.2011 106.254 24.7011 105.874 25.3811C105.514 26.0611 105.334 26.9311 105.334 27.9911V35.4011H101.134ZM112.912 35.4011V14.1611H117.112V35.4011H112.912ZM120.441 35.4011V19.5911H124.641V35.4011H120.441ZM122.541 18.0011C121.761 18.0011 121.131 17.7711 120.651 17.3111C120.171 16.8311 119.931 16.2211 119.931 15.4811C119.931 14.7011 120.181 14.0711 120.681 13.5911C121.181 13.1111 121.811 12.8711 122.571 12.8711C123.271 12.8711 123.871 13.1111 124.371 13.5911C124.891 14.0511 125.151 14.6711 125.151 15.4511C125.151 16.2111 124.901 16.8311 124.401 17.3111C123.921 17.7711 123.301 18.0011 122.541 18.0011ZM126.5 35.4011L132.02 27.3311L126.77 19.5911H131.66L134.78 24.5711L137.84 19.5911H142.58L137.3 27.4211L142.94 35.4011H138.05L134.6 30.2111L131.18 35.4011H126.5Z" fill="white"/>
<path d="M147.337 35.7911C146.617 35.7911 146.007 35.5711 145.507 35.1311C145.007 34.6911 144.757 34.0611 144.757 33.2411C144.757 32.4011 145.007 31.7411 145.507 31.2611C146.027 30.7811 146.637 30.5411 147.337 30.5411C148.037 30.5411 148.637 30.7811 149.137 31.2611C149.637 31.7211 149.887 32.3711 149.887 33.2111C149.887 34.0511 149.637 34.6911 149.137 35.1311C148.637 35.5711 148.037 35.7911 147.337 35.7911Z" fill="#F270A0"/>
<path d="M22.3886 0.901108C10.0236 0.901108 0 10.9248 0 23.2899C0 35.655 10.0236 45.6787 22.3886 45.6787C27.5998 45.6787 32.3913 43.8932 36.1959 40.9073C36.1245 40.4646 35.9917 40.0962 35.7864 39.8205C35.3414 39.2219 34.4534 38.8917 33.1472 38.8387C27.8762 38.625 26.8399 36.5239 26.7717 32.7218C26.7623 32.1816 26.6652 31.7623 26.4765 31.4509C26.1052 31.6699 25.7563 31.7843 25.4164 31.7998C25.3803 31.8013 25.3464 31.802 25.3124 31.802C24.9206 31.802 24.5309 31.7002 24.1729 31.5061C23.0147 32.1931 21.9166 32.541 20.9067 32.541C19.9126 32.541 18.4837 32.2032 17.3247 30.5928C15.7583 28.5671 10.6395 21.6665 10.8542 18.3403C11.0599 15.1527 13.9588 13.7007 16.5655 13.7007C17.4297 13.7007 18.2758 13.8529 19.0119 14.1409C20.5711 14.7511 29.7258 19.6739 30.3959 22.1893C30.6838 23.2668 30.3814 24.5838 29.497 26.1062C29.6165 26.2718 29.7067 26.4447 29.7666 26.6229C29.894 27.0047 29.8748 27.3886 29.7045 27.8166C30.774 29.0044 31.4008 30.6441 31.5693 32.694C31.6263 33.3929 31.6725 33.8281 31.832 33.9739C31.9987 34.1265 32.4606 34.1687 33.2252 34.2387C33.8988 34.3004 34.7371 34.3769 35.7218 34.5938C37.5447 34.9954 38.9433 35.961 39.7815 37.383C42.9038 33.5344 44.7776 28.6317 44.7776 23.2895C44.7772 10.9248 34.7537 0.901108 22.3886 0.901108ZM34.1749 20.427C31.8825 20.427 30.0242 18.5687 30.0242 16.2763C30.0242 13.9839 31.8825 12.1256 34.1749 12.1256C36.4672 12.1256 38.3255 13.9839 38.3255 16.2763C38.3255 18.5683 36.4672 20.427 34.1749 20.427Z" fill="#F270A0"/>
<path d="M44.8711 50.2212C44.7549 49.873 41.6796 50.8595 39.8804 49.6987C38.0813 48.5383 37.7331 45.9265 38.7777 42.8511C39.8224 39.7754 38.8358 36.7577 35.4119 36.0036C31.9879 35.2491 30.4212 36.3518 30.1311 32.812C29.9178 30.2085 28.888 28.8006 27.8503 28.098C28.2089 27.6195 28.4431 27.2161 28.3987 27.0833C28.3255 26.8654 27.9914 26.5912 27.5905 26.3909C28.6188 24.9689 29.2535 23.5042 29.002 22.5617C28.6091 21.0877 20.7469 16.3705 18.4866 15.4857C16.2264 14.6013 12.4918 15.3876 12.2955 18.4341C12.0988 21.4806 18.4866 29.7358 18.4866 29.7358C20.0776 31.9633 22.3768 31.0994 24.2899 29.6994C24.5194 30.0148 24.8867 30.3792 25.3519 30.3583C25.6156 30.3464 26.0443 30.0368 26.4979 29.6128C27.2607 29.9747 28.1822 30.8003 28.2161 32.6965C28.2742 35.9462 28.9125 37.2228 33.2068 37.3971C37.5011 37.571 38.3718 40.3567 37.2691 44.651C36.1664 48.9453 39.7643 52.0211 44.349 50.512C44.3486 50.5113 44.9873 50.5694 44.8711 50.2212Z" fill="white"/>
</svg>
