<svg width="30" height="30" viewBox="0 0 30 30" fill="none" xmlns="http://www.w3.org/2000/svg">
<path d="M6.18748 18.0357C5.56875 19.5919 4.59377 21.1294 3.29063 22.6107C2.87813 23.0795 2.82188 23.7544 3.15937 24.2794C3.4219 24.6919 3.85312 24.9169 4.32187 24.9169C4.45313 24.9169 4.58439 24.9076 4.71565 24.8607C7.47185 24.0544 13.9125 21.1951 14.0907 12.0263C14.1562 8.49196 11.5688 5.45447 8.20312 5.10759C6.33751 4.92008 4.48128 5.52942 3.10312 6.76693C1.72503 8.01382 0.9375 9.79509 0.9375 11.6513C0.9375 14.7451 3.13128 17.4545 6.18748 18.0357Z" fill="#20296E"/>
<path d="M23.1665 5.10759C21.3102 4.92008 19.4539 5.52942 18.0758 6.76693C16.6977 8.01382 15.9102 9.79509 15.9102 11.6513C15.9102 14.7451 18.1039 17.4544 21.1602 18.0357C20.5414 19.5919 19.5664 21.1294 18.2633 22.6107C17.8508 23.0794 17.7945 23.7544 18.1321 24.2794C18.3946 24.6919 18.8258 24.9169 19.2946 24.9169C19.4258 24.9169 19.557 24.9076 19.6883 24.8607C22.4446 24.0544 28.8852 21.1951 29.0633 12.0263V11.8951C29.0633 8.41694 26.504 5.45447 23.1665 5.10759Z" fill="#20296E"/>
</svg>
